<svg width="20" height="20" viewBox="0 0 20 20" fill="none" xmlns="http://www.w3.org/2000/svg">
<path d="M18.3346 17.5224L13.9366 13.1244C14.9671 11.9099 15.5922 10.3425 15.5922 8.62871C15.5922 4.7901 12.4687 1.66663 8.63005 1.66663C4.79145 1.66663 1.66797 4.7901 1.66797 8.62871C1.66797 12.4674 4.79145 15.5909 8.63005 15.5909C10.3439 15.5909 11.9112 14.9658 13.1257 13.9353L17.5237 18.3333L18.3346 17.5224ZM2.81488 8.62871C2.81488 5.42268 5.42403 2.81353 8.63005 2.81353C11.8361 2.81353 14.4453 5.42268 14.4453 8.62871C14.4453 11.8348 11.8361 14.444 8.63005 14.444C5.42403 14.444 2.81488 11.8348 2.81488 8.62871Z" fill="black"/>
</svg>
