<svg width="20" height="20" viewBox="0 0 20 20" fill="none" xmlns="http://www.w3.org/2000/svg">
<g id="fi_4991422">
<path id="Vector" d="M16.424 13.3476L15.3925 12.282C15.2483 12.1333 15.1689 11.9364 15.1689 11.7279V8.50586C15.1689 5.905 13.4564 3.70246 11.1147 2.99582C11.1358 2.88895 11.1469 2.77961 11.1469 2.66992C11.1469 1.74918 10.4081 1 9.5 1C8.59194 1 7.85307 1.74918 7.85307 2.66992C7.85307 2.78066 7.86382 2.88965 7.88428 2.99617C5.54322 3.70316 3.83111 5.90535 3.83111 8.50586V11.7279C3.83111 11.9364 3.75171 12.1333 3.60747 12.282L2.57598 13.3476C2.0032 13.9389 1.8437 14.7812 2.16026 15.5459C2.47647 16.3102 3.18101 16.7852 3.99858 16.7852H7.03897C7.18529 18.0307 8.23273 19 9.5 19C10.7673 19 11.8147 18.0307 11.961 16.7852H15.0014C15.819 16.7852 16.5235 16.3102 16.8397 15.5459C17.1563 14.7812 16.9968 13.9389 16.424 13.3476ZM9.0666 2.66992C9.0666 2.4277 9.26111 2.23047 9.5 2.23047C9.73889 2.23047 9.9334 2.4277 9.9334 2.66992C9.9334 2.70789 9.92855 2.74199 9.92092 2.77363C9.78188 2.76344 9.64146 2.75781 9.5 2.75781C9.35854 2.75781 9.21812 2.76344 9.07908 2.77363C9.07145 2.74234 9.0666 2.70789 9.0666 2.66992ZM9.5 17.7695C8.90364 17.7695 8.40263 17.3491 8.26949 16.7852H10.7305C10.5974 17.3491 10.0964 17.7695 9.5 17.7695ZM15.7209 15.0699C15.6737 15.1838 15.4827 15.5547 15.0014 15.5547H3.99858C3.51733 15.5547 3.32628 15.1834 3.27913 15.0699C3.23198 14.956 3.10473 14.558 3.44174 14.2096L4.47358 13.144C4.8418 12.7636 5.04463 12.2609 5.04463 11.7279V8.50586C5.04463 6.01504 7.04313 3.98828 9.5 3.98828C11.9569 3.98828 13.9554 6.01504 13.9554 8.50586V11.7279C13.9554 12.2609 14.1582 12.7636 14.5264 13.144L15.5583 14.2096C15.8953 14.5577 15.768 14.956 15.7209 15.0699Z" fill="#323232"/>
</g>
</svg>
