<svg width="20" height="20" viewBox="0 0 20 20" fill="none" xmlns="http://www.w3.org/2000/svg">
<path d="M17.9186 16.4929L17.0255 5.23836C16.9698 4.51328 16.3566 3.94527 15.6294 3.94527H13.8652V3.86598C13.8652 1.73426 12.131 0 9.99926 0C7.86754 0 6.13328 1.73426 6.13328 3.86598V3.94527H4.36914C3.64191 3.94527 3.02867 4.51324 2.9732 5.23684L2.07976 16.4944C2.01062 17.3958 2.32332 18.2932 2.93761 18.9564C3.55191 19.6196 4.42273 20 5.32675 20H14.6717C15.5757 20 16.4466 19.6196 17.0609 18.9564C17.6752 18.2931 17.9878 17.3958 17.9186 16.4929ZM7.30476 3.86598C7.30476 2.38023 8.51355 1.17148 9.99926 1.17148C11.485 1.17148 12.6937 2.38027 12.6937 3.86598V3.94527H7.30476V3.86598ZM16.2014 18.1604C15.8023 18.5912 15.2591 18.8285 14.6717 18.8285H5.32679C4.73945 18.8285 4.19625 18.5912 3.79711 18.1604C3.398 17.7295 3.20293 17.1696 3.24777 16.5855L4.14113 5.32793C4.15019 5.20949 4.25035 5.11676 4.36914 5.11676H6.13328V6.55953C6.13328 6.88301 6.39554 7.14527 6.71902 7.14527C7.0425 7.14527 7.30476 6.88301 7.30476 6.55953V5.11676H12.6937V6.55953C12.6937 6.88301 12.956 7.14527 13.2795 7.14527C13.603 7.14527 13.8652 6.88301 13.8652 6.55953V5.11676H15.6294C15.7482 5.11676 15.8483 5.20953 15.8575 5.32949L16.7507 16.584C16.7956 17.1696 16.6005 17.7294 16.2014 18.1604Z" fill="#4D4D4D"/>
<path d="M12.6408 9.93301C12.4121 9.70426 12.0412 9.70426 11.8125 9.93301L9.19703 12.5485L8.19133 11.5428C7.96262 11.314 7.59172 11.314 7.36297 11.5428C7.13422 11.7715 7.13422 12.1424 7.36297 12.3711L8.78285 13.791C8.89723 13.9054 9.04715 13.9626 9.19699 13.9626C9.34684 13.9626 9.4968 13.9054 9.61113 13.791L12.6407 10.7614C12.8695 10.5326 12.8695 10.1618 12.6408 9.93301Z" fill="#4D4D4D"/>
</svg>
