<svg width="20" height="20" viewBox="0 0 20 20" fill="none" xmlns="http://www.w3.org/2000/svg">
<g clip-path="url(#clip0_955_10680)">
<mask id="mask0_955_10680" style="mask-type:luminance" maskUnits="userSpaceOnUse" x="0" y="0" width="20" height="20">
<path d="M20 0H0V20H20V0Z" fill="white"/>
</mask>
<g mask="url(#mask0_955_10680)">
<path fill-rule="evenodd" clip-rule="evenodd" d="M9.3745 2.50049C9.3745 1.46549 8.5345 0.625488 7.4995 0.625488H2.5C1.465 0.625488 0.625 1.46549 0.625 2.50049V7.49999C0.625 8.53499 1.465 9.37499 2.5 9.37499H7.4995C8.5345 9.37499 9.3745 8.53499 9.3745 7.49999V2.50049ZM8.125 2.50049V7.49999C8.125 7.84499 7.8445 8.12549 7.4995 8.12549H2.5C2.155 8.12549 1.8745 7.84499 1.8745 7.49999V2.50049C1.8745 2.15549 2.155 1.87499 2.5 1.87499H7.4995C7.8445 1.87499 8.125 2.15549 8.125 2.50049Z" fill="white"/>
<path fill-rule="evenodd" clip-rule="evenodd" d="M9.3745 12.5005C9.3745 11.4655 8.5345 10.6255 7.4995 10.6255H2.5C1.465 10.6255 0.625 11.4655 0.625 12.5005V17.5C0.625 18.535 1.465 19.375 2.5 19.375H7.4995C8.5345 19.375 9.3745 18.535 9.3745 17.5V12.5005ZM8.125 12.5005V17.5C8.125 17.845 7.8445 18.1255 7.4995 18.1255H2.5C2.155 18.1255 1.8745 17.845 1.8745 17.5V12.5005C1.8745 12.1555 2.155 11.875 2.5 11.875H7.4995C7.8445 11.875 8.125 12.1555 8.125 12.5005Z" fill="white"/>
<path fill-rule="evenodd" clip-rule="evenodd" d="M19.3745 2.50049C19.3745 1.46549 18.5345 0.625488 17.4995 0.625488H12.5C11.465 0.625488 10.625 1.46549 10.625 2.50049V7.49999C10.625 8.53499 11.465 9.37499 12.5 9.37499H17.4995C18.5345 9.37499 19.3745 8.53499 19.3745 7.49999V2.50049ZM18.125 2.50049V7.49999C18.125 7.84499 17.8445 8.12549 17.4995 8.12549H12.5C12.155 8.12549 11.8745 7.84499 11.8745 7.49999V2.50049C11.8745 2.15549 12.155 1.87499 12.5 1.87499H17.4995C17.8445 1.87499 18.125 2.15549 18.125 2.50049Z" fill="white"/>
<path fill-rule="evenodd" clip-rule="evenodd" d="M19.3745 12.5005C19.3745 11.4655 18.5345 10.6255 17.4995 10.6255H12.5C11.465 10.6255 10.625 11.4655 10.625 12.5005V17.5C10.625 18.535 11.465 19.375 12.5 19.375H17.4995C18.5345 19.375 19.3745 18.535 19.3745 17.5V12.5005ZM18.125 12.5005V17.5C18.125 17.845 17.8445 18.1255 17.4995 18.1255H12.5C12.155 18.1255 11.8745 17.845 11.8745 17.5V12.5005C11.8745 12.1555 12.155 11.875 12.5 11.875H17.4995C17.8445 11.875 18.125 12.1555 18.125 12.5005Z" fill="white"/>
</g>
</g>
<defs>
<clipPath id="clip0_955_10680">
<rect width="20" height="20" fill="white"/>
</clipPath>
</defs>
</svg>
