<svg width="20" height="20" viewBox="0 0 20 20" fill="none" xmlns="http://www.w3.org/2000/svg">
<path d="M19.8229 9.631L18.8437 6.67975C18.5896 5.91266 17.8854 5.41683 17.0504 5.41683H14.4287L14.5246 4.63558C14.5671 4.29808 14.4671 3.96391 14.2508 3.7185C14.035 3.47391 13.7179 3.3335 13.38 3.3335H3.28123C2.61456 3.3335 2.00956 3.87225 1.93248 4.53058L1.87915 4.94725C1.8504 5.17558 2.01123 5.38433 2.23956 5.4135C2.47081 5.44683 2.67706 5.28141 2.70581 5.05308L2.75956 4.63183C2.78831 4.38391 3.03206 4.16683 3.28123 4.16683H13.38C13.48 4.16683 13.5671 4.2035 13.6258 4.26975C13.6854 4.33725 13.7108 4.42975 13.6979 4.53308L12.7221 12.5006H1.78373C1.78373 12.2939 1.63581 12.1131 1.4254 12.0873C1.19665 12.0581 0.988729 12.221 0.960812 12.4494L0.805395 13.7023C0.765395 14.041 0.867479 14.3756 1.0854 14.6202C1.30331 14.8656 1.61081 15.0006 1.9504 15.0006H2.75706C2.76331 15.4144 2.89998 15.8002 3.16915 16.1035C3.4904 16.4669 3.9479 16.6673 4.45623 16.6673C5.40956 16.6673 6.27623 15.9319 6.47123 15.0006H13.6908C13.6971 15.4144 13.8337 15.7998 14.1021 16.1031C14.4237 16.4669 14.8812 16.6673 15.39 16.6673C16.3429 16.6673 17.2096 15.9319 17.405 15.0006H18.3021C18.9762 15.0006 19.5687 14.4735 19.6508 13.8014L19.9708 11.1919C20.0371 10.6514 19.9871 10.126 19.8229 9.631ZM18.9291 9.5835H16.4183L16.6162 7.96766C16.6191 7.94641 16.6533 7.91683 16.6704 7.91683H18.3762L18.9291 9.5835ZM14.3271 6.25016H17.0508C17.5279 6.25016 17.9112 6.51516 18.0529 6.94225L18.1 7.0835H16.6704C16.23 7.0835 15.8433 7.42725 15.7896 7.866L15.5854 9.53267C15.5575 9.761 15.6262 9.98766 15.7741 10.1548C15.9216 10.321 16.1362 10.4164 16.3641 10.4164H19.145C19.1704 10.6356 19.1721 10.8602 19.1437 11.0898L18.9708 12.4998H13.5612L14.3271 6.25016ZM13.8687 14.1669H13.3571L13.4591 13.3335H14.5483C14.2566 13.5498 14.0204 13.836 13.8687 14.1669ZM12.5179 14.1669H6.45998C6.39415 13.9139 6.27665 13.6794 6.10123 13.481C6.05206 13.4256 5.99456 13.3814 5.93956 13.3335H12.6204L12.5179 14.1669ZM2.93123 14.1669H1.94998C1.84998 14.1669 1.76623 14.1319 1.70748 14.066C1.64665 13.9981 1.6204 13.9031 1.63206 13.8014L1.68998 13.3335H3.6004C3.31123 13.5485 3.07957 13.8339 2.93123 14.1669ZM5.67956 14.741C5.60706 15.3335 5.04665 15.8335 4.45581 15.8335C4.18915 15.8335 3.95415 15.7331 3.79248 15.5506C3.62831 15.3656 3.55665 15.1139 3.58956 14.8427C3.66248 14.2502 4.2229 13.7502 4.81373 13.7502C5.0804 13.7502 5.31581 13.8506 5.47706 14.0331C5.64123 14.2181 5.7129 14.4698 5.67956 14.741ZM16.6133 14.741C16.5404 15.3335 15.98 15.8335 15.3896 15.8335C15.1229 15.8335 14.8875 15.7331 14.7258 15.5506C14.5616 15.3656 14.49 15.1139 14.5233 14.8427C14.5962 14.2502 15.1566 13.7502 15.7471 13.7502C16.0137 13.7502 16.2491 13.8506 16.4108 14.0331C16.575 14.2181 16.6466 14.4698 16.6133 14.741ZM18.3021 14.1669H17.3937C17.3279 13.9139 17.2104 13.6794 17.035 13.481C16.9858 13.4256 16.9283 13.3814 16.8733 13.3335H18.8691L18.8241 13.6994C18.7937 13.9485 18.5496 14.1669 18.3021 14.1669Z" fill="white"/>
<path d="M3.7625 10.8331C3.7625 10.6027 3.57625 10.4165 3.34583 10.4165H0.416667C0.18625 10.4165 0 10.6027 0 10.8331C0 11.0636 0.18625 11.2498 0.416667 11.2498H3.34583C3.57625 11.2498 3.7625 11.0636 3.7625 10.8331Z" fill="white"/>
<path d="M1.70182 8.3335C1.47141 8.3335 1.28516 8.52016 1.28516 8.75016C1.28516 8.98016 1.47141 9.16683 1.70182 9.16683H3.60224C3.83266 9.16683 4.01891 8.98016 4.01891 8.75016C4.01891 8.52016 3.83266 8.3335 3.60224 8.3335H1.70182Z" fill="white"/>
<path d="M0.904948 7.08333H4.27161C4.50203 7.08333 4.68828 6.89667 4.68828 6.66667C4.68828 6.43667 4.50203 6.25 4.27161 6.25H0.904948C0.674531 6.25 0.488281 6.43667 0.488281 6.66667C0.488281 6.89667 0.674531 7.08333 0.904948 7.08333Z" fill="white"/>
</svg>
