<svg width="20" height="20" viewBox="0 0 20 20" fill="none" xmlns="http://www.w3.org/2000/svg">
<path d="M10.5648 19H9.43514C8.52147 19 7.77809 18.2567 7.77809 17.343V16.9608C7.38965 16.8367 7.01225 16.68 6.64968 16.4924L6.37884 16.7633C5.72286 17.42 4.67207 17.4008 4.03514 16.763L3.23671 15.9646C2.59866 15.3273 2.58031 14.2768 3.23692 13.6209L3.50755 13.3503C3.31993 12.9877 3.1633 12.6104 3.03917 12.2219H2.65702C1.74338 12.2219 1 11.4785 1 10.5649V9.43514C1 8.52147 1.74338 7.77813 2.65705 7.77813H3.0392C3.16334 7.38965 3.31996 7.01228 3.50759 6.64971L3.23675 6.37891C2.58052 5.72338 2.59863 4.67284 3.23696 4.03521L4.03546 3.23675C4.67386 2.59746 5.7244 2.5815 6.37912 3.23696L6.64971 3.50755C7.01228 3.31996 7.38968 3.1633 7.77813 3.03917V2.65702C7.77813 1.74334 8.52147 1 9.43518 1H10.5649C11.4785 1 12.2219 1.74334 12.2219 2.65702V3.0392C12.6103 3.1633 12.9877 3.31996 13.3503 3.50759L13.6211 3.23675C14.2771 2.57996 15.3279 2.59922 15.9648 3.23699L16.7633 4.03539C17.4013 4.67274 17.4197 5.72317 16.763 6.37908L16.4924 6.64971C16.68 7.01228 16.8367 7.38961 16.9608 7.77813H17.3429C18.2566 7.77813 19 8.52147 19 9.43514V10.5649C19 11.4785 18.2566 12.2219 17.3429 12.2219H16.9608C16.8367 12.6104 16.68 12.9877 16.4924 13.3503L16.7633 13.6211C17.4195 14.2767 17.4014 15.3272 16.763 15.9648L15.9645 16.7633C15.3261 17.4026 14.2756 17.4185 13.6209 16.7631L13.3503 16.4925C12.9877 16.6801 12.6103 16.8367 12.2219 16.9609V17.3431C12.2219 18.2567 11.4785 19 10.5648 19ZM6.82599 15.3849C7.32967 15.6828 7.87178 15.9078 8.43723 16.0537C8.67011 16.1138 8.83281 16.3238 8.83281 16.5643V17.343C8.83281 17.6751 9.10306 17.9453 9.43518 17.9453H10.5649C10.897 17.9453 11.1672 17.6751 11.1672 17.343V16.5643C11.1672 16.3238 11.3299 16.1138 11.5628 16.0537C12.1283 15.9078 12.6704 15.6828 13.174 15.3849C13.3813 15.2623 13.6451 15.2957 13.8154 15.4659L14.3669 16.0175C14.6047 16.2556 14.9866 16.25 15.2186 16.0177L16.0176 15.2188C16.249 14.9877 16.2567 14.6057 16.0178 14.3671L15.466 13.8153C15.2958 13.6451 15.2624 13.3812 15.385 13.174C15.6828 12.6704 15.9078 12.1283 16.0538 11.5628C16.1139 11.3299 16.3239 11.1672 16.5644 11.1672H17.343C17.6751 11.1672 17.9453 10.897 17.9453 10.5649V9.43518C17.9453 9.10306 17.6751 8.83285 17.343 8.83285H16.5644C16.3239 8.83285 16.1139 8.67014 16.0538 8.4373C15.9078 7.87182 15.6828 7.32971 15.385 6.82606C15.2624 6.61885 15.2958 6.35497 15.466 6.18474L16.0176 5.63317C16.256 5.39502 16.2498 5.01323 16.0178 4.78151L15.2188 3.98259C14.9873 3.7507 14.6053 3.74391 14.3672 3.98238L13.8154 4.53415C13.6452 4.70441 13.3813 4.73774 13.1741 4.61519C12.6704 4.31731 12.1283 4.09227 11.5628 3.94634C11.33 3.88626 11.1673 3.67623 11.1673 3.43573V2.65702C11.1673 2.3249 10.897 2.05469 10.5649 2.05469H9.43521C9.10309 2.05469 8.83285 2.3249 8.83285 2.65702V3.43566C8.83285 3.67616 8.67014 3.88619 8.43727 3.94627C7.87182 4.0922 7.32971 4.31724 6.82602 4.61512C6.61874 4.73764 6.35489 4.70431 6.18467 4.53408L5.63314 3.98252C5.39534 3.74444 5.01344 3.74996 4.78151 3.98227L3.98252 4.78123C3.75112 5.01235 3.74338 5.39425 3.9823 5.63289L4.53408 6.18467C4.70431 6.35489 4.73764 6.61878 4.61512 6.82599C4.31724 7.32964 4.09224 7.87175 3.9463 8.43723C3.88619 8.67011 3.67616 8.83278 3.4357 8.83278H2.65705C2.32493 8.83281 2.05469 9.10302 2.05469 9.43514V10.5649C2.05469 10.897 2.32493 11.1672 2.65705 11.1672H3.43566C3.67616 11.1672 3.88615 11.3299 3.94627 11.5627C4.0922 12.1282 4.31724 12.6703 4.61508 13.174C4.7376 13.3812 4.70427 13.6451 4.53405 13.8153L3.98248 14.3669C3.74405 14.605 3.75027 14.9868 3.98227 15.2185L4.7812 16.0174C5.01277 16.2493 5.39471 16.2561 5.63286 16.0177L6.1846 15.4659C6.31004 15.3405 6.571 15.2341 6.82599 15.3849Z" fill="white"/>
<path d="M9.99844 13.9163C7.83889 13.9163 6.08203 12.1594 6.08203 9.99988C6.08203 7.8404 7.83889 6.0835 9.99844 6.0835C12.158 6.0835 13.9148 7.8404 13.9148 9.99988C13.9148 12.1594 12.158 13.9163 9.99844 13.9163ZM9.99844 7.13819C8.42045 7.13819 7.13672 8.42195 7.13672 9.99988C7.13672 11.5779 8.42048 12.8616 9.99844 12.8616C11.5764 12.8616 12.8602 11.5779 12.8602 9.99988C12.8602 8.42195 11.5764 7.13819 9.99844 7.13819Z" fill="white"/>
</svg>
