<svg width="80" height="80" viewBox="0 0 80 80" fill="none" xmlns="http://www.w3.org/2000/svg">
<path d="M41.5625 63.4375C41.5625 64.3005 40.863 65 40 65C39.137 65 38.4375 64.3005 38.4375 63.4375C38.4375 62.5745 39.137 61.875 40 61.875C40.863 61.875 41.5625 62.5745 41.5625 63.4375Z" fill="black"/>
<path d="M74.8438 49.375C74.8438 44.2053 70.6384 40 65.4688 40C60.2991 40 56.0938 44.2053 56.0938 49.375C56.0938 54.5447 60.2991 58.75 65.4688 58.75C70.6384 58.75 74.8438 54.5447 74.8438 49.375ZM65.4688 55.625C62.0227 55.625 59.2188 52.821 59.2188 49.375C59.2188 45.929 62.0227 43.125 65.4688 43.125C68.9148 43.125 71.7188 45.929 71.7188 49.375C71.7188 52.821 68.9148 55.625 65.4688 55.625Z" fill="black"/>
<path d="M65.4688 58.75C61.5314 58.75 57.605 60.3845 54.9304 63.0347C51.4099 58.4082 45.9814 55.625 40 55.625C34.2719 55.625 28.7213 58.2385 25.0702 63.0347C22.395 60.3851 18.4692 58.75 14.5312 58.75C6.65466 58.75 0 65.1898 0 72.8125V75.9375C0 76.8005 0.699463 77.5 1.5625 77.5H78.4375C79.3005 77.5 80 76.8005 80 75.9375V72.8125C80 65.1898 73.3453 58.75 65.4688 58.75ZM3.125 72.8125C3.125 66.8835 8.34839 61.875 14.5312 61.875C17.9144 61.875 21.2695 63.374 23.3466 65.7568C21.9733 68.4094 21.25 71.366 21.25 74.375H3.125V72.8125ZM40 58.75C48.6945 58.75 55.625 65.8044 55.625 74.375H24.375C24.375 65.6903 31.4471 58.75 40 58.75ZM76.875 74.375H58.75C58.75 71.366 58.0267 68.4094 56.6534 65.7568C58.7305 63.374 62.0856 61.875 65.4688 61.875C71.6516 61.875 76.875 66.8835 76.875 72.8125V74.375Z" fill="black"/>
<path d="M23.9062 49.375C23.9062 44.2053 19.7009 40 14.5312 40C9.36157 40 5.15625 44.2053 5.15625 49.375C5.15625 54.5447 9.36157 58.75 14.5312 58.75C19.7009 58.75 23.9062 54.5447 23.9062 49.375ZM14.5312 55.625C11.0852 55.625 8.28125 52.821 8.28125 49.375C8.28125 45.929 11.0852 43.125 14.5312 43.125C17.9773 43.125 20.7812 45.929 20.7812 49.375C20.7812 52.821 17.9773 55.625 14.5312 55.625Z" fill="black"/>
<path d="M52.5 43.125C52.5 36.2323 46.8927 30.625 40 30.625C33.1073 30.625 27.5 36.2323 27.5 43.125C27.5 50.0177 33.1073 55.625 40 55.625C46.8927 55.625 52.5 50.0177 52.5 43.125ZM40 52.5C34.8303 52.5 30.625 48.2947 30.625 43.125C30.625 37.9553 34.8303 33.75 40 33.75C45.1697 33.75 49.375 37.9553 49.375 43.125C49.375 48.2947 45.1697 52.5 40 52.5Z" fill="black"/>
<path d="M46.8465 63.9209C46.1251 63.4466 45.1564 63.6475 44.6828 64.3689C44.2085 65.0897 44.4094 66.0583 45.1308 66.5326C46.5755 67.4817 47.7303 68.8049 48.47 70.3589C48.8399 71.1371 49.7713 71.4697 50.5519 71.098C51.3314 70.7275 51.6622 69.7949 51.2917 69.0161C50.3066 66.9458 48.7691 65.1837 46.8465 63.9209Z" fill="black"/>
</svg>
