<svg width="20" height="20" viewBox="0 0 20 20" fill="none" xmlns="http://www.w3.org/2000/svg">
<path d="M17.2513 0H8.19141C7.36504 0 6.6927 0.672344 6.6927 1.49871V3.14242H2.74727C1.92164 3.14242 1.25 3.81477 1.25 4.64113V18.5012C1.25 19.3277 1.92164 20 2.74727 20H12.7214C13.045 20 13.3073 19.7377 13.3073 19.4141V16.8576H17.2513C18.0777 16.8576 18.75 16.1852 18.75 15.3589V1.49871C18.75 0.672344 18.0777 0 17.2513 0ZM2.42188 18.5013V4.64113C2.42188 4.46094 2.56785 4.3143 2.74727 4.3143H6.69273V16.2716C6.69273 16.4923 6.81484 16.6846 6.99516 16.7845L10.5346 18.8281H2.74727C2.56785 18.8281 2.42188 18.6815 2.42188 18.5013ZM12.1354 18.3992L9.46535 16.8576H12.1354V18.3992ZM17.5781 15.3589C17.5781 15.5391 17.4315 15.6857 17.2513 15.6857H7.86457V1.49871C7.86457 1.31852 8.01117 1.17188 8.19141 1.17188H17.2513C17.4315 1.17188 17.5781 1.31852 17.5781 1.49871V15.3589Z" fill="white" fill-opacity="0.75"/>
<path d="M16.2106 1.95312H9.23145C8.90785 1.95312 8.64551 2.21547 8.64551 2.53906V5.85902C8.64551 6.18262 8.90785 6.44496 9.23145 6.44496H16.2106C16.5342 6.44496 16.7966 6.18262 16.7966 5.85902V2.53906C16.7966 2.21547 16.5342 1.95312 16.2106 1.95312ZM15.6247 5.27309H9.81738V3.125H15.6247V5.27309Z" fill="white" fill-opacity="0.75"/>
<path d="M16.2106 7.61682H9.23145C8.90785 7.61682 8.64551 7.87917 8.64551 8.20276C8.64551 8.52635 8.90785 8.7887 9.23145 8.7887H16.2106C16.5342 8.7887 16.7966 8.52635 16.7966 8.20276C16.7966 7.87917 16.5342 7.61682 16.2106 7.61682Z" fill="white" fill-opacity="0.75"/>
<path d="M9.23145 10.7418H14.6481C14.9717 10.7418 15.2341 10.4795 15.2341 10.1559C15.2341 9.83229 14.9717 9.56995 14.6481 9.56995H9.23145C8.90785 9.56995 8.64551 9.83229 8.64551 10.1559C8.64551 10.4795 8.90785 10.7418 9.23145 10.7418Z" fill="white" fill-opacity="0.75"/>
<path d="M15.326 11.5231H9.23145C8.90785 11.5231 8.64551 11.7854 8.64551 12.109C8.64551 12.4326 8.90785 12.6949 9.23145 12.6949H15.326C15.6496 12.6949 15.912 12.4326 15.912 12.109C15.912 11.7854 15.6496 11.5231 15.326 11.5231Z" fill="white" fill-opacity="0.75"/>
<path d="M10.9737 13.4762H9.23145C8.90785 13.4762 8.64551 13.7385 8.64551 14.0621C8.64551 14.3857 8.90785 14.6481 9.23145 14.6481H10.9737C11.2973 14.6481 11.5596 14.3857 11.5596 14.0621C11.5596 13.7385 11.2973 13.4762 10.9737 13.4762Z" fill="white" fill-opacity="0.75"/>
</svg>
