<svg width="20" height="20" viewBox="0 0 20 20" fill="none" xmlns="http://www.w3.org/2000/svg">
<g id="fi_2676824">
<path id="Vector" d="M8.92567 19C8.75865 19 8.59848 18.9339 8.48038 18.8162C8.36228 18.6986 8.29594 18.539 8.29594 18.3726V12.3396L2.45831 5.94274C2.22852 5.69043 2.07716 5.37709 2.02262 5.04073C1.96807 4.70438 2.01268 4.35948 2.15104 4.0479C2.28939 3.73632 2.51554 3.47145 2.80204 3.28544C3.08853 3.09943 3.42306 3.00027 3.76501 3H17.235C17.5769 3.00027 17.9115 3.09943 18.198 3.28544C18.4845 3.47145 18.7106 3.73632 18.849 4.0479C18.9873 4.35948 19.0319 4.70438 18.9774 5.04073C18.9228 5.37709 18.7715 5.69043 18.5417 5.94274L12.7041 12.3396V15.8627C12.704 15.9567 12.6828 16.0495 12.6419 16.1342C12.601 16.2189 12.5416 16.2934 12.4679 16.3522L9.31925 18.862C9.20761 18.9512 9.06879 18.9999 8.92567 19ZM3.76501 4.2549C3.66702 4.25515 3.5712 4.28368 3.48914 4.33706C3.40709 4.39044 3.34232 4.46637 3.30268 4.55566C3.26304 4.64495 3.25021 4.74377 3.26577 4.84017C3.28132 4.93657 3.32458 5.02641 3.39032 5.09882L9.39167 11.6871C9.49449 11.7997 9.55268 11.9458 9.5554 12.098V17.0675L11.4446 15.549V12.098C11.4442 11.9415 11.5026 11.7904 11.6083 11.6745L17.6097 5.08627C17.6715 5.01354 17.7114 4.92486 17.7248 4.83049C17.7382 4.73611 17.7245 4.63989 17.6853 4.55294C17.6461 4.46599 17.583 4.39187 17.5033 4.33913C17.4237 4.28639 17.3306 4.25719 17.235 4.2549H3.76501Z" fill="black"/>
</g>
</svg>
