<svg width="20" height="20" viewBox="0 0 20 20" fill="none" xmlns="http://www.w3.org/2000/svg">
<g id="fi_54481">
<g id="Group">
<g id="_x34__4_">
<g id="Group_2">
<path id="Vector" d="M18.8296 18.0211L14.1822 13.4479C15.3992 12.1257 16.1469 10.377 16.1469 8.45277C16.1464 4.33646 12.7559 1 8.57318 1C4.39048 1 1 4.33646 1 8.45277C1 12.5691 4.39048 15.9055 8.57318 15.9055C10.3804 15.9055 12.0379 15.2804 13.3399 14.2412L18.0053 18.8324C18.2327 19.0563 18.6017 19.0563 18.829 18.8324C19.0569 18.6085 19.0569 18.245 18.8296 18.0211ZM8.57318 14.7589C5.03416 14.7589 2.16524 11.9355 2.16524 8.45277C2.16524 4.96999 5.03416 2.14665 8.57318 2.14665C12.1122 2.14665 14.9811 4.96999 14.9811 8.45277C14.9811 11.9355 12.1122 14.7589 8.57318 14.7589Z" fill="#323232"/>
</g>
</g>
</g>
</g>
</svg>
