<svg width="20" height="20" viewBox="0 0 20 20" fill="none" xmlns="http://www.w3.org/2000/svg">
<g id="fi_10042228">
<g id="Group">
<path id="Vector" d="M12.5116 19H7.48837C2.94233 19 1 17.0577 1 12.5116V7.48837C1 2.94233 2.94233 1 7.48837 1H12.5116C17.0577 1 19 2.94233 19 7.48837V12.5116C19 17.0577 17.066 19 12.5116 19ZM7.48837 2.25581C3.62884 2.25581 2.25581 3.62884 2.25581 7.48837V12.5116C2.25581 16.3712 3.62884 17.7442 7.48837 17.7442H12.5116C16.3712 17.7442 17.7442 16.3712 17.7442 12.5116V7.48837C17.7442 3.62884 16.3712 2.25581 12.5116 2.25581H7.48837Z" fill="white"/>
<path id="Vector_2" d="M6.5 19C6.22667 19 6 18.7153 6 18.3721V1.62791C6 1.28465 6.22667 1 6.5 1C6.77333 1 7 1.28465 7 1.62791V18.3721C7 18.7153 6.78 19 6.5 19Z" fill="white"/>
<path id="Vector_3" d="M12.441 13C12.3007 13 12.1605 12.9365 12.0498 12.8005L10.1605 10.4794C9.94649 10.2165 9.94649 9.78127 10.1605 9.51833L12.0498 7.1972C12.2638 6.93427 12.6181 6.93427 12.8321 7.1972C13.0461 7.46014 13.0461 7.89535 12.8321 8.15829L11.3413 9.99888L12.8395 11.8394C13.0535 12.1024 13.0535 12.5376 12.8395 12.8005C12.7288 12.9365 12.5886 13 12.441 13Z" fill="white"/>
</g>
</g>
</svg>
