<svg width="20" height="20" viewBox="0 0 20 20" fill="none" xmlns="http://www.w3.org/2000/svg">
<path d="M17.3116 4.76282L13.6342 1.15106C13.5356 1.05425 13.403 1 13.2647 1H3.96765C2.88275 1 2 1.88261 2 2.96765V17.0323C2 18.1172 2.88261 19 3.96765 19H15.5018C16.5867 19 17.4694 18.1174 17.4694 17.0323V5.1391C17.4694 4.99751 17.4126 4.86197 17.3116 4.76282ZM13.792 2.78445L15.6526 4.61176H13.9597C13.8673 4.61176 13.792 4.5365 13.792 4.44408V2.78445ZM15.5018 17.9453H3.96765C3.46434 17.9453 3.05469 17.5358 3.05469 17.0323V2.96765C3.05469 2.4642 3.4642 2.05469 3.96765 2.05469H12.7375V4.44408C12.7375 5.11809 13.2858 5.66644 13.9599 5.66644H16.4147V17.0323C16.4147 17.5358 16.0052 17.9453 15.5018 17.9453Z" fill="#DF6D5D"/>
<path d="M13.3948 9.36719H5.96094C5.66966 9.36719 5.43359 9.60326 5.43359 9.89453C5.43359 10.1858 5.66966 10.4219 5.96094 10.4219H13.3948C13.6861 10.4219 13.9222 10.1858 13.9222 9.89453C13.9222 9.60326 13.6861 9.36719 13.3948 9.36719Z" fill="#DF6D5D"/>
<path d="M5.96094 12.5312H12.0224C12.3136 12.5312 12.5497 12.2952 12.5497 12.0039C12.5497 11.7126 12.3136 11.4766 12.0224 11.4766H5.96094C5.66966 11.4766 5.43359 11.7126 5.43359 12.0039C5.43359 12.2952 5.66966 12.5312 5.96094 12.5312Z" fill="#DF6D5D"/>
<path d="M12.7536 13.5859H5.96094C5.66966 13.5859 5.43359 13.822 5.43359 14.1133C5.43359 14.4046 5.66966 14.6406 5.96094 14.6406H12.7536C13.0448 14.6406 13.281 14.4046 13.281 14.1133C13.281 13.822 13.0448 13.5859 12.7536 13.5859Z" fill="#DF6D5D"/>
</svg>
