<svg width="20" height="20" viewBox="0 0 20 20" fill="none" xmlns="http://www.w3.org/2000/svg">
<g clip-path="url(#clip0_2118_72214)">
<path d="M10.3906 15.8594C10.3906 16.0751 10.2158 16.25 10 16.25C9.78424 16.25 9.60938 16.0751 9.60938 15.8594C9.60938 15.6436 9.78424 15.4688 10 15.4688C10.2158 15.4688 10.3906 15.6436 10.3906 15.8594Z" fill="#DF6D5D"/>
<path d="M18.7109 12.3438C18.7109 11.0513 17.6596 10 16.3672 10C15.0748 10 14.0234 11.0513 14.0234 12.3438C14.0234 13.6362 15.0748 14.6875 16.3672 14.6875C17.6596 14.6875 18.7109 13.6362 18.7109 12.3438ZM16.3672 13.9062C15.5057 13.9062 14.8047 13.2053 14.8047 12.3438C14.8047 11.4822 15.5057 10.7812 16.3672 10.7812C17.2287 10.7812 17.9297 11.4822 17.9297 12.3438C17.9297 13.2053 17.2287 13.9062 16.3672 13.9062Z" fill="#DF6D5D"/>
<path d="M16.3672 14.6875C15.3828 14.6875 14.4012 15.0961 13.7326 15.7587C12.8525 14.6021 11.4954 13.9062 10 13.9062C8.56796 13.9062 7.18033 14.5596 6.26755 15.7587C5.59875 15.0963 4.61731 14.6875 3.63281 14.6875C1.66367 14.6875 0 16.2975 0 18.2031V18.9844C0 19.2001 0.174866 19.375 0.390625 19.375H19.6094C19.8251 19.375 20 19.2001 20 18.9844V18.2031C20 16.2975 18.3363 14.6875 16.3672 14.6875ZM0.78125 18.2031C0.78125 16.7209 2.0871 15.4688 3.63281 15.4688C4.47861 15.4688 5.31738 15.8435 5.83664 16.4392C5.49332 17.1024 5.3125 17.8415 5.3125 18.5938H0.78125V18.2031ZM10 14.6875C12.1736 14.6875 13.9062 16.4511 13.9062 18.5938H6.09375C6.09375 16.4226 7.86179 14.6875 10 14.6875ZM19.2188 18.5938H14.6875C14.6875 17.8415 14.5067 17.1024 14.1634 16.4392C14.6826 15.8435 15.5214 15.4688 16.3672 15.4688C17.9129 15.4688 19.2188 16.7209 19.2188 18.2031V18.5938Z" fill="#DF6D5D"/>
<path d="M5.97656 12.3438C5.97656 11.0513 4.92523 10 3.63281 10C2.34039 10 1.28906 11.0513 1.28906 12.3438C1.28906 13.6362 2.34039 14.6875 3.63281 14.6875C4.92523 14.6875 5.97656 13.6362 5.97656 12.3438ZM3.63281 13.9062C2.7713 13.9062 2.07031 13.2053 2.07031 12.3438C2.07031 11.4822 2.7713 10.7812 3.63281 10.7812C4.49432 10.7812 5.19531 11.4822 5.19531 12.3438C5.19531 13.2053 4.49432 13.9062 3.63281 13.9062Z" fill="#DF6D5D"/>
<path d="M13.125 10.7812C13.125 9.05807 11.7232 7.65625 10 7.65625C8.27682 7.65625 6.875 9.05807 6.875 10.7812C6.875 12.5044 8.27682 13.9062 10 13.9062C11.7232 13.9062 13.125 12.5044 13.125 10.7812ZM10 13.125C8.70758 13.125 7.65625 12.0737 7.65625 10.7812C7.65625 9.48883 8.70758 8.4375 10 8.4375C11.2924 8.4375 12.3438 9.48883 12.3438 10.7812C12.3438 12.0737 11.2924 13.125 10 13.125Z" fill="#DF6D5D"/>
<path d="M13.0933 2.89688C13.0474 2.75543 12.9252 2.65244 12.7779 2.63107L11.0931 2.38647L10.3387 0.844116C10.2732 0.709991 10.1371 0.625 9.98787 0.625C9.83864 0.625 9.70253 0.709991 9.63692 0.843964L8.88268 2.38647L7.1978 2.63092C7.05055 2.65228 6.92833 2.75543 6.8824 2.89688C6.83647 3.03833 6.87477 3.19351 6.98128 3.29727L8.20137 4.48639L7.91344 6.16562C7.88826 6.3121 7.94853 6.46027 8.06893 6.54755C8.18856 6.63452 8.34786 6.64688 8.4803 6.5773L9.98787 5.78461L11.4961 6.5773C11.6276 6.64658 11.787 6.63498 11.9074 6.54755C12.0277 6.46011 12.0879 6.3121 12.0628 6.16547L11.7745 4.48639L12.9945 3.29727C13.101 3.19351 13.1393 3.03833 13.0933 2.89688ZM11.0819 4.07028C10.9899 4.16 10.9478 4.2894 10.9696 4.41605L11.1587 5.51758L10.1696 4.99756C10.0558 4.93774 9.91982 4.93774 9.80599 4.99756L8.81722 5.51758L9.00612 4.41605C9.02779 4.28925 8.98567 4.16 8.89366 4.07028L8.09349 3.29041L9.19899 3.12988C9.32686 3.11142 9.43718 3.03085 9.49379 2.91489L9.98787 1.90475L10.4818 2.91489C10.5386 3.03101 10.6489 3.11142 10.7766 3.12988L11.8823 3.29041L11.0819 4.07028Z" fill="#DF6D5D"/>
<path d="M18.9281 5.82458C18.8822 5.68314 18.76 5.58014 18.6127 5.55878L17.4712 5.39291L16.9608 4.35837C16.895 4.22501 16.7594 4.14062 16.6106 4.14062C16.6106 4.14062 16.6106 4.14062 16.6105 4.14062C16.4618 4.14062 16.326 4.22501 16.2603 4.35837L15.7496 5.39291L14.6079 5.55878C14.4608 5.58014 14.3386 5.68314 14.2927 5.82458C14.2466 5.96603 14.2849 6.12122 14.3914 6.22498L15.2173 7.03049L15.0223 8.16727C14.9973 8.31375 15.0574 8.46176 15.1778 8.54919C15.2981 8.63663 15.4575 8.64822 15.589 8.5791L16.6105 8.04245L17.6316 8.5791C17.7631 8.64822 17.9227 8.63663 18.043 8.54919C18.1632 8.46191 18.2233 8.31375 18.1983 8.16727L18.0033 7.03049L18.8294 6.22498C18.9359 6.12122 18.9741 5.96603 18.9281 5.82458ZM17.311 6.61453C17.2188 6.70425 17.1769 6.8335 17.1987 6.96014L17.2945 7.51923L16.7923 7.2554C16.6785 7.19559 16.5426 7.19559 16.4289 7.2554L15.9263 7.51938L16.0222 6.96014C16.0439 6.8335 16.0019 6.70425 15.9099 6.61453L15.5034 6.21811L16.0651 6.13663C16.1924 6.11816 16.3024 6.03821 16.3593 5.923L16.6105 5.41412L16.8615 5.92285C16.9184 6.03821 17.0284 6.11816 17.1557 6.13663L17.7173 6.21811L17.311 6.61453Z" fill="#DF6D5D"/>
<path d="M5.64687 5.82458C5.60094 5.68314 5.47872 5.58014 5.33147 5.55878L4.18996 5.39291L3.67956 4.35837C3.61379 4.22501 3.47814 4.14062 3.32937 4.14062C3.18059 4.14062 3.04479 4.22501 2.97903 4.35837L2.46831 5.39291L1.32665 5.55878C1.17956 5.58014 1.05733 5.68314 1.0114 5.82458C0.965323 5.96603 1.00362 6.12122 1.11013 6.22498L1.93609 7.03049L1.74123 8.16727C1.71606 8.31375 1.77633 8.46176 1.89657 8.54919C2.01681 8.63663 2.17626 8.64822 2.30794 8.5791L3.32921 8.04245L4.35033 8.5791C4.48278 8.64868 4.64208 8.63617 4.76171 8.54919C4.88195 8.46191 4.94222 8.31375 4.91704 8.16727L4.72204 7.03049L5.54815 6.22498C5.65465 6.12122 5.6928 5.96603 5.64687 5.82458ZM4.02959 6.61453C3.93758 6.70425 3.89562 6.8335 3.91729 6.96014L4.01327 7.51923L3.51095 7.2554C3.39727 7.19559 3.26131 7.19559 3.14763 7.2554L2.64486 7.51938L2.74084 6.96014C2.76266 6.8335 2.72054 6.70425 2.62853 6.61453L2.22204 6.21811L2.78387 6.13663C2.91097 6.11816 3.02099 6.03821 3.0779 5.923L3.32906 5.41412L3.58007 5.92285C3.63698 6.03821 3.747 6.11816 3.87426 6.13663L4.43593 6.21811L4.02959 6.61453Z" fill="#DF6D5D"/>
<path d="M11.7106 15.9802C11.5303 15.8617 11.2881 15.9119 11.1697 16.0922C11.0512 16.2724 11.1014 16.5146 11.2817 16.6331C11.6429 16.8704 11.9316 17.2012 12.1165 17.5897C12.209 17.7843 12.4418 17.8674 12.637 17.7745C12.8319 17.6819 12.9146 17.4487 12.8219 17.254C12.5757 16.7364 12.1913 16.2959 11.7106 15.9802Z" fill="#DF6D5D"/>
</g>
<defs>
<clipPath id="clip0_2118_72214">
<rect width="20" height="20" fill="white"/>
</clipPath>
</defs>
</svg>
