<svg width="52" height="52" viewBox="0 0 52 52" fill="none" xmlns="http://www.w3.org/2000/svg">
<path d="M19.7954 35.8096C25.2225 35.8096 29.6221 31.41 29.6221 25.9829C29.6221 20.5558 25.2225 16.1562 19.7954 16.1562C14.3683 16.1562 9.96875 20.5558 9.96875 25.9829C9.96875 31.41 14.3683 35.8096 19.7954 35.8096Z" fill="#FF6041"/>
<path d="M32.1732 35.8096C37.6003 35.8096 41.9999 31.41 41.9999 25.9829C41.9999 20.5558 37.6003 16.1562 32.1732 16.1562C26.7461 16.1562 22.3466 20.5558 22.3466 25.9829C22.3466 31.41 26.7461 35.8096 32.1732 35.8096Z" fill="#FFD941"/>
<path fill-rule="evenodd" clip-rule="evenodd" d="M26.0008 18.3828C28.2151 20.1828 29.6305 22.9267 29.6305 26.0022C29.6305 29.0778 28.2151 31.8217 26.0008 33.6217C23.7865 31.8217 22.3711 29.0778 22.3711 26.0022C22.3711 22.9267 23.7865 20.1828 26.0008 18.3828Z" fill="#FFD941"/>
<mask id="mask0_308_3585" style="mask-type:luminance" maskUnits="userSpaceOnUse" x="22" y="18" width="8" height="16">
<path d="M26.0008 18.3828C28.2151 20.1828 29.6305 22.9267 29.6305 26.0022C29.6305 29.0778 28.2151 31.8217 26.0008 33.6217C23.7865 31.8217 22.3711 29.0778 22.3711 26.0022C22.3711 22.9267 23.7865 20.1828 26.0008 18.3828Z" fill="white"/>
</mask>
<g mask="url(#mask0_308_3585)">
<path fill-rule="evenodd" clip-rule="evenodd" d="M20.5518 20.3164H32.2682V21.592H20.5518V20.3164Z" fill="#FF6041"/>
<path fill-rule="evenodd" clip-rule="evenodd" d="M20.5518 22.8203H32.2682V24.0959H20.5518V22.8203Z" fill="#FF6041"/>
<path fill-rule="evenodd" clip-rule="evenodd" d="M20.5518 25.3711H32.2682V26.6467H20.5518V25.3711Z" fill="#FF6041"/>
<path fill-rule="evenodd" clip-rule="evenodd" d="M20.5518 27.875H32.2682V29.1506H20.5518V27.875Z" fill="#FF6041"/>
<path fill-rule="evenodd" clip-rule="evenodd" d="M20.5518 30.3789H32.2682V31.6545H20.5518V30.3789Z" fill="#FF6041"/>
</g>
</svg>
