<svg width="80" height="80" viewBox="0 0 80 80" fill="none" xmlns="http://www.w3.org/2000/svg">
<path d="M75.2055 26.4487C75.1772 26.2869 75.1172 26.1323 75.029 25.9937C74.9408 25.8551 74.8261 25.7352 74.6916 25.6409C74.557 25.5467 74.4052 25.4798 74.2448 25.4443C74.0844 25.4087 73.9186 25.4052 73.7568 25.4338L67.6043 26.5175C67.4423 26.5459 67.2876 26.6059 67.1489 26.6942C67.0102 26.7825 66.8902 26.8972 66.796 27.0319C66.7017 27.1666 66.6349 27.3186 66.5994 27.4791C66.564 27.6397 66.5605 27.8056 66.5893 27.9675L66.8568 29.4812L63.3568 30.0925L61.2505 29.77V11.25C61.2505 9.92392 60.7238 8.65215 59.7861 7.71447C58.8484 6.77678 57.5766 6.25 56.2505 6.25H47.5005V3.75C47.5005 2.75544 47.1054 1.80161 46.4022 1.09835C45.6989 0.395088 44.7451 0 43.7505 0L36.2505 0C35.256 0 34.3022 0.395088 33.5989 1.09835C32.8956 1.80161 32.5005 2.75544 32.5005 3.75V6.25H23.7505C22.4245 6.25 21.1527 6.77678 20.215 7.71447C19.2773 8.65215 18.7505 9.92392 18.7505 11.25V29.7738L16.6355 30.0975L13.1455 29.4825L13.4118 27.9675C13.4406 27.8056 13.4371 27.6397 13.4017 27.4791C13.3662 27.3186 13.2994 27.1666 13.2051 27.0319C13.1108 26.8972 12.9909 26.7825 12.8522 26.6942C12.7135 26.6059 12.5587 26.5459 12.3968 26.5175L6.25054 25.4338C6.08867 25.405 5.9227 25.4084 5.76216 25.4439C5.60162 25.4793 5.44965 25.5461 5.31496 25.6404C5.18027 25.7347 5.0655 25.8546 4.97723 25.9933C4.88895 26.132 4.82891 26.2868 4.80054 26.4487L0.01929 53.5275C-0.00948256 53.6894 -0.00603831 53.8553 0.0294255 54.0159C0.0648892 54.1764 0.131676 54.3284 0.22596 54.4631C0.320244 54.5978 0.440174 54.7125 0.57888 54.8008C0.717586 54.8891 0.872344 54.9491 1.03429 54.9775L7.18804 56.0612C7.34982 56.0898 7.51566 56.0863 7.67605 56.0507C7.83645 56.0152 7.98827 55.9483 8.12282 55.8541C8.25738 55.7598 8.37203 55.6399 8.46022 55.5013C8.54841 55.3627 8.60841 55.2081 8.63679 55.0462L8.75054 54.375L9.78304 54.5575C10.7347 56.6536 12.1192 58.5246 13.8455 60.0475C13.7794 61.1762 14.1007 62.2936 14.7563 63.2147C15.4119 64.1358 16.3625 64.8054 17.4505 65.1125C16.8658 66.0837 16.6305 67.2257 16.7838 68.349C16.9371 69.4723 17.4698 70.5095 18.2935 71.2885C19.1171 72.0675 20.1823 72.5416 21.3124 72.6321C22.4425 72.7227 23.5696 72.4242 24.5068 71.7863C24.6311 72.6163 24.9646 73.401 25.4759 74.0666C25.9872 74.7321 26.6595 75.2566 27.4295 75.5906C28.1995 75.9245 29.0418 76.057 29.8771 75.9756C30.7125 75.8941 31.5133 75.6014 32.2043 75.125C32.3212 75.8906 32.6164 76.618 33.0659 77.2486C33.5155 77.8792 34.1068 78.3954 34.7924 78.7557C35.478 79.1159 36.2386 79.3101 37.0129 79.3226C37.7873 79.335 38.5537 79.1655 39.2505 78.8275V78.835L39.7505 79.1675C40.2981 79.53 40.9118 79.7811 41.5564 79.9065C42.2011 80.0318 42.8641 80.0289 43.5076 79.898C44.1511 79.7671 44.7626 79.5107 45.307 79.1434C45.8514 78.7761 46.3181 78.3052 46.6805 77.7575C47.2278 76.9243 47.5077 75.944 47.483 74.9475C47.8885 75.0579 48.3065 75.1159 48.7268 75.12C49.3873 75.122 50.0417 74.9929 50.6519 74.7401C51.2622 74.4874 51.8162 74.116 52.2819 73.6476C52.7475 73.1791 53.1156 72.6229 53.3647 72.0111C53.6138 71.3994 53.739 70.7443 53.733 70.0838C54.131 70.1884 54.5404 70.243 54.9518 70.2462C55.6115 70.2463 56.2646 70.1157 56.8736 69.8622C57.4826 69.6087 58.0354 69.2371 58.5002 68.769C58.965 68.3008 59.3325 67.7454 59.5816 67.1346C59.8308 66.5237 59.9566 65.8697 59.9518 65.21C60.7138 65.4086 61.5122 65.4228 62.2808 65.2514C63.0494 65.08 63.7661 64.7281 64.3716 64.2246C64.9771 63.7211 65.4539 63.0806 65.7626 62.3562C66.0713 61.6318 66.203 60.8442 66.1468 60.0588C67.8747 58.5334 69.2594 56.6588 70.2093 54.5588L71.2505 54.3813L71.368 55.0462C71.3964 55.2082 71.4565 55.363 71.5447 55.5017C71.633 55.6404 71.7478 55.7603 71.8825 55.8546C72.0172 55.9489 72.1691 56.0157 72.3297 56.0511C72.4902 56.0866 72.6562 56.09 72.818 56.0612L78.9705 54.9775C79.1325 54.9491 79.2872 54.8891 79.4259 54.8008C79.5647 54.7125 79.6846 54.5978 79.7789 54.4631C79.8732 54.3284 79.9399 54.1764 79.9754 54.0159C80.0109 53.8553 80.0143 53.6894 79.9855 53.5275L75.2055 26.4487ZM35.0005 3.75C35.0005 3.41848 35.1322 3.10054 35.3667 2.86612C35.6011 2.6317 35.919 2.5 36.2505 2.5H43.7505C44.0821 2.5 44.4 2.6317 44.6344 2.86612C44.8688 3.10054 45.0005 3.41848 45.0005 3.75V6.25H35.0005V3.75ZM21.2505 11.25C21.2505 10.587 21.5139 9.95107 21.9828 9.48223C22.4516 9.01339 23.0875 8.75 23.7505 8.75H56.2505C56.9136 8.75 57.5495 9.01339 58.0183 9.48223C58.4871 9.95107 58.7505 10.587 58.7505 11.25V15C58.7505 15.9946 58.3554 16.9484 57.6522 17.6517C56.9489 18.3549 55.9951 18.75 55.0005 18.75V17.5C55.0005 17.1685 54.8688 16.8505 54.6344 16.6161C54.4 16.3817 54.0821 16.25 53.7505 16.25H48.7505C48.419 16.25 48.1011 16.3817 47.8667 16.6161C47.6322 16.8505 47.5005 17.1685 47.5005 17.5V18.75H32.5005V17.5C32.5005 17.1685 32.3688 16.8505 32.1344 16.6161C31.9 16.3817 31.5821 16.25 31.2505 16.25H26.2505C25.919 16.25 25.6011 16.3817 25.3667 16.6161C25.1322 16.8505 25.0005 17.1685 25.0005 17.5V18.75C24.006 18.75 23.0521 18.3549 22.3489 17.6517C21.6456 16.9484 21.2505 15.9946 21.2505 15V11.25ZM52.5005 18.75V21.25H50.0005V18.75H52.5005ZM30.0005 18.75V21.25H27.5005V18.75H30.0005ZM21.2505 19.9675C22.326 20.7948 23.6437 21.2454 25.0005 21.25V22.5C25.0005 22.8315 25.1322 23.1495 25.3667 23.3839C25.6011 23.6183 25.919 23.75 26.2505 23.75H31.2505C31.5821 23.75 31.9 23.6183 32.1344 23.3839C32.3688 23.1495 32.5005 22.8315 32.5005 22.5V21.25H47.5005V22.5C47.5005 22.8315 47.6322 23.1495 47.8667 23.3839C48.1011 23.6183 48.419 23.75 48.7505 23.75H53.7505C54.0821 23.75 54.4 23.6183 54.6344 23.3839C54.8688 23.1495 55.0005 22.8315 55.0005 22.5V21.25C56.3574 21.2454 57.6751 20.7948 58.7505 19.9675V29.3875L49.2505 27.935C47.1848 27.6238 45.0732 27.8917 43.1505 28.7087L40.0005 30.0513L36.8593 28.7125C34.9336 27.8919 32.8172 27.6248 30.748 27.9412L21.2505 29.3925V19.9675ZM6.39179 53.3838L2.69929 52.7313L7.03929 28.1063L10.733 28.7575L6.39179 53.3838ZM16.913 61.9125C16.487 61.4047 16.2801 60.7485 16.3378 60.0882C16.3954 59.4279 16.713 58.8175 17.2205 58.3913L22.0093 54.375C22.5172 53.9487 23.1736 53.7415 23.8342 53.7992C24.4948 53.8569 25.1055 54.1746 25.5318 54.6825C25.9581 55.1904 26.1652 55.8468 26.1076 56.5074C26.0499 57.168 25.7322 57.7787 25.2243 58.205L20.4355 62.2237C20.1838 62.4347 19.8931 62.5939 19.5798 62.6924C19.2665 62.7909 18.9369 62.8268 18.6098 62.7979C18.2827 62.769 17.9645 62.6759 17.6733 62.524C17.3822 62.3721 17.1239 62.1643 16.913 61.9125ZM23.3405 69.5738C23.089 69.7849 22.7983 69.9443 22.4851 70.0431C22.1719 70.1419 21.8423 70.178 21.5152 70.1494C21.188 70.1207 20.8697 70.028 20.5784 69.8763C20.2871 69.7247 20.0285 69.5172 19.8174 69.2656C19.6063 69.0141 19.4468 68.7234 19.3481 68.4102C19.2493 68.097 19.2132 67.7674 19.2418 67.4402C19.2704 67.1131 19.3632 66.7948 19.5148 66.5035C19.6665 66.2122 19.874 65.9536 20.1255 65.7425L25.8755 60.9212C26.3861 60.5216 27.032 60.336 27.6769 60.4035C28.3218 60.4711 28.9152 60.7866 29.3319 61.2834C29.7486 61.7802 29.9559 62.4194 29.9102 63.0662C29.8645 63.713 29.5692 64.3168 29.0868 64.75L23.3405 69.5738ZM31.0343 72.9088C30.7827 73.1198 30.4921 73.2792 30.1789 73.3779C29.8657 73.4765 29.5362 73.5126 29.2091 73.4839C28.882 73.4552 28.5638 73.3624 28.2725 73.2108C27.9813 73.0591 27.7228 72.8516 27.5118 72.6C27.3008 72.3484 27.1414 72.0578 27.0427 71.7446C26.944 71.4314 26.908 71.1019 26.9366 70.7748C26.9653 70.4477 27.0581 70.1295 27.2098 69.8382C27.3614 69.547 27.569 69.2885 27.8205 69.0775L31.6518 65.8638C32.1607 65.446 32.8138 65.2459 33.4693 65.3068C34.1249 65.3677 34.7299 65.6848 35.1531 66.1891C35.5763 66.6935 35.7835 67.3444 35.7296 68.0005C35.6758 68.6567 35.3653 69.2651 34.8655 69.6937L31.0343 72.9088ZM38.7268 76.25C38.2181 76.6702 37.5638 76.8723 36.9067 76.8121C36.2496 76.7519 35.643 76.4344 35.219 75.9288C34.7951 75.4232 34.5882 74.7705 34.6435 74.1129C34.6988 73.4554 35.0118 72.8464 35.5143 72.4188L39.3443 69.205C39.5958 68.9939 39.8864 68.8343 40.1995 68.7355C40.5126 68.6367 40.8421 68.6006 41.1692 68.6291C41.4963 68.6577 41.8146 68.7504 42.1059 68.9019C42.3971 69.0535 42.6557 69.261 42.8668 69.5125C43.0778 69.764 43.2373 70.0547 43.336 70.3679C43.4347 70.681 43.4708 71.0106 43.4421 71.3377C43.4134 71.6648 43.3206 71.9831 43.1689 72.2743C43.0172 72.5655 42.8096 72.824 42.558 73.035L38.7268 76.25ZM44.593 76.3825C44.2618 76.8875 43.7572 77.254 43.1745 77.4129C42.5918 77.5717 41.9711 77.512 41.4293 77.245L44.1655 74.95C44.4244 74.7336 44.6606 74.4915 44.8705 74.2275C44.9889 74.5833 45.0254 74.9611 44.9773 75.333C44.9293 75.7048 44.7979 76.061 44.593 76.375V76.3825ZM63.2668 61.75C63.0856 62.0238 62.8522 62.2593 62.58 62.4429C62.3078 62.6266 62.0021 62.7548 61.6803 62.8203C61.3586 62.8857 61.027 62.8872 60.7047 62.8245C60.3824 62.7618 60.0756 62.6363 59.8018 62.455L49.3755 55.5587C49.2389 55.4597 49.0835 55.3894 48.9189 55.352C48.7543 55.3146 48.5839 55.3109 48.4178 55.3412C48.2518 55.3715 48.0936 55.4351 47.9528 55.5281C47.8119 55.6212 47.6914 55.7418 47.5985 55.8827C47.5056 56.0237 47.4422 56.1819 47.4121 56.348C47.382 56.5141 47.3858 56.6846 47.4234 56.8491C47.4609 57.0137 47.5315 57.1689 47.6306 57.3055C47.7298 57.4421 47.8557 57.5571 48.0005 57.6438L56.343 63.165C56.8957 63.5315 57.2801 64.1025 57.4117 64.7524C57.5434 65.4024 57.4114 66.078 57.0449 66.6306C56.6784 67.1833 56.1074 67.5677 55.4575 67.6993C54.8075 67.8309 54.1319 67.699 53.5793 67.3325L45.238 61.8125C45.099 61.7194 44.9425 61.6556 44.778 61.625C44.4942 61.5715 44.2006 61.618 43.9471 61.7565C43.6936 61.895 43.4959 62.1171 43.3877 62.3849C43.2794 62.6527 43.2672 62.9497 43.3532 63.2254C43.4392 63.5012 43.618 63.7387 43.8593 63.8975L50.1093 68.0387C50.6586 68.4065 51.0398 68.9769 51.1697 69.625C51.2995 70.2732 51.1674 70.9464 50.8022 71.4974C50.4369 72.0483 49.8684 72.4322 49.2208 72.5651C48.5733 72.6979 47.8995 72.5689 47.3468 72.2063L45.9218 71.2637C45.9562 70.3466 45.7354 69.4379 45.2837 68.6389C44.8321 67.8399 44.1675 67.182 43.364 66.7385C42.5605 66.295 41.6496 66.0833 40.7328 66.1271C39.816 66.1708 38.9294 66.4683 38.1718 66.9863C38.0749 66.3364 37.8489 65.7124 37.5071 65.1512C37.1653 64.59 36.7147 64.1028 36.1818 63.7184C35.6489 63.334 35.0445 63.0602 34.4041 62.913C33.7637 62.7657 33.1003 62.7482 32.453 62.8613C32.4749 61.6781 32.0679 60.527 31.3071 59.6206C30.5464 58.7141 29.4833 58.1136 28.3143 57.93C28.6801 56.8979 28.6959 55.7741 28.3593 54.7321C28.0227 53.6902 27.3524 52.788 26.4519 52.165C25.5514 51.542 24.4709 51.2329 23.3771 51.2853C22.2834 51.3377 21.2373 51.7488 20.4005 52.455L15.6118 56.4738C15.277 56.762 14.9827 57.0942 14.7368 57.4613C13.4858 56.1715 12.4997 54.649 11.8343 52.98C11.7555 52.7815 11.6271 52.6065 11.4615 52.4717C11.2958 52.3369 11.0984 52.2468 10.888 52.21L9.18679 51.91L12.708 31.9412L16.4005 32.5925C16.535 32.6156 16.6724 32.6156 16.8068 32.5925L31.1255 30.4125C32.7338 30.1658 34.3791 30.3736 35.8755 31.0125L36.8055 31.4088L31.8143 33.5337C30.6929 34.0133 29.7368 34.8112 29.0643 35.8288L24.3605 42.92C23.8163 43.7529 23.6232 44.767 23.8231 45.7416C24.023 46.7162 24.5999 47.5724 25.428 48.1237C26.8111 49.035 28.499 49.3608 30.1218 49.0298C31.7446 48.6987 33.17 47.7377 34.0855 46.3575L36.2318 43.125L40.7955 42.1912C41.2874 43.7078 42.123 45.0902 43.237 46.2307C44.351 47.3712 45.7135 48.2389 47.218 48.7663C47.7513 48.9564 48.2983 49.1056 48.8543 49.2125L62.5605 58.2875C63.1131 58.6532 63.4978 59.2233 63.6303 59.8726C63.7627 60.5218 63.632 61.1971 63.2668 61.75ZM69.1105 52.2125C68.8993 52.2493 68.7011 52.3398 68.535 52.4753C68.3688 52.6108 68.2403 52.7867 68.1618 52.9863C67.496 54.663 66.5063 56.1922 65.2493 57.4862C64.8973 56.9798 64.4534 56.5439 63.9405 56.2012L53.3155 49.1725C54.6962 48.8966 56.0114 48.3594 57.1905 47.59L59.1543 46.3025C59.4314 46.1202 59.6248 45.8352 59.6919 45.5103C59.7589 45.1854 59.6941 44.8471 59.5118 44.57C59.3295 44.2928 59.0445 44.0995 58.7196 44.0324C58.3947 43.9654 58.0564 44.0302 57.7793 44.2125L55.8218 45.5C54.6896 46.2436 53.3999 46.7133 52.0547 46.8719C50.7095 47.0305 49.3458 46.8736 48.0718 46.4137C46.8993 46.0052 45.8401 45.3253 44.9805 44.4294C44.1208 43.5335 43.4853 42.4471 43.1255 41.2588C43.048 41.0088 42.983 40.7425 42.928 40.4787C42.8604 40.1552 42.6673 39.8717 42.3911 39.6902C42.115 39.5086 41.7781 39.4438 41.4543 39.51L35.228 40.785C34.9041 40.8513 34.6196 41.0432 34.4368 41.3187L32.013 44.98C31.4634 45.8075 30.6085 46.3837 29.6352 46.5826C28.6619 46.7815 27.6495 46.5868 26.8193 46.0413C26.5423 45.8567 26.3491 45.5705 26.2818 45.2445C26.2144 44.9186 26.2782 44.5792 26.4593 44.3L31.1605 37.21C31.5637 36.6012 32.1359 36.1233 32.8068 35.835L44.133 31.01C45.6304 30.3744 47.2746 30.1662 48.883 30.4087L63.1955 32.5962C63.3293 32.6169 63.4655 32.6169 63.5993 32.5962L67.2993 31.9487L70.813 51.9175L69.1105 52.2125ZM73.6105 53.3813L69.2693 28.7562L72.963 28.105L77.303 52.73L73.6105 53.3813Z" fill="black"/>
</svg>
