<svg width="52" height="52" viewBox="0 0 52 52" fill="none" xmlns="http://www.w3.org/2000/svg">
<path fill-rule="evenodd" clip-rule="evenodd" d="M21.4635 18.7309L19.0803 33.377H22.8932L25.2766 18.7309H21.4635ZM15.8723 18.7309L12.2369 28.8044L11.8069 26.6352L11.8072 26.6359L11.7125 26.1497C11.2725 25.2015 10.2535 23.3994 8.32941 21.8614C7.76056 21.4069 7.18714 21.0189 6.63281 20.6875L9.93674 33.377H13.9095L19.9761 18.7309H15.8723ZM30.7533 22.7969C30.7533 21.1411 34.4667 21.3538 36.0984 22.253L36.6425 19.1074C36.6425 19.1074 34.9633 18.4688 33.2129 18.4688C31.3206 18.4688 26.8272 19.2963 26.8272 23.3172C26.8272 27.1015 32.1011 27.1485 32.1011 29.1353C32.1011 31.122 27.371 30.767 25.8099 29.5137L25.2426 32.8016C25.2426 32.8016 26.9451 33.6291 29.547 33.6291C32.1487 33.6291 36.0747 32.2813 36.0747 28.6149C36.0747 24.8071 30.7533 24.4524 30.7533 22.7969ZM46.3127 18.7309H43.247C41.8314 18.7309 41.4867 19.8224 41.4867 19.8224L35.8004 33.377H39.7747L40.5697 31.2016H45.4171L45.8643 33.377H49.3653L46.3127 18.7309ZM41.6685 28.1961L43.6721 22.7152L44.7993 28.1961H41.6685Z" fill="#005BAC"/>
<path fill-rule="evenodd" clip-rule="evenodd" d="M10.576 20.1109C10.576 20.1109 10.4181 18.7891 8.73322 18.7891H2.61174L2.54004 19.0375C2.54004 19.0375 5.48251 19.6373 8.30544 21.8846C11.0031 24.0324 11.8832 26.7098 11.8832 26.7098L10.576 20.1109Z" fill="#F6AC1D"/>
</svg>
