<svg width="207" height="82" viewBox="0 0 207 82" fill="none" xmlns="http://www.w3.org/2000/svg">
<path d="M47.3189 18.5546H62.2617L47.3189 58.0432C47.3189 58.0432 43.567 67.7546 33.1846 66.6291H19.6649V52.7695H31.8585C31.8585 52.7695 34.8342 53.284 35.287 51.0009L37.2599 45.6629H25.8103L22.7699 32.3821L38.2949 32.2856L39.7504 39.1993L47.3512 18.5225L47.3189 18.5546Z" fill="white"/>
<path d="M62.2617 18.5547L47.3189 58.0433C47.3189 58.0433 43.567 67.7547 33.1846 66.6292H19.6649" stroke="white" stroke-miterlimit="10"/>
<path d="M9.41214 18.3612H27.9775C27.9775 18.3612 34.7373 17.9431 36.3868 24.278C37.8423 30.3878 39.0714 36.0153 39.0714 36.0153C39.0714 36.0153 37.6806 32.7996 33.6053 32.5102C29.6917 32.2208 20.9912 32.3494 20.9912 32.3494C20.9912 32.3494 7.63323 32.478 9.41214 18.3933V18.3612Z" fill="white"/>
<path d="M23.4815 35.4365L22.8022 32.2852C22.8022 32.2852 31.6968 32.2852 33.6374 32.4781C35.578 32.671 37.5186 33.2499 39.1035 35.9832C39.1035 35.9832 36.6454 34.1181 33.3787 34.1181C29.6915 33.8608 23.4491 35.4044 23.4491 35.4044L23.4815 35.4365Z" fill="white"/>
<path d="M62.2617 15.5635H47.3188V17.0749H62.2617V15.5635Z" fill="white"/>
<path d="M78.5953 49.8752V49.5858H81.2799C81.4739 49.5858 81.6357 49.5858 81.7974 49.5858C81.9268 49.5858 82.0561 49.5215 82.1855 49.4571C82.3149 49.3928 82.4119 49.3285 82.4766 49.232C82.5413 49.1356 82.606 49.0069 82.6707 48.814C82.7353 48.6211 82.7677 48.4281 82.8 48.2352C82.8 48.0422 82.8647 47.7528 82.8647 47.3991C82.8647 47.0454 82.8971 46.6595 82.8971 46.2736C82.8971 45.8877 82.8971 45.4054 82.8971 44.8266V39.2313L77.9808 29.8415C77.5603 29.0375 77.2046 28.4587 76.9458 28.1693C76.6871 27.8799 76.3313 27.7191 75.9108 27.7191H75.2316V27.4297H81.2152V27.7191H79.2422V27.7834C79.4363 27.8477 79.6303 28.0085 79.8244 28.2979C80.0185 28.5552 80.2449 28.9732 80.536 29.4877L84.6113 37.2054C84.8377 37.6877 84.9671 38.0093 85.0318 38.2344H85.2258C85.2582 38.0415 85.4199 37.6877 85.6463 37.2054L88.2661 32.2211L89.3011 29.9701C89.5922 29.3913 89.7216 28.9089 89.7216 28.5873C89.7216 28.0407 89.2688 27.7513 88.3632 27.7513H86.7136V27.4618H92.7943V27.7513H92.6325C92.2444 27.7513 91.8563 27.912 91.5328 28.2336C91.1771 28.5552 90.7889 29.134 90.3038 29.9379L88.7836 32.4783L85.5169 38.7811V44.8587C85.5169 45.4375 85.5169 45.9199 85.5169 46.3058C85.5169 46.6917 85.5169 47.0454 85.5493 47.4313C85.5493 47.785 85.5816 48.0744 85.6139 48.2673C85.6139 48.4603 85.6786 48.6854 85.7433 48.8462C85.808 49.0391 85.8727 49.1677 85.9374 49.2642C86.0021 49.3607 86.0991 49.425 86.2285 49.4893C86.3578 49.5536 86.4872 49.5858 86.6166 49.6179C86.746 49.6179 86.9077 49.6179 87.1341 49.6179H89.3982V49.9073H78.5307L78.5953 49.8752Z" fill="white"/>
<path d="M93.7646 27.3338H104.761V27.6232H103.953C103.694 27.6232 103.468 27.6232 103.306 27.6553C103.144 27.6875 102.983 27.7518 102.853 27.8804C102.724 28.0091 102.594 28.1699 102.53 28.3628C102.465 28.5557 102.4 28.8451 102.368 29.231C102.336 29.6169 102.303 30.0671 102.271 30.5173C102.239 30.9675 102.271 31.6106 102.271 32.3824V44.8914C102.271 46.4671 101.786 47.7212 100.816 48.6859C99.8452 49.6506 98.6161 50.133 97.1283 50.133C95.6405 50.133 94.929 49.7793 94.1851 49.0397C93.4411 48.3322 93.0854 47.3675 93.0854 46.1777H93.3765C93.3765 47.2067 93.6999 47.9785 94.3144 48.5251C94.929 49.0718 95.8346 49.3291 96.999 49.3291C98.1633 49.3291 98.4221 49.0718 98.9396 48.5251C99.4247 47.9785 99.6835 47.1424 99.6835 45.9848V28.4593C99.6835 28.202 99.6835 28.0412 99.7158 27.9447C99.7158 27.8483 99.8129 27.7518 99.9422 27.6232V27.5589H99.0043C97.5165 27.5589 96.3197 27.9126 95.4788 28.62C94.6379 29.3275 94.1527 30.453 93.991 31.9965L93.7969 34.0867H93.3118L93.7322 27.2373L93.7646 27.3338Z" fill="white"/>
<path d="M113.624 28.5232C114.626 28.5232 115.661 28.6519 116.793 28.9413C117.214 29.0699 117.634 29.1021 117.99 29.1021L118.119 34.3758H117.537L117.473 33.0573C117.473 32.7036 117.408 32.3499 117.311 31.9962C117.214 31.6424 117.084 31.2887 116.923 30.935C116.729 30.5813 116.502 30.2597 116.243 29.9703C115.952 29.713 115.597 29.4879 115.144 29.295C114.691 29.1342 114.173 29.0377 113.624 29.0377C112.492 29.0377 111.554 29.3915 110.842 30.0989C110.131 30.8064 109.807 31.7711 109.807 32.9287C109.807 34.0864 109.969 34.3758 110.292 35.0511C110.616 35.7585 111.068 36.3052 111.618 36.7554C112.201 37.2056 112.783 37.4307 113.43 37.4307H113.915V38.0095H113.236C111.78 38.0095 110.68 38.524 109.872 39.553C109.096 40.5821 108.675 42.0613 108.675 43.9264C108.675 45.7915 109.225 46.8205 110.292 47.8174C111.392 48.8142 112.815 49.2966 114.594 49.2966C116.373 49.2966 118.022 48.8464 119.187 47.946C120.351 47.0456 120.933 45.8558 120.933 44.4087C120.933 42.9617 120.804 43.0903 120.513 42.5115C120.222 41.9005 119.801 41.4181 119.251 41.0323C118.702 40.6464 118.055 40.4534 117.375 40.4534C116.696 40.4534 116.049 40.6464 115.597 41.0644C115.144 41.4824 114.917 41.997 114.917 42.6723C114.917 43.3475 115.079 43.5405 115.435 43.8942C115.791 44.2479 116.211 44.4087 116.729 44.4087V44.8589C116.049 44.8589 115.435 44.6017 114.95 44.0872C114.465 43.5726 114.206 42.9617 114.206 42.2864C114.206 41.6111 114.271 41.6432 114.368 41.3217C114.465 41.0001 114.659 40.7107 114.917 40.3891C115.176 40.0997 115.5 39.8103 115.855 39.5852C116.211 39.3601 116.696 39.135 117.246 38.9742C117.796 38.8134 118.411 38.717 119.057 38.6526C119.381 38.6526 119.64 38.6205 119.834 38.5883C120.028 38.5883 120.286 38.5562 120.61 38.524C120.901 38.4919 121.16 38.4597 121.354 38.3954C121.548 38.3311 121.774 38.2989 122.033 38.2346C122.292 38.1703 122.486 38.0738 122.648 37.9773C122.809 37.8809 122.971 37.7844 123.133 37.6558C123.294 37.5272 123.424 37.3985 123.521 37.2377C123.618 37.077 123.683 36.884 123.747 36.6911C123.812 36.466 123.844 36.2409 123.844 36.0158V35.6299H124.265C124.329 36.0479 124.329 36.5303 124.329 37.0126C124.329 37.495 124.297 37.8166 124.2 38.1703C124.135 38.524 124.006 38.7813 123.877 39.0385C123.747 39.2958 123.553 39.4887 123.359 39.6495C123.133 39.8103 122.906 39.9389 122.68 40.0354C122.453 40.1319 122.162 40.1962 121.871 40.2605C121.548 40.3248 121.257 40.357 120.966 40.3891C120.675 40.4213 120.351 40.3891 119.963 40.3891H119.316C119.995 40.775 120.513 41.3538 120.933 42.0934C121.321 42.833 121.516 43.637 121.516 44.473C121.516 46.1452 120.836 47.4958 119.445 48.4926C118.055 49.5217 116.243 50.0362 113.947 50.0362C111.651 50.0362 111.036 49.7789 109.872 49.2644C108.707 48.7499 107.769 48.0424 107.123 47.1099C106.476 46.1773 106.152 45.1162 106.152 43.8942C106.152 42.6722 106.637 40.8393 107.608 39.6495C108.578 38.4597 109.839 37.7844 111.392 37.5915C110.842 37.4628 110.292 37.1734 109.775 36.7232C109.257 36.273 108.804 35.6942 108.481 35.0511C108.125 34.3758 107.963 33.7326 107.963 33.0895C107.963 32.4464 108.222 31.4495 108.707 30.7421C109.193 30.0346 109.904 29.4558 110.745 29.0377C111.618 28.6197 112.556 28.4268 113.559 28.4268L113.624 28.5232Z" fill="white"/>
<path d="M125.494 42.1898H126.076C126.076 42.1577 126.205 43.9263 126.205 43.9263C126.27 44.8267 126.464 45.6306 126.755 46.3381C127.046 47.0455 127.467 47.6243 127.952 48.1067C128.437 48.589 129.019 48.9106 129.666 49.1679C130.313 49.4251 131.025 49.5216 131.768 49.5216C133.192 49.5216 134.324 49.1036 135.197 48.2675C136.07 47.4314 136.491 46.3381 136.491 44.9553C136.491 43.5726 136.426 44.2157 136.329 43.862C136.232 43.5083 136.103 43.1867 135.973 42.8973C135.811 42.6079 135.617 42.3185 135.359 42.029C135.1 41.7396 134.841 41.4824 134.615 41.2573C134.356 41.0322 134.065 40.8071 133.709 40.5498C133.353 40.2926 133.03 40.0675 132.739 39.9067C132.448 39.7137 132.092 39.5208 131.704 39.2636C131.348 39.0385 131.025 38.8455 130.798 38.7169C130.572 38.5561 130.248 38.3632 129.925 38.1381C129.569 37.913 129.278 37.6879 129.052 37.4949C128.825 37.302 128.566 37.0769 128.243 36.8196C127.952 36.5624 127.693 36.3051 127.499 36.08C127.305 35.8549 127.111 35.5655 126.917 35.2439C126.723 34.9224 126.561 34.633 126.432 34.3114C126.302 33.9898 126.238 33.6683 126.141 33.2824C126.076 32.8965 126.044 32.5106 126.044 32.1247C126.044 30.6134 126.626 29.3914 127.758 28.4588C128.922 27.5263 130.41 27.0439 132.286 27.0439C134.162 27.0439 133.612 27.1083 134.453 27.2047C135.294 27.3334 135.908 27.3655 136.297 27.3655C136.685 27.3655 137.105 27.3655 137.396 27.3012L137.752 33.7969H137.17C137.17 33.829 137.105 32.5106 137.105 32.5106C137.105 31.8675 136.943 31.2565 136.717 30.6777C136.491 30.0988 136.2 29.5843 135.811 29.102C135.423 28.6196 134.938 28.2659 134.324 27.9765C133.709 27.6871 133.03 27.5585 132.286 27.5585C130.992 27.5585 129.99 27.88 129.278 28.5553C128.566 29.2306 128.211 30.1632 128.211 31.3851C128.211 32.6071 128.308 32.382 128.502 32.8322C128.696 33.2824 128.922 33.7004 129.181 34.022C129.44 34.3435 129.795 34.6973 130.313 35.0832C130.83 35.469 131.251 35.7585 131.574 35.9835C131.898 36.2086 132.415 36.4981 133.062 36.8839C133.547 37.1734 133.968 37.4306 134.291 37.6236C134.615 37.8165 135.003 38.0737 135.456 38.3953C135.908 38.7169 136.264 39.0063 136.555 39.2957C136.846 39.5851 137.138 39.9067 137.493 40.2926C137.817 40.6784 138.075 41.0643 138.27 41.4824C138.464 41.8683 138.625 42.3185 138.722 42.833C138.852 43.3475 138.916 43.862 138.916 44.4087C138.916 46.0808 138.27 47.4636 136.976 48.4604C135.682 49.4573 134 50.0039 131.865 50.0039C129.731 50.0039 130.345 49.9075 129.213 49.7467C128.081 49.5859 127.337 49.4894 126.982 49.4894C126.626 49.4894 126.238 49.5537 125.882 49.6502L125.526 42.1255L125.494 42.1898Z" fill="white"/>
<path d="M151.789 50.1326C150.14 50.1326 148.587 49.8432 147.196 49.2966C145.806 48.7499 144.609 47.946 143.671 46.9491C142.701 45.9522 141.957 44.7303 141.407 43.2832C140.857 41.8362 140.598 40.2605 140.598 38.5562C140.598 36.8519 140.889 35.5013 141.472 34.0864C142.054 32.6715 142.862 31.4495 143.865 30.4205C144.868 29.3915 146.064 28.5875 147.423 27.9766C148.814 27.3656 150.269 27.0762 151.789 27.0762C153.309 27.0762 154.959 27.3656 156.35 27.9122C157.741 28.4589 158.905 29.2307 159.875 30.2275C160.846 31.2244 161.589 32.4464 162.139 33.8613C162.689 35.3083 162.948 36.8519 162.948 38.5883C162.948 40.3248 162.754 41.0322 162.366 42.222C161.978 43.4118 161.46 44.473 160.748 45.4056C160.069 46.3381 159.261 47.1742 158.323 47.8817C157.417 48.5891 156.382 49.1358 155.25 49.5217C154.118 49.9075 152.954 50.1005 151.725 50.1005L151.789 50.1326ZM151.886 49.5538C153.536 49.5538 154.991 49.1358 156.253 48.2675C157.514 47.3993 158.484 46.2095 159.164 44.6338C159.843 43.0581 160.199 41.2573 160.199 39.1993C160.199 37.1413 160.069 36.7554 159.778 35.5656C159.487 34.3758 159.099 33.3146 158.549 32.3821C158.032 31.4495 157.417 30.6134 156.706 29.906C155.994 29.1985 155.218 28.6519 154.344 28.266C153.471 27.8801 152.566 27.6872 151.66 27.6872C150.01 27.6872 148.555 28.1052 147.293 28.9734C146.032 29.8417 145.029 31.0636 144.35 32.6393C143.639 34.215 143.315 36.0158 143.315 38.0738C143.315 40.1319 143.445 40.5177 143.736 41.7075C144.027 42.8973 144.447 43.9585 144.965 44.8911C145.482 45.8236 146.097 46.6597 146.808 47.3671C147.52 48.0746 148.296 48.6213 149.169 49.0071C150.043 49.393 150.948 49.586 151.854 49.586L151.886 49.5538Z" fill="white"/>
<path d="M164.533 49.875V49.5856H165.179C165.6 49.5856 165.956 49.457 166.214 49.2319C166.473 49.0068 166.667 48.5245 166.829 47.817C166.991 47.1096 167.055 46.1127 167.055 44.7942V29.2625C167.055 29.0052 167.055 28.7801 167.055 28.6194C167.055 28.4586 167.023 28.2978 166.958 28.1692C166.894 28.0405 166.861 27.9441 166.797 27.8797C166.732 27.8154 166.635 27.7833 166.473 27.719C166.311 27.6546 166.182 27.6546 166.02 27.6546C165.859 27.6546 165.632 27.6546 165.374 27.6546H164.565V27.3652H169.449L178.246 43.1543C178.634 43.8295 178.829 44.2154 178.829 44.3119H179.023C179.023 44.0868 178.99 43.6366 178.99 42.9935V32.9927C178.99 31.0311 178.861 29.6484 178.57 28.8445C178.279 28.0405 177.826 27.6546 177.147 27.6546H175.562V27.3652H182.192V27.6546H181.545C181.06 27.6546 180.704 27.7833 180.446 28.0405C180.187 28.2978 179.993 28.8123 179.864 29.5841C179.734 30.3558 179.669 31.4813 179.669 32.9927V50.3252H179.314C179.314 50.1644 179.023 49.5856 178.408 48.5244L168.511 30.9025C168.414 30.7417 168.317 30.5488 168.187 30.3558C168.058 30.1629 167.993 30.0021 167.929 29.8735C167.864 29.7448 167.832 29.6805 167.832 29.6805H167.67C167.67 29.9056 167.702 30.3558 167.702 31.0311V44.8264C167.702 46.5629 167.832 47.817 168.123 48.5244C168.414 49.2319 168.867 49.5856 169.546 49.5856H170.193V49.875H164.565H164.533Z" fill="white"/>
<path d="M183.421 42.1898H184.004C184.004 42.1577 184.133 43.9263 184.133 43.9263C184.198 44.8267 184.392 45.6306 184.683 46.3381C185.006 47.0455 185.394 47.6243 185.88 48.1067C186.365 48.589 186.947 48.9106 187.594 49.1679C188.241 49.4251 188.952 49.5216 189.696 49.5216C191.119 49.5216 192.251 49.1036 193.125 48.2675C193.998 47.4314 194.418 46.3381 194.418 44.9553C194.418 43.5726 194.386 44.2157 194.257 43.862C194.127 43.5083 194.03 43.1867 193.901 42.8973C193.739 42.6079 193.545 42.3185 193.286 42.029C193.028 41.7396 192.769 41.4824 192.542 41.2573C192.316 41.0322 191.993 40.8071 191.637 40.5498C191.281 40.2926 190.958 40.0675 190.666 39.9067C190.375 39.7137 190.02 39.5208 189.631 39.2636C189.276 39.0385 188.952 38.8455 188.726 38.7169C188.499 38.5561 188.176 38.3632 187.853 38.1381C187.497 37.913 187.206 37.6879 186.979 37.4949C186.753 37.302 186.494 37.0769 186.171 36.8196C185.88 36.5624 185.621 36.3051 185.427 36.08C185.233 35.8549 185.039 35.5655 184.845 35.2439C184.651 34.9224 184.489 34.633 184.359 34.3114C184.262 33.9898 184.165 33.6683 184.068 33.2824C184.004 32.8965 183.939 32.5106 183.939 32.1247C183.939 30.6134 184.521 29.3914 185.653 28.4588C186.818 27.5263 188.305 27.0439 190.181 27.0439C192.057 27.0439 191.507 27.1083 192.348 27.2047C193.189 27.3334 193.804 27.3655 194.192 27.3655C194.58 27.3655 195.001 27.3655 195.292 27.3012L195.647 33.7969H195.065C195.065 33.829 195.001 32.5106 195.001 32.5106C195.001 31.8675 194.839 31.2565 194.612 30.6777C194.386 30.0988 194.095 29.5843 193.707 29.102C193.319 28.6196 192.833 28.2659 192.219 27.9765C191.604 27.6871 190.925 27.5585 190.181 27.5585C188.888 27.5585 187.885 27.88 187.173 28.5553C186.462 29.2306 186.106 30.1632 186.106 31.3851C186.106 32.6071 186.203 32.382 186.397 32.8322C186.591 33.2824 186.818 33.7004 187.076 34.022C187.335 34.3435 187.691 34.6973 188.208 35.0832C188.726 35.469 189.146 35.7585 189.47 35.9835C189.793 36.2086 190.311 36.4981 190.958 36.8839C191.443 37.1734 191.863 37.4306 192.187 37.6236C192.51 37.8165 192.898 38.0737 193.351 38.3953C193.804 38.7169 194.16 39.0063 194.451 39.2957C194.742 39.5851 195.033 39.9067 195.389 40.2926C195.712 40.6784 195.971 41.0643 196.165 41.4824C196.359 41.8683 196.521 42.3185 196.618 42.833C196.747 43.3475 196.812 43.862 196.812 44.4087C196.812 46.0808 196.165 47.4636 194.871 48.4604C193.577 49.4894 191.896 50.0039 189.761 50.0039C187.626 50.0039 188.241 49.9075 187.109 49.7467C185.977 49.5859 185.233 49.4894 184.877 49.4894C184.521 49.4894 184.133 49.5537 183.777 49.6502L183.421 42.1255V42.1898Z" fill="white"/>
<path d="M77.0429 56.5317C77.2693 56.7246 77.3663 56.9819 77.3663 57.3034C77.3663 57.625 77.2693 57.8823 77.0429 58.0752C76.8165 58.2681 76.5254 58.3646 76.1049 58.3646H75.361V59.265H74.9406V56.2744H76.1049C76.493 56.2744 76.8165 56.3709 77.0429 56.5638V56.5317ZM76.7518 57.8179C76.8812 57.6893 76.9782 57.5285 76.9782 57.3034C76.9782 57.0783 76.9135 56.9176 76.7518 56.7889C76.6224 56.6603 76.396 56.6281 76.1373 56.6281H75.3934V57.9787H76.1373C76.396 57.9787 76.6224 57.9144 76.7518 57.8179Z" fill="white"/>
<path d="M81.8945 58.9434C81.668 58.7183 81.571 58.3967 81.571 57.9465V56.2422H81.9915V57.9143C81.9915 58.5575 82.2826 58.8791 82.8324 58.8791C83.3823 58.8791 83.3176 58.8147 83.4793 58.654C83.641 58.4932 83.7057 58.2681 83.7057 57.9143V56.2422H84.1262V57.9465C84.1262 58.3645 84.0291 58.7183 83.8027 58.9434C83.5763 59.1685 83.2529 59.2971 82.8648 59.2971C82.4766 59.2971 82.1532 59.1685 81.9268 58.9434H81.8945Z" fill="white"/>
<path d="M90.5626 59.2649L89.9157 58.3324C89.8187 58.3324 89.7863 58.3324 89.7216 58.3324H88.9777V59.2328H88.5573V56.2422H89.7216C90.1098 56.2422 90.4332 56.3387 90.6596 56.5316C90.886 56.7245 90.983 56.9818 90.983 57.3034C90.983 57.6249 90.9183 57.7214 90.8213 57.8822C90.6919 58.043 90.5302 58.1716 90.3362 58.2359L91.0477 59.2328H90.5626V59.2649ZM90.3362 57.8179C90.4655 57.6892 90.5626 57.5285 90.5626 57.3034C90.5626 57.0783 90.4979 56.9175 90.3362 56.7889C90.2068 56.6602 89.9804 56.6281 89.7216 56.6281H88.9777V57.9787H89.7216C89.9804 57.9787 90.2068 57.9143 90.3362 57.8179Z" fill="white"/>
<path d="M95.2201 56.2744H95.6405V59.265H95.2201V56.2744Z" fill="white"/>
<path d="M100.718 56.6281H99.6835V56.2422H102.174V56.6281H101.139V59.2649H100.718V56.6281Z" fill="white"/>
<path d="M107.317 58.2359V59.2649H106.896V58.2038L105.699 56.2422H106.152L107.123 57.8179L108.093 56.2422H108.513L107.317 58.2038V58.2359Z" fill="white"/>
<path d="M121.451 56.2744L120.448 59.265H119.995L119.187 56.8532L118.378 59.265H117.925L116.923 56.2744H117.376L118.184 58.7183L119.025 56.2744H119.413L120.254 58.7183L121.095 56.2744H121.516H121.451Z" fill="white"/>
<path d="M125.526 56.2744H125.947V59.265H125.526V56.2744Z" fill="white"/>
<path d="M131.025 56.6281H129.99V56.2422H132.48V56.6281H131.445V59.2649H131.025V56.6281Z" fill="white"/>
<path d="M139.078 56.2744V59.265H138.658V57.9144H136.911V59.265H136.491V56.2744H136.911V57.5607H138.658V56.2744H139.078Z" fill="white"/>
<path d="M150.431 58.8791V59.265H148.231V56.2744H150.366V56.6603H148.652V57.5928H150.172V57.9466H148.652V58.9113H150.399L150.431 58.8791Z" fill="white"/>
<path d="M154.7 56.2744H155.121V58.9113H156.77V59.2972H154.7V56.3066V56.2744Z" fill="white"/>
<path d="M162.98 58.8791V59.265H160.781V56.2744H162.916V56.6603H161.201V57.5928H162.722V57.9466H161.201V58.9113H162.948L162.98 58.8791Z" fill="white"/>
<path d="M169.32 57.7536H169.74V58.9112C169.578 59.0398 169.417 59.1363 169.223 59.2006C169.029 59.2649 168.802 59.2971 168.608 59.2971C168.414 59.2971 168.026 59.2328 167.799 59.1041C167.573 58.9755 167.347 58.7826 167.217 58.5575C167.088 58.3324 167.023 58.0751 167.023 57.7857C167.023 57.4963 167.088 57.2391 167.217 56.9818C167.347 56.7567 167.541 56.5638 167.799 56.4351C168.058 56.3065 168.317 56.2422 168.64 56.2422C168.964 56.2422 169.093 56.2743 169.287 56.3708C169.481 56.4351 169.643 56.5638 169.805 56.7245L169.546 56.9818C169.32 56.7567 169.028 56.6281 168.673 56.6281C168.317 56.6281 168.22 56.6924 168.058 56.7889C167.864 56.8853 167.735 57.014 167.638 57.2069C167.541 57.3677 167.476 57.5928 167.476 57.7857C167.476 57.9787 167.541 58.2038 167.638 58.3645C167.735 58.5253 167.896 58.6861 168.058 58.7826C168.252 58.879 168.446 58.9434 168.673 58.9434C168.899 58.9434 169.19 58.8791 169.384 58.7504V57.7857L169.32 57.7536Z" fill="white"/>
<path d="M176.015 58.5254H174.398L174.074 59.265H173.621L174.98 56.2744H175.4L176.759 59.265H176.306L175.982 58.5254H176.015ZM175.853 58.1717L175.206 56.6924L174.559 58.1717H175.853Z" fill="white"/>
<path d="M183.389 56.2744V59.265H183.033L181.222 57.014V59.265H180.802V56.2744H181.157L182.969 58.5254V56.2744H183.389Z" fill="white"/>
<path d="M188.37 59.1042C188.111 58.9756 187.95 58.7827 187.788 58.5576C187.658 58.3325 187.594 58.0752 187.594 57.7858C187.594 57.4964 187.658 57.2391 187.788 57.014C187.917 56.7889 188.111 56.596 188.37 56.4674C188.629 56.3387 188.888 56.2744 189.179 56.2744C189.47 56.2744 189.631 56.3066 189.826 56.403C190.02 56.4674 190.181 56.596 190.311 56.7568L190.02 57.014C189.793 56.7889 189.502 56.6603 189.179 56.6603C188.855 56.6603 188.758 56.7246 188.564 56.8211C188.37 56.9176 188.241 57.0462 188.144 57.2391C188.047 57.4321 187.982 57.625 187.982 57.8179C187.982 58.0109 188.047 58.236 188.144 58.3968C188.241 58.5576 188.402 58.7183 188.564 58.8148C188.758 58.9113 188.952 58.9756 189.179 58.9756C189.502 58.9756 189.793 58.847 190.02 58.6219L190.311 58.8791C190.181 59.0399 190.02 59.1364 189.793 59.2328C189.599 59.2972 189.373 59.3615 189.146 59.3615C188.92 59.3615 188.564 59.2972 188.338 59.1685L188.37 59.1042Z" fill="white"/>
<path d="M196.715 58.8791V59.265H194.515V56.2744H196.65V56.6603H194.936V57.5928H196.456V57.9466H194.936V58.9113H196.682L196.715 58.8791Z" fill="white"/>
</svg>
