<svg width="36" height="36" viewBox="0 0 36 36" fill="none" xmlns="http://www.w3.org/2000/svg">
<path fill-rule="evenodd" clip-rule="evenodd" d="M10.3596 14.3664H1.06052C0.78763 14.3664 0.566406 14.1452 0.566406 13.8723V10.4887C0.566406 9.73648 0.865206 9.01513 1.39709 8.48325C1.92897 7.95137 2.65038 7.65257 3.40257 7.65257H4.39292C4.52055 7.65257 4.64323 7.70191 4.73528 7.79036L5.70932 8.72622L6.67871 7.79106C6.77083 7.70219 6.8938 7.65257 7.02177 7.65257H8.01756C8.76982 7.65257 9.49116 7.95137 10.023 8.48325C10.5549 9.01513 10.8537 9.73648 10.8537 10.4887V13.8723C10.8537 14.1452 10.6325 14.3664 10.3596 14.3664ZM8.37544 13.3782H9.86549V10.4887C9.86549 9.99857 9.67081 9.52859 9.32429 9.18201C8.9777 8.83549 8.50765 8.64081 8.01756 8.64081H7.22125L6.05316 9.76775C5.86201 9.95212 5.55925 9.95248 5.36775 9.76845L4.19401 8.64081H3.40257C2.91248 8.64081 2.44243 8.83549 2.09584 9.18201C1.74932 9.52859 1.55464 9.99857 1.55464 10.4887V13.3782H3.04469V11.0095C3.04469 10.7368 3.26612 10.5153 3.53881 10.5153C3.81156 10.5153 4.03292 10.7368 4.03292 11.0095V13.3782H7.38721V11.0095C7.38721 10.7368 7.60857 10.5153 7.88132 10.5153C8.15401 10.5153 8.37544 10.7368 8.37544 11.0095V13.3782ZM33.4288 34.1176H24.1297C23.8569 34.1176 23.6356 33.8964 23.6356 33.6235V30.2399C23.6356 29.4877 23.9344 28.7663 24.4663 28.2344C24.9982 27.7025 25.7196 27.4037 26.4718 27.4037H27.4621C27.5898 27.4037 27.7125 27.4531 27.8045 27.5415L28.7786 28.4774L29.7479 27.5422C29.8401 27.4533 29.963 27.4037 30.091 27.4037H31.0868C31.839 27.4037 32.5604 27.7025 33.0923 28.2344C33.6241 28.7663 33.9229 29.4877 33.9229 30.2399V33.6235C33.9229 33.8964 33.7017 34.1176 33.4288 34.1176ZM31.4447 33.1294H32.9347V30.2399C32.9347 29.7498 32.74 29.2797 32.3935 28.9332C32.0469 28.5866 31.5769 28.392 31.0868 28.392H30.2905L29.1224 29.5189C28.9312 29.7033 28.6285 29.7036 28.437 29.5196L27.2632 28.392H26.4718C25.9817 28.392 25.5117 28.5866 25.1651 28.9332C24.8185 29.2797 24.6239 29.7498 24.6239 30.2399V33.1294H26.114V30.7607C26.114 30.4879 26.3353 30.2666 26.6081 30.2666C26.8808 30.2666 27.1022 30.4879 27.1022 30.7607V33.1294H30.4564V30.7607C30.4564 30.4879 30.6778 30.2666 30.9505 30.2666C31.2232 30.2666 31.4447 30.4879 31.4447 30.7607V33.1294ZM2.46876 17.2459L1.78081 17.8264C1.57236 18.0022 1.26036 17.9757 1.08452 17.7673C0.908689 17.5589 0.935089 17.2469 1.14354 17.071L2.78005 15.6904C2.98864 15.5144 3.30043 15.5409 3.47634 15.7495L4.85697 17.386C5.03288 17.5944 5.00641 17.9064 4.79796 18.0823C4.58951 18.2581 4.27751 18.2316 4.10168 18.0232C4.10168 18.0232 3.7565 17.6141 3.45975 17.2623C3.41521 17.7293 3.39241 18.2027 3.39241 18.6813C3.39241 26.8337 10.0111 33.4524 18.1636 33.4524C19.2695 33.4524 20.3471 33.3307 21.3839 33.0998C21.6501 33.0405 21.9143 33.2085 21.9736 33.4747C22.0328 33.7409 21.8649 34.0052 21.5987 34.0645C20.4928 34.3107 19.3432 34.4407 18.1636 34.4407C9.46568 34.4407 2.40417 27.3792 2.40417 18.6813C2.40417 18.1975 2.42598 17.7187 2.46876 17.2459ZM32.9116 19.5157C32.9269 19.2395 32.9347 18.9613 32.9347 18.6813C32.9347 10.5288 26.316 3.91005 18.1636 3.91005C15.8862 3.91005 13.7286 4.42641 11.8014 5.34864C11.5554 5.46631 11.2602 5.36219 11.1424 5.11619C11.0248 4.87019 11.1289 4.57492 11.3749 4.45718C13.4312 3.47318 15.7335 2.92182 18.1636 2.92182C26.8614 2.92182 33.9229 9.98339 33.9229 18.6813C33.9229 18.9773 33.9148 19.2713 33.8987 19.5633L34.5935 18.8685C34.7863 18.6756 35.0994 18.6756 35.2922 18.8685C35.4851 19.0613 35.4851 19.3744 35.2922 19.5672L33.7782 21.0812C33.5853 21.2742 33.2724 21.2742 33.0795 21.0812L31.5655 19.5672C31.3727 19.3744 31.3727 19.0613 31.5655 18.8685C31.7583 18.6756 32.0714 18.6756 32.2643 18.8685C32.2643 18.8685 32.6004 19.2046 32.9116 19.5157ZM18.1648 11.7242C22.0076 11.7242 25.1219 14.8385 25.1219 18.6813C25.1219 22.5241 22.0076 25.6384 18.1648 25.6384C14.322 25.6384 11.2053 22.524 11.2053 18.6813C11.2053 14.8385 14.322 11.7242 18.1648 11.7242ZM18.1648 12.7124C14.8677 12.7124 12.1935 15.3842 12.1935 18.6813C12.1935 21.9782 14.8677 24.6501 18.1648 24.6501C21.4617 24.6501 24.1336 21.9782 24.1336 18.6813C24.1336 15.3843 21.4617 12.7124 18.1648 12.7124ZM18.1643 13.8653C20.8245 13.8653 22.9804 16.0211 22.9804 18.6813C22.9804 21.3414 20.8245 23.4972 18.1643 23.4972C15.5042 23.4972 13.3468 21.3414 13.3468 18.6813C13.3468 16.0212 15.5042 13.8653 18.1643 13.8653ZM18.1643 14.8535C16.05 14.8535 14.335 16.5669 14.335 18.6813C14.335 20.7956 16.05 22.509 18.1643 22.509C20.2787 22.509 21.9921 20.7955 21.9921 18.6813C21.9921 16.5669 20.2787 14.8535 18.1643 14.8535ZM17.679 21.0908C17.3881 21.0074 17.1642 20.8403 16.9067 20.5965C16.7086 20.4091 16.7 20.0961 16.8875 19.898C17.0749 19.6999 17.3879 19.6913 17.5859 19.8788C17.7657 20.0489 17.8991 20.1641 18.1644 20.1641C18.4826 20.1641 18.7677 19.9645 18.7677 19.6797C18.7677 19.3948 18.4828 19.1938 18.1644 19.1938C17.2702 19.1938 16.5729 18.5175 16.5729 17.7197C16.5729 17.0794 17.0219 16.5175 17.6613 16.3204L17.657 16.1469C17.6503 15.8743 17.8662 15.6475 18.1389 15.6408C18.4115 15.6341 18.6383 15.85 18.645 16.1226L18.6497 16.3153C18.8852 16.385 19.0965 16.5036 19.2688 16.6571C19.4724 16.8385 19.4904 17.1511 19.3091 17.3547C19.1277 17.5584 18.8151 17.5764 18.6114 17.395C18.4968 17.2929 18.3377 17.2337 18.1644 17.2337C17.8451 17.2337 17.5612 17.4348 17.5612 17.7197C17.5612 18.0045 17.8451 18.2056 18.1644 18.2056C19.0561 18.2056 19.7559 18.8819 19.7559 19.6797C19.7559 20.32 19.3057 20.8807 18.6671 21.0774L18.6701 21.2153C18.6761 21.4879 18.4595 21.7142 18.1869 21.7201C17.9142 21.726 17.6881 21.5095 17.6821 21.2369L17.679 21.0908ZM5.7101 1.5625C7.17643 1.5625 8.3669 2.75297 8.3669 4.2193C8.3669 5.6857 7.17643 6.87617 5.7101 6.87617C4.2437 6.87617 3.05323 5.6857 3.05323 4.2193C3.05323 2.75297 4.2437 1.5625 5.7101 1.5625ZM5.7101 2.55074C4.78914 2.55074 4.04147 3.29841 4.04147 4.2193C4.04147 5.14026 4.78914 5.88794 5.7101 5.88794C6.63099 5.88794 7.37867 5.14026 7.37867 4.2193C7.37867 3.29841 6.63099 2.55074 5.7101 2.55074ZM28.7793 21.3137C30.2457 21.3137 31.4361 22.5041 31.4361 23.9705C31.4361 25.4369 30.2457 26.6274 28.7793 26.6274C27.3129 26.6274 26.1225 25.4369 26.1225 23.9705C26.1225 22.5041 27.3129 21.3137 28.7793 21.3137ZM28.7793 22.3019C27.8584 22.3019 27.1107 23.0496 27.1107 23.9705C27.1107 24.8914 27.8584 25.6392 28.7793 25.6392C29.7002 25.6392 30.4479 24.8914 30.4479 23.9705C30.4479 23.0496 29.7002 22.3019 28.7793 22.3019Z" fill="#DF6D5D"/>
</svg>
