<svg width="33" height="34" viewBox="0 0 33 34" fill="none" xmlns="http://www.w3.org/2000/svg">
<g clip-path="url(#clip0_2598_6996)">
<path d="M0.715759 14.2589L2.90329 5.50845C3.04 4.9889 3.29974 4.53766 3.66893 4.16848C4.03812 3.79929 4.48935 3.53948 5.00891 3.40284L13.7594 1.2153C14.7437 0.969223 15.7965 1.2563 16.5212 1.98094L32.1489 17.6087C33.2837 18.7434 33.2837 20.5756 32.1489 21.7105L21.2108 32.6485C20.076 33.7833 18.2438 33.7833 17.1091 32.6485L1.48133 17.0208C0.756687 16.2961 0.469612 15.2432 0.715759 14.2589ZM11.6401 12.1396C12.7749 11.0048 12.7748 9.17261 11.6401 8.03785C10.5053 6.90302 8.67319 6.90302 7.5383 8.03785C6.40341 9.17267 6.40348 11.0047 7.5383 12.1396C8.67306 13.2744 10.5053 13.2745 11.6401 12.1396Z" fill="#FF6C6C"/>
<path d="M1.48114 17.0202L17.1089 32.6479C18.2436 33.7827 20.0758 33.7828 21.2107 32.6479L26.6797 27.1789L11.6399 12.1391C10.5051 13.274 8.67287 13.2739 7.53811 12.1391C6.40329 11.0043 6.40329 9.17223 7.53811 8.03734L3.66874 4.16797C3.29956 4.53716 3.03975 4.98839 2.90311 5.50795L0.715508 14.2584C0.46936 15.2427 0.756433 16.2956 1.48114 17.0202Z" fill="#FF4949"/>
<path d="M21.2104 16.243C22.3413 15.1121 22.3413 13.2721 21.2104 12.1412C20.0795 11.0102 18.2396 11.0103 17.1086 12.1412C15.9777 13.2721 15.9777 15.112 17.1086 16.243C18.2395 17.3739 20.0795 17.3738 21.2104 16.243ZM18.4759 13.5084C18.8531 13.1312 19.466 13.1312 19.8432 13.5084C20.2204 13.8856 20.2204 14.4985 19.8432 14.8756C19.466 15.2528 18.8531 15.2528 18.4759 14.8756C18.0988 14.4985 18.0988 13.8856 18.4759 13.5084Z" fill="#FFE470"/>
<path d="M19.8432 25.8132C20.9741 24.6823 20.9741 22.8424 19.8432 21.7115C18.7123 20.5806 16.8724 20.5806 15.7414 21.7115C14.6106 22.8423 14.6106 24.6823 15.7414 25.8132C16.8724 26.9441 18.7123 26.9441 19.8432 25.8132ZM17.1088 23.0788C17.4859 22.7016 18.0988 22.7016 18.476 23.0788C18.8532 23.4559 18.8532 24.0688 18.476 24.446C18.0988 24.8232 17.4859 24.8232 17.1088 24.446C16.7315 24.0688 16.7315 23.4559 17.1088 23.0788Z" fill="#FFD400"/>
<path d="M12.2143 19.25L19.5701 20.0703L24.5196 20.6172C24.8341 20.6582 25.1075 20.5489 25.3126 20.3438C25.463 20.1934 25.5586 19.9882 25.5861 19.7695C25.6544 19.2362 25.2579 18.7577 24.7384 18.703L17.3826 17.8827L12.4331 17.3358C11.8997 17.2675 11.4213 17.6639 11.3666 18.1835C11.2981 18.7167 11.6947 19.1952 12.2143 19.25Z" fill="#FFE470"/>
<path d="M12.2145 19.2501L19.5703 20.0703L17.3827 17.8827L12.4332 17.3358C11.8999 17.2675 11.4215 17.6639 11.3667 18.1835C11.2984 18.7168 11.6949 19.1953 12.2145 19.2501Z" fill="#FFD400"/>
<path d="M0.287887 2.15438L7.53898 9.40554C7.92183 9.78839 8.52337 9.78839 8.90622 9.40554C9.28907 9.02269 9.28907 8.42115 8.90622 8.03829L1.65513 0.787138C1.27228 0.404287 0.670737 0.404287 0.287887 0.787138C-0.094964 1.16999 -0.094964 1.77153 0.287887 2.15438Z" fill="#3E5959"/>
<path d="M8.90625 9.40551L0.287852 0.787109C-0.0949984 1.16996 -0.0949984 1.7715 0.287852 2.15435L7.53894 9.40551C7.92186 9.78836 8.52333 9.78836 8.90625 9.40551Z" fill="#384949"/>
</g>
<defs>
<clipPath id="clip0_2598_6996">
<rect width="33" height="33" fill="white" transform="matrix(-1 0 0 1 33 0.5)"/>
</clipPath>
</defs>
</svg>
