<svg width="36" height="36" viewBox="0 0 36 36" fill="none" xmlns="http://www.w3.org/2000/svg">
<g clip-path="url(#clip0_4857_152052)">
<path d="M12.4989 8.45304C12.3955 8.77134 12.4973 9.1125 12.7582 9.32224L15.0809 11.1892L14.2991 14.0649C14.2114 14.3878 14.3296 14.7236 14.6005 14.9206C14.8715 15.1172 15.2272 15.1258 15.5072 14.9426L18.0006 13.3104L20.494 14.9427C20.6284 15.0306 20.7802 15.0744 20.9318 15.0744C21.096 15.0744 21.2599 15.023 21.4006 14.9206C21.6717 14.7238 21.7899 14.3878 21.702 14.0649L20.9202 11.1892L23.2428 9.32238C23.5039 9.11271 23.6057 8.77148 23.5022 8.45304C23.3988 8.13452 23.1158 7.91831 22.7815 7.90214L19.8049 7.75702L18.7472 4.97109C18.6284 4.65813 18.3353 4.45584 18.0005 4.45584C17.6658 4.45584 17.3726 4.65806 17.2539 4.97102L16.1961 7.75709L13.2198 7.90214C12.8853 7.91831 12.6023 8.13452 12.4989 8.45304ZM16.4643 8.87027C16.7815 8.8548 17.0593 8.65294 17.1719 8.35608L18.0004 6.17393L18.829 8.35629C18.9418 8.65308 19.2197 8.8548 19.5366 8.87027L21.868 8.98397L20.0486 10.4463C19.801 10.6453 19.695 10.9719 19.7783 11.2782L20.3906 13.5306L18.4376 12.2521C18.3048 12.1652 18.1526 12.1217 18.0004 12.1217C17.8481 12.1217 17.6958 12.1653 17.5629 12.2522L15.61 13.5306L16.2224 11.2783C16.3058 10.9718 16.1997 10.6452 15.952 10.4463L14.1327 8.98404L16.4643 8.87027ZM17.4379 2.62673V0.5625C17.4379 0.251859 17.6898 0 18.0004 0C18.3111 0 18.5629 0.251859 18.5629 0.5625V2.62673C18.5629 2.93738 18.3111 3.18923 18.0004 3.18923C17.6898 3.18923 17.4379 2.93738 17.4379 2.62673ZM20.8635 5.95941C20.6557 5.72857 20.6743 5.37286 20.9051 5.16502L23.2054 3.09375C23.4363 2.88584 23.7919 2.90447 23.9999 3.13538C24.2077 3.36621 24.1891 3.72192 23.9582 3.92977L21.6579 6.00103C21.5504 6.09785 21.4158 6.14552 21.2816 6.14552C21.1279 6.14552 20.9746 6.0828 20.8635 5.95941ZM12.001 3.13538C12.2089 2.90447 12.5645 2.88584 12.7955 3.09375L15.0958 5.16502C15.3267 5.37286 15.3453 5.72857 15.1375 5.95941C15.0264 6.08273 14.8731 6.14552 14.7192 6.14552C14.5852 6.14552 14.4506 6.09785 14.343 6.00103L12.0427 3.92977C11.8117 3.72192 11.7932 3.36621 12.001 3.13538ZM25.2169 9.32224L27.5397 11.1892L26.7579 14.0649C26.6701 14.3878 26.7883 14.7236 27.0592 14.9206C27.33 15.1172 27.6858 15.1258 27.966 14.9426L30.4593 13.3104L32.9527 14.9427C33.0872 15.0306 33.239 15.0744 33.3905 15.0744C33.5548 15.0744 33.7187 15.023 33.8594 14.9206C34.1303 14.7239 34.2485 14.388 34.1607 14.0649L33.3789 11.1892L35.7015 9.32238C35.9625 9.11278 36.0644 8.77155 35.9609 8.45304C35.8574 8.13452 35.5745 7.91831 35.2402 7.90214L32.2637 7.75702L31.206 4.97109C31.0872 4.65813 30.7941 4.45584 30.4593 4.45584C30.1245 4.45584 29.8314 4.65806 29.7126 4.97102L28.6549 7.75702L25.6786 7.90207C25.344 7.91824 25.0611 8.13452 24.9577 8.45304C24.8542 8.77148 24.956 9.11271 25.2169 9.32224ZM28.9229 8.87027C29.2402 8.8548 29.5181 8.65294 29.6308 8.35601L30.4593 6.17386L31.2877 8.35594C31.4004 8.65294 31.6783 8.8548 31.9954 8.8702L34.3268 8.9839L32.5076 10.446C32.2599 10.645 32.1537 10.9717 32.2371 11.2781L32.8495 13.5305L30.8965 12.252C30.7636 12.1651 30.6113 12.1217 30.4591 12.1217C30.3068 12.1217 30.1545 12.1652 30.0217 12.2521L28.0688 13.5305L28.6812 11.2783C28.7645 10.9719 28.6585 10.6453 28.4108 10.4462L26.5915 8.9839L28.9229 8.87027ZM0.299271 9.32224L2.62204 11.1892L1.84024 14.0649C1.75249 14.3878 1.87068 14.7236 2.1416 14.9206C2.41258 15.1172 2.76829 15.1258 3.04835 14.9426L5.5417 13.3104L8.03512 14.9427C8.16956 15.0306 8.32137 15.0744 8.47289 15.0744C8.63714 15.0744 8.80104 15.023 8.94173 14.9206C9.21265 14.7239 9.33091 14.388 9.24309 14.0649L8.46129 11.1892L10.7839 9.32238C11.0448 9.11292 11.1467 8.77177 11.0432 8.45269C10.9396 8.13438 10.6567 7.91824 10.3226 7.90207L7.34606 7.75695L6.28835 4.97109C6.16959 4.65813 5.87646 4.45584 5.5417 4.45584C5.20687 4.45584 4.91374 4.65806 4.79498 4.97102L3.73727 7.75702L0.760943 7.90207C0.426466 7.91824 0.143529 8.13452 0.0401694 8.45269C-0.0635415 8.77127 0.0382006 9.11264 0.299271 9.32224ZM4.0053 8.87027C4.32262 8.8548 4.6005 8.65294 4.71314 8.35601L5.54163 6.17386L6.37005 8.35594C6.48276 8.65294 6.76064 8.8548 7.07782 8.8702L9.40917 8.9839L7.58997 10.446C7.34226 10.645 7.23609 10.9717 7.31948 11.2781L7.93183 13.5305L5.97883 12.252C5.84594 12.1651 5.69372 12.1217 5.54149 12.1217C5.38919 12.1217 5.2369 12.1652 5.10408 12.2521L3.15122 13.5305L3.76357 11.2783C3.84689 10.9719 3.74086 10.6453 3.49322 10.4462L1.67388 8.9839L4.0053 8.87027ZM35.9119 29.8781C35.5161 28.6 34.7055 27.4523 33.6292 26.6464C33.114 26.2606 32.5529 25.9601 31.961 25.7473C32.7816 25.1032 33.3104 24.1034 33.3104 22.9817C33.3104 21.0435 31.7335 19.4666 29.7953 19.4666C27.8571 19.4666 26.2802 21.0435 26.2802 22.9817C26.2802 24.1021 26.8076 25.1009 27.6266 25.7451C26.529 26.1368 25.5566 26.8252 24.8119 27.7528C24.4638 27.2659 24.0624 26.8136 23.611 26.4054C22.7016 25.583 21.6343 24.979 20.4849 24.622C21.7038 23.814 22.5096 22.4305 22.5096 20.8617C22.5096 18.3755 20.4868 16.3527 18.0005 16.3527C15.5143 16.3527 13.4914 18.3755 13.4914 20.8617C13.4914 22.4305 14.2972 23.814 15.516 24.622C14.3666 24.9789 13.2993 25.583 12.3899 26.4054C11.9385 26.8136 11.537 27.2659 11.1891 27.7527C10.4445 26.8251 9.47203 26.1367 8.37431 25.7449C9.19324 25.1007 9.72079 24.1019 9.72079 22.9815C9.72079 21.0433 8.1439 19.4664 6.20573 19.4664C4.2675 19.4664 2.6906 21.0433 2.6906 22.9815C2.6906 24.1031 3.21935 25.103 4.0399 25.7471C3.44801 25.9599 2.88691 26.2604 2.37159 26.6462C1.29532 27.452 0.484685 28.5997 0.088896 29.8778C-0.0939869 30.4682 0.00733346 31.0673 0.374154 31.565C0.740904 32.0625 1.28329 32.3364 1.90134 32.3364H9.67741V33.3516C9.67741 34.812 10.8655 36.0001 12.3259 36.0001H23.675C25.1353 36.0001 26.3235 34.812 26.3235 33.3516V32.3367H34.0995C34.7177 32.3367 35.2601 32.0627 35.6267 31.5653C35.9935 31.0676 36.0948 30.4684 35.9119 29.8781ZM29.7953 20.5916C31.1132 20.5916 32.1854 21.6638 32.1854 22.9817C32.1854 24.2997 31.1132 25.3718 29.7953 25.3718C28.4774 25.3718 27.4052 24.2997 27.4052 22.9817C27.4052 21.6638 28.4774 20.5916 29.7953 20.5916ZM14.6164 20.8617C14.6164 18.9958 16.1346 17.4777 18.0005 17.4777C19.8665 17.4777 21.3846 18.9958 21.3846 20.8617C21.3846 22.7271 19.8675 24.2447 18.0023 24.2457C18.0017 24.2457 18.001 24.2457 18.0004 24.2457C17.9999 24.2457 17.9992 24.2457 17.9986 24.2457C16.1335 24.2447 14.6164 22.727 14.6164 20.8617ZM6.20573 20.5914C7.5236 20.5914 8.59579 21.6636 8.59579 22.9814C8.59579 24.2994 7.5236 25.3716 6.20573 25.3716C4.88779 25.3716 3.8156 24.2994 3.8156 22.9814C3.8156 21.6636 4.88779 20.5914 6.20573 20.5914ZM9.75047 31.2114H1.90141C1.64252 31.2114 1.43341 31.1058 1.27978 30.8974C1.12608 30.6889 1.08705 30.4579 1.16362 30.2106C1.85156 27.9891 3.8779 26.4966 6.20573 26.4966C7.96657 26.4966 9.57061 27.3473 10.5572 28.7876C10.1671 29.5452 9.89398 30.3619 9.75047 31.2114ZM25.1985 33.3515C25.1985 34.1916 24.515 34.875 23.675 34.875H12.3259C11.4858 34.875 10.8024 34.1916 10.8024 33.3515V31.8045C11.2097 28.135 14.2981 25.3716 17.9986 25.3707C17.9992 25.3707 17.9999 25.3708 18.0005 25.3708C18.0011 25.3708 18.0018 25.3707 18.0023 25.3707C21.7028 25.3717 24.7912 28.135 25.1985 31.8045V33.3515ZM34.7212 30.8977C34.5675 31.106 34.3585 31.2116 34.0995 31.2116H26.2506C26.107 30.3621 25.8338 29.5455 25.4439 28.7877C26.4305 27.3476 28.0345 26.4968 29.7952 26.4968C32.1231 26.4968 34.1494 27.9894 34.8373 30.211C34.9139 30.4581 34.8748 30.6892 34.7212 30.8977Z" fill="#DF6D5D"/>
</g>
<defs>
<clipPath id="clip0_4857_152052">
<rect width="36" height="36" fill="white"/>
</clipPath>
</defs>
</svg>
