<svg width="20" height="20" viewBox="0 0 20 20" fill="none" xmlns="http://www.w3.org/2000/svg">
<g clip-path="url(#clip0_971_41757)">
<path d="M16.2114 8.67107C15.8878 8.67107 15.6255 8.93342 15.6255 9.25702V17.851C15.6255 18.3895 15.1874 18.8276 14.6489 18.8276H2.1485C1.61001 18.8276 1.17191 18.3895 1.17191 17.851V5.35065C1.17191 4.81216 1.61001 4.37406 2.1485 4.37406H10.7425C11.0661 4.37406 11.3285 4.11171 11.3285 3.7881C11.3285 3.4645 11.0661 3.20215 10.7425 3.20215H2.1485C0.963819 3.20215 0 4.16597 0 5.35065V17.851C0 19.0357 0.963819 19.9995 2.1485 19.9995H14.6489C15.8336 19.9995 16.7974 19.0357 16.7974 17.851V9.25702C16.7974 8.93342 16.535 8.67107 16.2114 8.67107Z" fill="black"/>
<path d="M19.6017 1.50472L18.4967 0.399798C17.9637 -0.133266 17.0963 -0.133266 16.5632 0.399798L7.72414 9.2389C7.64234 9.3207 7.58659 9.42488 7.56386 9.53833L7.01138 12.3006C6.97298 12.4927 7.0331 12.6913 7.17166 12.8298C7.28264 12.9408 7.43213 13.0014 7.58597 13.0014C7.62421 13.0014 7.66265 12.9977 7.70085 12.9901L10.4631 12.4376C10.5765 12.4149 10.6807 12.3591 10.7625 12.2773L19.6017 3.43825C19.6017 3.43825 19.6017 3.43825 19.6017 3.43821C20.1347 2.90519 20.1347 2.03782 19.6017 1.50472ZM10.0593 11.3232L8.33294 11.6685L8.67827 9.94217L15.8726 2.74768L17.2538 4.12882L10.0593 11.3232ZM18.773 2.60959L18.0824 3.30016L16.7013 1.91902L17.3918 1.2285C17.468 1.15232 17.5919 1.15228 17.6681 1.22846L18.773 2.33337C18.8492 2.40951 18.8492 2.53346 18.773 2.60959Z" fill="black"/>
</g>
<defs>
<clipPath id="clip0_971_41757">
<rect width="20" height="20" fill="white"/>
</clipPath>
</defs>
</svg>
