<svg width="194" height="67" viewBox="0 0 194 67" fill="none" xmlns="http://www.w3.org/2000/svg">
<g clip-path="url(#clip0_2160_68814)">
<path d="M22.3638 53.7503C22.6128 53.6751 22.8369 53.5998 23.1109 53.5496C23.3848 53.4743 23.6339 53.4492 23.8082 53.399V42.0316C23.2852 41.9563 22.8369 41.8309 22.3887 41.6803V41.4796H27.6434C29.1625 41.4796 30.2582 41.7807 30.9057 42.4582C31.5532 43.0855 31.9019 44.014 31.9019 45.1934C31.9019 46.3226 31.603 47.2762 30.9306 47.9537C30.2582 48.6312 29.3119 49.0327 28.0418 49.0327H25.3522V53.4241C25.8254 53.4994 26.3235 53.5998 26.7966 53.7754V53.9762H22.3638C22.3638 53.9511 22.3638 53.7503 22.3638 53.7503ZM27.743 48.3803C28.5897 48.3803 29.2621 48.0792 29.7104 47.4769C30.1337 46.8998 30.3579 46.0968 30.3579 45.1683C30.3579 44.2399 30.1586 43.462 29.7104 42.9601C29.287 42.4331 28.6395 42.1571 27.743 42.1571H25.4518V48.4305H27.743V48.3803Z" fill="#B44736"/>
<path d="M43.8053 53.7506V53.9513H41.2402L38.3514 48.6315H36.2595V53.4494C36.7077 53.5247 37.1809 53.6251 37.7039 53.8008V54.0015H33.1714V53.8008C33.3706 53.7255 33.6197 53.6502 33.8936 53.6C34.1675 53.5247 34.4166 53.4996 34.6158 53.4494V42.082C34.1426 42.0067 33.6446 41.9064 33.1963 41.7307V41.53H38.9989C40.3437 41.53 41.29 41.8311 41.9126 42.4584C42.4854 43.0858 42.8091 43.939 42.8091 45.0431C42.8091 46.0468 42.5601 46.8498 42.062 47.4521C41.539 48.0794 40.7919 48.4558 39.7958 48.5562L42.5352 53.4243C43.1329 53.5498 43.5811 53.6502 43.8053 53.7506ZM36.2595 47.979H38.5506C39.4471 47.979 40.1195 47.703 40.5429 47.176C40.9663 46.6491 41.1904 45.9214 41.1904 44.9929C41.1904 44.0644 40.9912 43.3367 40.5429 42.8599C40.1195 42.3832 39.4471 42.1322 38.5506 42.1322H36.2595V47.979Z" fill="#B44736"/>
<path d="M56.9299 53.7506V53.9513H52.497V53.7506C52.9204 53.6 53.3936 53.4746 53.9414 53.4495L52.9702 50.7394H47.6906L46.7194 53.4495C47.2423 53.5248 47.7155 53.6251 48.1887 53.8008V54.0015H44.3784V53.7506C44.5776 53.6753 44.8267 53.6 45.1006 53.5498C45.3746 53.4746 45.5738 53.4495 45.7979 53.3993L50.1312 41.4296H51.2269L55.5602 53.3993C56.0583 53.4746 56.5065 53.6 56.9299 53.7506ZM52.771 50.0869L50.3304 43.2113L47.8649 50.0869H52.771Z" fill="#B44736"/>
<path d="M57.752 53.7503C57.9512 53.6751 58.2002 53.5998 58.4742 53.5496C58.7481 53.4743 58.9971 53.4492 59.1715 53.399V42.0316C58.6236 41.9563 58.1504 41.8309 57.752 41.6803V41.4796H62.2595V41.7305C61.8362 41.8811 61.363 41.9814 60.8151 42.0316V48.1545L66.1445 42.3076C66.2192 42.2324 66.2441 42.1571 66.2441 42.132C66.2441 42.0316 66.0947 41.9563 65.7959 41.8811C65.5219 41.8058 65.2231 41.7807 64.9491 41.7807V41.5046H68.4855V41.7807C68.3858 41.8058 68.2364 41.8058 68.0621 41.856C67.8878 41.8811 67.7633 41.9312 67.6138 41.9563C67.4644 41.9814 67.3648 42.0567 67.2652 42.1571L63.1063 46.6488L68.3609 53.399C68.9337 53.4994 69.4318 53.5998 69.8303 53.7503V53.9511H67.041L62.1599 47.7028L60.7902 49.2335V53.4241C61.2634 53.4994 61.7615 53.5998 62.2346 53.7754V53.9762H57.7271L57.752 53.7503Z" fill="#B44736"/>
<path d="M82.7053 53.7506V53.9513H78.2724V53.7506C78.6958 53.6 79.169 53.4746 79.7168 53.4495L78.7456 50.7394H73.466L72.4948 53.4495C73.0177 53.5248 73.4909 53.6251 73.9641 53.8008V54.0015H70.1787V53.7506C70.3779 53.6753 70.627 53.6 70.9009 53.5498C71.1749 53.4746 71.3741 53.4495 71.5982 53.3993L75.9315 41.4296H77.0272L81.3605 53.3993C81.8586 53.4746 82.2819 53.6 82.7053 53.7506ZM78.5464 50.0869L76.1058 43.2113L73.6403 50.0869H78.5464Z" fill="#B44736"/>
<path d="M84.399 53.675C83.6768 53.3739 83.1289 52.9724 82.7056 52.4956L82.8799 50.0866H83.3033C83.4029 50.3877 83.5025 51.1155 83.6021 52.2698C83.9009 52.6462 84.2994 52.9222 84.7726 53.123C85.2457 53.3237 85.7936 53.4743 86.4162 53.4743C87.238 53.4743 87.9603 53.2735 88.533 52.8218C89.1058 52.3701 89.4296 51.7428 89.4296 50.9649C89.4296 50.4379 89.2801 49.9612 89.0062 49.6098C88.7323 49.2334 88.3836 48.9072 87.9852 48.6814C87.5618 48.4304 87.0139 48.1544 86.3415 47.8533C85.5944 47.502 84.9967 47.226 84.5235 46.9499C84.0753 46.6739 83.7017 46.3226 83.4029 45.9211C83.104 45.4694 82.9297 44.9424 82.9297 44.29C82.9297 43.3113 83.3033 42.5836 84.0255 42.0818C84.7477 41.5548 85.7687 41.3289 87.0388 41.3289C88.6576 41.3289 89.8529 41.7555 90.6748 42.6087L90.5004 44.6915H90.0771C89.9276 44.2398 89.8031 43.6125 89.7284 42.7593C89.4545 42.5083 89.1058 42.3076 88.7323 42.1821C88.3089 42.0316 87.9104 41.9814 87.4373 41.9814C86.5158 41.9814 85.7936 42.157 85.3205 42.5083C84.8473 42.8597 84.5983 43.3615 84.5983 44.0642C84.5983 44.4406 84.7477 44.7919 84.9718 45.093C85.2208 45.369 85.5197 45.6451 85.8683 45.8458C86.217 46.0466 86.7151 46.2975 87.3377 46.5735C88.1595 46.9248 88.807 47.2761 89.3051 47.5773C89.828 47.8784 90.2265 48.305 90.6 48.8319C90.9487 49.3589 91.1479 49.9612 91.1479 50.7391C91.1479 51.4417 90.9736 52.0439 90.6 52.5709C90.2265 53.0979 89.7035 53.4994 89.056 53.7754C88.4085 54.0514 87.6863 54.202 86.8645 54.202C85.943 54.1267 85.1212 53.9761 84.399 53.675Z" fill="#B44736"/>
<path d="M103.574 42.0569V53.3993C104.122 53.4745 104.595 53.6 105.019 53.7506V53.9513H100.586V53.7757C100.885 53.6753 101.134 53.5749 101.308 53.5247C101.482 53.4996 101.731 53.4494 101.956 53.4243V47.9539H95.5055V53.4243C96.0534 53.5247 96.5266 53.6251 96.8752 53.7757V53.9764H92.4424V53.7757C92.8906 53.6 93.3638 53.4996 93.8619 53.4745V42.1071C93.3389 42.0318 92.8906 41.9064 92.4424 41.7558V41.5551H96.8752V41.7558C96.5764 41.8562 96.3274 41.9566 96.153 42.0067C95.9787 42.0318 95.7795 42.082 95.5055 42.1071V47.3266H101.956V42.082C101.582 42.0067 101.109 41.9064 100.586 41.7307V41.53H105.019V41.7809C104.496 41.9064 104.023 42.0318 103.574 42.0569Z" fill="#B44736"/>
<path d="M110.772 53.5498L118.143 42.1824H112.316C112.291 42.4333 112.241 42.7596 112.142 43.2112C112.042 43.6629 111.942 43.939 111.868 44.1146H111.494V41.53H119.912V41.8311L112.49 53.3742H118.791C118.816 53.0981 118.891 52.797 119.065 52.3453C119.214 51.9187 119.339 51.6176 119.488 51.442H119.862L119.588 54.0015H110.772V53.5498Z" fill="#B44736"/>
<path d="M133.185 53.7506V53.9513H128.752V53.7506C129.176 53.6 129.649 53.4746 130.197 53.4495L129.226 50.7394H123.946L122.975 53.4495C123.498 53.5248 123.971 53.6251 124.444 53.8008V54.0015H120.659V53.7506C120.858 53.6753 121.107 53.6 121.381 53.5498C121.655 53.4746 121.854 53.4495 122.078 53.3993L126.411 41.4296H127.507L131.84 53.3993C132.314 53.4746 132.787 53.6 133.185 53.7506ZM129.051 50.0869L126.611 43.2113L124.145 50.0869H129.051Z" fill="#B44736"/>
<path d="M132.313 42.0564C131.79 41.9811 131.342 41.8557 130.968 41.7051V41.5044H135.351V41.7553C134.928 41.9059 134.455 42.0313 133.882 42.0564L137.344 52.6459L140.805 42.0564C140.183 41.9811 139.709 41.8557 139.336 41.7051V41.5044H143.121V41.7553C142.648 41.931 142.2 42.0564 141.776 42.1317L137.692 54.0763H136.397L132.313 42.0564Z" fill="#B44736"/>
<path d="M153.457 51.3913L153.208 53.9508H144.192V53.7501C144.666 53.5744 145.164 53.474 145.662 53.3987V42.0564C145.238 42.0313 144.74 41.8808 144.192 41.7051V41.5044H153.208V44.089H152.834C152.734 43.9134 152.635 43.6122 152.56 43.1856C152.46 42.734 152.386 42.3826 152.386 42.1568H147.305V47.5268H150.966C150.991 47.3261 151.041 47.0752 151.116 46.774C151.19 46.498 151.265 46.2471 151.315 46.0463H151.589V49.6347H151.315C151.24 49.434 151.165 49.183 151.116 48.907C151.066 48.631 151.016 48.3549 150.966 48.1793H147.305V53.3737H152.411C152.411 53.1227 152.51 52.7965 152.66 52.3699C152.809 51.9433 152.934 51.6422 153.083 51.4414L153.457 51.3913Z" fill="#B44736"/>
<path d="M165.66 53.7506V53.9513H163.095L160.206 48.6315H158.114V53.4494C158.562 53.5247 159.035 53.6251 159.558 53.8008V54.0015H155.051V53.8008C155.25 53.7255 155.499 53.6502 155.773 53.6C156.047 53.5247 156.296 53.4996 156.495 53.4494V42.082C156.022 42.0067 155.524 41.9064 155.076 41.7307V41.53H160.878C162.223 41.53 163.169 41.8311 163.792 42.4584C164.365 43.0858 164.689 43.939 164.689 45.0431C164.689 46.0468 164.439 46.8498 163.941 47.4521C163.443 48.0543 162.671 48.4558 161.675 48.5562L164.415 53.4243C164.987 53.5498 165.386 53.6502 165.66 53.7506ZM158.089 47.979H160.38C161.277 47.979 161.949 47.703 162.372 47.176C162.796 46.6491 163.02 45.9214 163.02 44.9929C163.02 44.0644 162.821 43.3367 162.372 42.8599C161.949 42.3832 161.277 42.1322 160.38 42.1322H158.089V47.979Z" fill="#B44736"/>
<path d="M166.88 53.7506C167.403 53.6 167.877 53.4745 168.325 53.4494V42.082C167.852 42.0067 167.354 41.9064 166.88 41.7307V41.53H171.388V41.7809C170.965 41.9315 170.491 42.0318 169.944 42.082V53.4494C170.417 53.5247 170.915 53.6251 171.388 53.8008V54.0015H166.88V53.7506Z" fill="#B44736"/>
<path d="M126.337 0.802957C121.68 7.65353 117.347 14.0273 113.014 20.4011C110.872 23.5629 108.556 26.6494 106.613 29.9367C105.318 32.1198 103.749 32.9479 101.334 32.6719C99.9391 32.4963 98.4698 32.6468 96.6519 32.6468C97.3243 31.4925 97.7974 30.6644 98.3453 29.8614C104.223 21.179 110.175 12.5468 115.952 3.81421C117.397 1.60595 118.866 0.326178 121.605 0.777863C122.95 0.978612 124.345 0.802957 126.337 0.802957Z" fill="#B44736"/>
<path d="M74.0141 32.5966C71.6731 32.5966 69.5065 32.5966 67.1157 32.5966C67.1157 22.0825 67.1157 11.6185 67.1157 0.97876C69.3571 0.97876 71.5984 0.97876 74.0141 0.97876C74.0141 11.3926 74.0141 21.8567 74.0141 32.5966Z" fill="#B44736"/>
<path d="M81.0361 20.9782C85.9422 13.9018 85.9422 7.95459 81.1856 0.928362C85.1951 0.326115 88.3827 1.5808 90.5992 4.89317C92.9899 8.45646 93.0895 12.3209 91.147 16.0849C89.08 19.9995 85.5188 21.2291 81.0361 20.9782Z" fill="#B44736"/>
<path d="M114.358 32.496C119.388 30.0619 122.95 26.323 125.39 21.3796C125.589 21.4549 125.789 21.5301 125.988 21.6054C125.789 24.968 125.614 28.3305 125.316 31.6679C125.291 31.9941 124.519 32.4709 124.07 32.4709C120.858 32.5462 117.62 32.496 114.358 32.496Z" fill="#B44736"/>
<path d="M96.2275 11.5933C96.4517 8.10525 96.6509 4.66742 96.875 1.00375C100.586 1.00375 104.197 1.00375 108.505 1.00375C102.877 3.23709 99.2409 6.90076 96.8501 11.8693C96.626 11.794 96.4268 11.6685 96.2275 11.5933Z" fill="#B44736"/>
<path d="M54.514 63.186H30.2329V64.1396H54.514V63.186Z" fill="#B44736"/>
<path d="M165.162 63.186H140.88V64.1396H165.162V63.186Z" fill="#B44736"/>
<path d="M59.9182 60.4759C59.8933 60.4759 59.8435 60.4759 59.719 60.501C59.6692 60.501 59.5945 60.501 59.5198 60.501C59.4201 60.501 59.3205 60.5261 59.196 60.5261H56.5313C56.3072 60.5261 56.1329 60.5261 56.0083 60.501C55.9087 60.4759 55.834 60.4759 55.7842 60.4508C55.7344 60.4257 55.7095 60.4257 55.6597 60.4257C55.5601 60.4257 55.5352 60.5261 55.5103 60.5763V60.6014L55.4854 60.6516V60.7018C55.4854 60.7268 55.4356 60.9276 55.4106 61.0531C55.3608 61.304 55.3359 61.4044 55.3359 61.4546C55.3359 61.5549 55.4106 61.6302 55.5103 61.6302C55.6099 61.6302 55.6597 61.6051 55.6846 61.5298C55.7095 61.4797 55.7344 61.4546 55.7593 61.4044C55.7842 61.3793 55.7842 61.3291 55.8091 61.304C55.8838 61.1785 56.0083 61.1283 56.4317 61.1283L57.3282 61.1033V63.8636C57.3282 64.516 57.3282 65.0931 57.3033 65.3441C57.2784 65.5448 57.2535 65.595 57.2286 65.6201C57.2037 65.6201 57.1539 65.6201 57.1041 65.6452C57.0792 65.6452 57.0543 65.6452 57.0294 65.6452C56.9298 65.6452 56.8551 65.7205 56.8551 65.8209C56.8551 65.8961 56.9298 65.9965 57.1041 65.9965C57.2784 65.9965 57.6022 65.9714 57.7516 65.9714H57.8512C57.8761 65.9714 57.9259 65.9714 58.0006 65.9714C58.175 65.9714 58.4738 65.9965 58.7477 65.9965C58.9719 65.9965 58.9968 65.871 58.9968 65.8209C58.9968 65.6954 58.8972 65.6452 58.8225 65.6452C58.673 65.6452 58.5734 65.6452 58.5236 65.6201C58.4738 65.6201 58.424 65.595 58.3991 65.5699C58.3244 65.4946 58.3244 65.3943 58.3493 65.3692C58.3493 65.1935 58.2995 64.5913 58.2248 63.7381V61.1033L58.9968 61.1283C59.6941 61.1283 59.719 61.304 59.719 61.3793V61.4546C59.719 61.6804 59.8435 61.7055 59.8933 61.7055C59.968 61.7055 60.0676 61.6302 60.0676 61.5047C60.0676 61.4546 60.0676 61.3542 60.0676 61.2287C60.0676 61.0531 60.0926 60.8272 60.0926 60.7268C60.0676 60.501 59.9929 60.4759 59.9182 60.4759Z" fill="#B44736"/>
<path d="M66.244 65.5953C66.1941 65.5953 66.1443 65.5953 66.0198 65.5702C65.8704 65.5451 65.6712 65.4698 65.3225 65.1185C64.949 64.7672 64.5505 64.2402 64.0773 63.638L63.9279 63.4372C64.4758 62.9353 64.7248 62.4586 64.7248 61.8563C64.7248 61.2039 64.2766 60.8526 64.2018 60.8024C63.8034 60.5263 63.2804 60.5013 62.8072 60.5013C62.6329 60.5013 62.359 60.5012 62.1348 60.5263C62.0103 60.5263 61.9356 60.5263 61.9107 60.5263H61.836C61.6866 60.5263 61.3379 60.5013 61.0889 60.5013C60.8647 60.5013 60.8398 60.6267 60.8398 60.6769C60.8398 60.7773 60.9146 60.8526 61.0142 60.8526C61.0391 60.8526 61.064 60.8526 61.1138 60.8526C61.1636 60.8526 61.2134 60.8777 61.2383 60.8777C61.3628 60.9027 61.3877 60.9027 61.4126 61.1537C61.4375 61.3544 61.4375 61.5552 61.4375 62.584L61.4873 63.7634C61.4873 64.441 61.4873 64.993 61.4624 65.244V65.2941C61.4375 65.4698 61.4375 65.4949 61.4126 65.4949C61.3628 65.4949 61.313 65.4949 61.2632 65.52C61.2383 65.52 61.2134 65.52 61.1885 65.52C61.0889 65.52 61.0142 65.5953 61.0142 65.6956C61.0142 65.7709 61.0889 65.8713 61.2632 65.8713C61.4624 65.8713 61.9107 65.8462 61.9356 65.8462H61.9854C62.1348 65.8462 62.4835 65.8713 62.7823 65.8713C63.0065 65.8713 63.0314 65.7458 63.0314 65.6956C63.0314 65.5702 62.9318 65.52 62.857 65.52C62.7076 65.52 62.608 65.52 62.5582 65.4949C62.4337 65.4698 62.4088 65.4196 62.3839 65.2189C62.359 64.9679 62.359 64.4159 62.359 63.7634V63.7383L63.1808 63.7634C63.3302 63.9391 63.6291 64.3155 63.9279 64.7421C64.3015 65.244 64.5754 65.5953 64.9241 65.7709C65.1233 65.9215 65.3474 65.9466 65.7459 65.9466H66.1692C66.244 65.9466 66.4681 65.9466 66.4681 65.7709C66.4183 65.6454 66.3187 65.5953 66.244 65.5953ZM63.4049 63.1612C63.2555 63.2615 63.0812 63.2616 62.9318 63.2616C62.6578 63.2616 62.359 63.2114 62.2344 63.1612V61.0282C62.2594 61.0282 62.3092 61.0282 62.3341 61.0282C62.4337 61.0282 62.5582 61.0031 62.6827 61.0031C63.38 61.0031 63.7785 61.4548 63.7785 62.2327C63.7785 62.6342 63.6291 62.9855 63.4049 63.1612Z" fill="#B44736"/>
<path d="M71.2244 60.5261C71.075 60.5261 70.8758 60.5261 70.7513 60.5512C70.7014 60.5512 70.6516 60.5512 70.6267 60.5512C70.6018 60.5512 70.5769 60.5512 70.5271 60.5512C70.3777 60.5512 70.1038 60.5261 69.8547 60.5261C69.6306 60.5261 69.6057 60.6515 69.6057 60.7017C69.6057 60.8021 69.6804 60.8774 69.78 60.8774C69.8049 60.8774 69.8298 60.8774 69.8796 60.8774C69.9294 60.8774 69.9792 60.9025 70.0041 60.9025C70.1287 60.9276 70.1785 60.9527 70.1785 61.1785C70.2034 61.3792 70.2034 61.58 70.2034 62.6088V63.462C70.2034 64.0392 70.1536 64.6414 69.8298 65.0429C69.5808 65.3189 69.2072 65.4695 68.8337 65.4695C68.4352 65.4695 68.1862 65.4193 67.8624 65.1182C67.6383 64.9174 67.3892 64.5912 67.3892 63.5624V62.6088C67.3892 61.58 67.3893 61.3792 67.4142 61.1534C67.4142 60.9276 67.464 60.9025 67.5387 60.9025C67.6134 60.8774 67.6383 60.8774 67.6881 60.8774C67.7877 60.8774 67.8624 60.8021 67.8624 60.7017C67.8624 60.6264 67.7877 60.5261 67.6134 60.5261C67.4889 60.5261 67.2149 60.5261 67.0406 60.5512C66.9659 60.5512 66.8912 60.5512 66.8912 60.5512C66.8663 60.5512 66.8414 60.5512 66.7667 60.5512C66.6172 60.5512 66.3184 60.5261 66.0943 60.5261C65.8701 60.5261 65.8452 60.6515 65.8452 60.7017C65.8452 60.8021 65.9199 60.8774 66.0195 60.8774C66.0444 60.8774 66.0693 60.8774 66.1192 60.8774C66.169 60.8774 66.2188 60.9025 66.2437 60.9025C66.3682 60.9276 66.3931 60.9276 66.418 61.1785C66.4429 61.3792 66.4429 61.58 66.4429 62.6088C66.418 63.0605 66.418 64.4156 66.9908 65.2186C67.0406 65.2688 67.1153 65.3942 67.2398 65.5197C67.713 65.9714 68.4601 66.0216 68.759 66.0216C69.2321 66.0216 69.78 65.9714 70.3279 65.5197C70.9505 65.0178 71.0252 64.1395 71.0252 63.3616V62.6088C71.0252 62.1571 71.0252 61.856 71.0252 61.6553C71.0252 61.4043 71.0252 61.2789 71.0252 61.1785C71.0501 60.9276 71.075 60.9276 71.1746 60.9025C71.2493 60.8774 71.2742 60.8774 71.324 60.8774C71.4236 60.8774 71.4984 60.8021 71.4984 60.7017C71.4735 60.6264 71.3987 60.5261 71.2244 60.5261Z" fill="#B44736"/>
<path d="M73.8395 62.6839L73.6402 62.5333C72.9429 62.0566 72.7686 61.8558 72.7686 61.4794C72.7686 61.0277 73.192 60.8521 73.5904 60.8521C74.1881 60.8521 74.3873 61.103 74.4122 61.1532C74.4621 61.2285 74.5119 61.379 74.5119 61.4292C74.5119 61.6049 74.6115 61.63 74.6862 61.63C74.8605 61.63 74.8605 61.4794 74.8605 61.3539C74.8605 60.9775 74.8854 60.7517 74.8854 60.6764C74.8854 60.6513 74.8854 60.6262 74.8854 60.6262C74.8854 60.5509 74.8605 60.4506 74.6862 60.4506C74.6364 60.4506 74.5866 60.4506 74.4621 60.4255C74.2877 60.3753 73.9889 60.3502 73.69 60.3502C72.669 60.3502 71.9966 60.9022 71.9966 61.7805C71.9966 62.3326 72.2954 62.7843 73.0425 63.3363L73.3663 63.5622C74.0138 64.039 74.213 64.2397 74.213 64.6663C74.213 65.1682 73.8644 65.4693 73.2916 65.4693C72.8931 65.4693 72.395 65.3187 72.2954 64.8921C72.2705 64.8169 72.2705 64.7165 72.2705 64.6663C72.2705 64.3903 71.9219 64.3652 71.9219 64.7165C71.9219 64.7667 71.9219 64.8169 71.9219 64.8921C71.9219 65.0176 71.897 65.2184 71.897 65.4442C71.897 65.67 71.9717 65.7202 72.0713 65.7955C72.2705 65.921 72.5694 65.9712 72.8184 65.9712C72.918 65.9712 73.0425 65.9712 73.1422 65.9461C73.5406 65.9461 74.0138 65.921 74.3126 65.6951C74.7858 65.3689 75.0099 64.9423 75.0099 64.4154C75.0348 63.7629 74.6862 63.2611 73.8395 62.6839Z" fill="#B44736"/>
<path d="M80.2146 60.4759C80.1897 60.4759 80.1399 60.4759 80.0154 60.501C79.9656 60.501 79.8909 60.501 79.8161 60.501C79.7165 60.501 79.6169 60.5261 79.4924 60.5261H76.8277C76.6036 60.5261 76.4292 60.5261 76.3047 60.501C76.2051 60.4759 76.1304 60.4759 76.0806 60.4508C76.0308 60.4257 76.0059 60.4257 75.9561 60.4257C75.8565 60.4257 75.8315 60.5261 75.8066 60.5763V60.6014L75.7817 60.6516V60.7018C75.7817 60.7268 75.7319 60.9276 75.707 61.0531C75.6572 61.304 75.6323 61.4044 75.6323 61.4546C75.6323 61.5549 75.707 61.6302 75.8066 61.6302C75.9063 61.6302 75.9561 61.6051 75.981 61.5298C76.0059 61.4797 76.0308 61.4546 76.0557 61.4044C76.0806 61.3793 76.0806 61.3291 76.1055 61.304C76.1802 61.1785 76.3047 61.1283 76.7281 61.1283L77.6246 61.1033V63.8636C77.6246 64.516 77.6246 65.0931 77.5997 65.3441C77.5748 65.5448 77.5499 65.595 77.525 65.6201C77.5001 65.6201 77.4503 65.6201 77.4005 65.6452C77.3756 65.6452 77.3507 65.6452 77.3258 65.6452C77.2262 65.6452 77.1514 65.7205 77.1514 65.8209C77.1514 65.8961 77.2262 65.9965 77.4005 65.9965C77.5748 65.9965 77.8986 65.9714 78.048 65.9714H78.1476C78.1725 65.9714 78.2223 65.9714 78.297 65.9714C78.4713 65.9714 78.7702 65.9965 79.0441 65.9965C79.2683 65.9965 79.2932 65.871 79.2932 65.8209V65.7456L79.2434 65.6954C79.1936 65.6452 79.1188 65.6452 79.0939 65.6452C78.9445 65.6452 78.8449 65.6452 78.7951 65.6201C78.7453 65.6201 78.6955 65.595 78.6706 65.5699C78.5959 65.4946 78.5959 65.3943 78.6208 65.3692C78.6208 65.1935 78.571 64.5913 78.4963 63.7381V61.1033L79.2683 61.1283C79.9656 61.1283 79.9905 61.304 79.9905 61.3793V61.4546C79.9905 61.6804 80.115 61.7055 80.1648 61.7055C80.2395 61.7055 80.3391 61.6302 80.3391 61.5047C80.3391 61.4546 80.3391 61.3542 80.3391 61.2287C80.3391 61.0531 80.364 60.8272 80.364 60.7268C80.364 60.501 80.2893 60.4759 80.2146 60.4759Z" fill="#B44736"/>
<path d="M84.4982 64.8673C84.3737 64.8673 84.3239 64.9928 84.3239 65.043L84.299 65.0932C84.2492 65.3441 84.1745 65.4194 84.05 65.4696C83.8756 65.5448 83.527 65.5448 83.3776 65.5448C82.7301 65.5448 82.7052 65.4696 82.6803 65.1183V63.437C82.9293 63.437 83.4772 63.437 83.6515 63.4621C83.8756 63.4872 83.9005 63.5374 83.9254 63.5875C83.9503 63.6377 83.9504 63.7381 83.9504 63.7632C83.9504 63.8636 84.0251 63.9388 84.1247 63.9388C84.2492 63.9388 84.299 63.7883 84.299 63.6879C84.299 63.6377 84.299 63.4119 84.3239 63.2864C84.3488 63.1609 84.3488 63.0606 84.3737 62.9853C84.3737 62.9351 84.3737 62.91 84.3737 62.91L84.3986 62.8347L84.3737 62.7845C84.3488 62.7344 84.299 62.7344 84.2492 62.7344C84.1496 62.7344 84.0998 62.7845 84.05 62.8347C84.0251 62.8598 83.9503 62.8598 83.8756 62.8849L83.7511 62.91C83.6515 62.9351 83.1783 62.9351 82.7052 62.9351V61.1785C83.1783 61.1785 83.5519 61.1786 83.6266 61.2036C84.0002 61.2287 84.0251 61.2789 84.05 61.3291C84.05 61.3291 84.0749 61.3793 84.0749 61.5048C84.0749 61.6302 84.1745 61.7055 84.2492 61.7055C84.3488 61.7055 84.4235 61.58 84.4235 61.5048C84.4235 61.4546 84.4235 61.3542 84.4484 61.2538C84.4484 61.1535 84.4484 61.0782 84.4484 61.0782C84.4733 60.9778 84.4733 60.9025 84.4733 60.8523C84.4733 60.8021 84.4982 60.752 84.4982 60.7269C84.4982 60.5512 84.3737 60.5512 84.3488 60.5512C84.299 60.5512 84.2741 60.5763 84.2492 60.5763C84.2243 60.5763 84.1745 60.5763 84.1496 60.5763C84.0998 60.5763 84.0251 60.6014 83.9504 60.6014H82.1822C82.1573 60.6014 82.1324 60.6014 82.0577 60.6014C81.8833 60.6014 81.5845 60.5763 81.3604 60.5763C81.1362 60.5763 81.1113 60.7018 81.1113 60.752C81.1113 60.8523 81.186 60.9276 81.2856 60.9276C81.3106 60.9276 81.3355 60.9276 81.3853 60.9276C81.4351 60.9276 81.4849 60.9527 81.5098 60.9527C81.5596 60.9527 81.5845 60.9527 81.6094 60.9778C81.6841 61.0531 81.6841 61.1786 81.6841 61.2036C81.6592 61.4044 81.709 63.0857 81.7837 65.4445V65.4947C81.7588 65.6703 81.7588 65.6954 81.7339 65.6954C81.6841 65.6954 81.6343 65.6954 81.5845 65.7205C81.5596 65.7205 81.5347 65.7205 81.5098 65.7205C81.4102 65.7205 81.3355 65.7958 81.3355 65.8962C81.3355 65.9714 81.4102 66.0718 81.5845 66.0718C81.6592 66.0718 81.709 66.0718 81.7837 66.0718C81.8584 66.0718 81.9082 66.0467 81.983 66.0467H82.3067C82.4063 66.0467 82.6055 66.0467 82.8795 66.0718C83.004 66.0718 83.1285 66.0718 83.2779 66.0718C83.5021 66.0718 83.776 66.0969 84.0998 66.0969C84.3737 66.0969 84.548 66.0969 84.6227 65.8209C84.6477 65.6954 84.6975 65.2186 84.6975 65.1433C84.6726 64.9426 84.5729 64.8673 84.4982 64.8673Z" fill="#B44736"/>
<path d="M87.6862 60.5261H87.5616C87.2877 60.5261 86.9639 60.5261 86.7647 60.5512C86.69 60.5512 86.6153 60.5512 86.6153 60.5512C86.5904 60.5512 86.5655 60.5512 86.4908 60.5512C86.3164 60.5512 86.0176 60.5261 85.7935 60.5261C85.5693 60.5261 85.5444 60.6515 85.5444 60.7017C85.5444 60.8021 85.6191 60.8774 85.7188 60.8774C85.7437 60.8774 85.7686 60.8774 85.8184 60.8774C85.8682 60.8774 85.918 60.9025 85.9429 60.9025C86.0674 60.9276 86.0923 60.9276 86.1172 61.1785C86.1421 61.3792 86.1421 61.58 86.1421 62.6088V63.8635C86.1421 64.541 86.1421 65.0931 86.1172 65.344V65.3942C86.0923 65.5699 86.0923 65.595 86.0674 65.595C86.0176 65.595 85.9678 65.595 85.918 65.6201C85.8931 65.6201 85.8682 65.6201 85.8433 65.6201C85.7437 65.6201 85.669 65.6953 85.669 65.7957C85.669 65.871 85.7437 65.9714 85.918 65.9714C85.9678 65.9714 86.0425 65.9714 86.1172 65.9714C86.1919 65.9714 86.2666 65.9463 86.3414 65.9463H86.6153C86.6651 65.9463 86.8892 65.9463 87.1881 65.9714C87.3375 65.9714 87.4869 65.9714 87.6613 65.9714C87.8356 65.9714 88.0099 65.9965 88.1593 65.9965C89.1057 65.9965 89.8528 65.7204 90.4007 65.1935C90.6497 64.9425 91.1976 64.265 91.1976 63.1609C91.1976 62.1822 90.7493 61.58 90.5003 61.304C89.6535 60.5261 88.4084 60.5261 87.6862 60.5261ZM89.6785 64.8673C89.28 65.2437 88.7321 65.4695 88.1095 65.4695C87.213 65.4695 87.0636 65.2939 87.0387 65.2437C87.0138 65.2186 86.9888 65.0429 86.9888 64.8422V61.0279C86.9888 61.0028 86.9888 60.9777 86.9888 60.9777C87.0387 60.9527 87.213 60.9276 87.3624 60.9276C88.2838 60.9276 88.9811 61.053 89.5539 61.6553C89.7781 61.9062 90.1765 62.4583 90.1765 63.3115C90.1765 63.989 89.9773 64.5912 89.6785 64.8673Z" fill="#B44736"/>
<path d="M96.4025 62.6839L96.2032 62.5333C95.5059 62.0566 95.3316 61.8558 95.3316 61.4794C95.3316 61.0277 95.755 60.8521 96.1534 60.8521C96.7511 60.8521 96.9503 61.103 96.9752 61.1532C97.025 61.2285 97.0749 61.379 97.0749 61.4292C97.0749 61.6049 97.1745 61.63 97.2492 61.63C97.4235 61.63 97.4235 61.4794 97.4235 61.3539C97.4235 60.9775 97.4484 60.7517 97.4484 60.6764C97.4484 60.6513 97.4484 60.6262 97.4484 60.6262C97.4484 60.5509 97.4235 60.4506 97.2492 60.4506C97.1994 60.4506 97.1496 60.4506 97.025 60.4255C96.8507 60.3753 96.5519 60.3502 96.253 60.3502C95.232 60.3502 94.5596 60.9022 94.5596 61.7805C94.5596 62.3326 94.8584 62.7843 95.6055 63.3363L95.9293 63.5622C96.5768 64.039 96.776 64.2397 96.776 64.6663C96.776 65.1682 96.4274 65.4693 95.8546 65.4693C95.4561 65.4693 94.958 65.3187 94.8584 64.8921C94.8335 64.8169 94.8335 64.7165 94.8335 64.6663C94.8335 64.3903 94.4849 64.3652 94.4849 64.7165C94.4849 64.7667 94.4849 64.8169 94.4849 64.8921C94.4849 65.0176 94.46 65.2184 94.46 65.4442C94.46 65.67 94.5347 65.7202 94.6343 65.7955C94.8335 65.921 95.1075 65.9712 95.3814 65.9712C95.5059 65.9712 95.6055 65.9712 95.7051 65.9461C96.1036 65.9461 96.5768 65.921 96.8756 65.6951C97.3488 65.3689 97.5729 64.9423 97.5729 64.4154C97.5978 63.7629 97.2492 63.2611 96.4025 62.6839Z" fill="#B44736"/>
<path d="M100.587 65.6201C100.512 65.6201 100.387 65.6201 100.288 65.595C100.188 65.5699 100.163 65.5197 100.138 65.3189C100.113 65.0178 100.113 64.4658 100.113 63.8133V61.1785C100.138 60.9276 100.163 60.9276 100.263 60.9025C100.337 60.8774 100.362 60.8774 100.412 60.8774C100.512 60.8774 100.587 60.8021 100.587 60.7017C100.587 60.6264 100.512 60.5261 100.337 60.5261C100.138 60.5261 99.8394 60.5512 99.69 60.5512H99.6153C99.5904 60.5512 99.5406 60.5512 99.4659 60.5512C99.2915 60.5512 99.0425 60.5261 98.8931 60.5261C98.6689 60.5261 98.644 60.6515 98.644 60.7017C98.644 60.8021 98.7187 60.8774 98.8184 60.8774C98.8682 60.8774 98.9429 60.8774 99.0176 60.9025C99.0674 60.9025 99.1172 60.9276 99.1421 61.1785C99.167 61.3792 99.167 61.58 99.167 62.6088V63.8133C99.167 64.4658 99.167 65.0429 99.1421 65.3189C99.1421 65.5699 99.0923 65.5699 99.0923 65.5699C99.0425 65.5699 98.9927 65.5699 98.9429 65.595C98.918 65.595 98.8931 65.595 98.8682 65.595C98.7686 65.595 98.6938 65.6703 98.6938 65.7706C98.6938 65.8459 98.7686 65.9463 98.9429 65.9463C99.0923 65.9463 99.3663 65.9212 99.5157 65.9212C99.5655 65.9212 99.5904 65.9212 99.6153 65.9212C99.6153 65.9212 99.6651 65.9212 99.7149 65.9212C99.8892 65.9212 100.213 65.9463 100.512 65.9463C100.736 65.9463 100.761 65.8208 100.761 65.7706C100.761 65.6954 100.686 65.6201 100.587 65.6201Z" fill="#B44736"/>
<path d="M107.086 60.5008C106.912 60.5008 106.763 60.5008 106.638 60.5258C106.513 60.5258 106.464 60.5258 106.314 60.5258C106.165 60.5258 105.966 60.5008 105.741 60.5008C105.492 60.5008 105.468 60.6262 105.468 60.6764V60.7517L105.492 60.8019C105.542 60.8521 105.617 60.8521 105.642 60.8521C105.717 60.8521 105.841 60.8521 105.966 60.8772C106.04 60.8772 106.115 60.9023 106.115 61.379L106.19 64.4655C105.866 64.1142 105.293 63.512 104.77 62.9348L104.048 62.1569C103.276 61.3288 102.653 60.7015 102.554 60.576C102.529 60.5509 102.504 60.5258 102.479 60.5008C102.404 60.4255 102.305 60.3502 102.205 60.3502C102.006 60.3502 102.006 60.6262 102.006 60.827V64.7667C102.006 65.3689 101.981 65.4693 101.906 65.4944C101.832 65.5195 101.707 65.5195 101.657 65.5195C101.558 65.5195 101.483 65.5948 101.483 65.6951C101.483 65.8708 101.657 65.8708 101.732 65.8708C101.931 65.8708 102.13 65.8708 102.28 65.8457C102.355 65.8457 102.379 65.8457 102.404 65.8457C102.429 65.8457 102.454 65.8457 102.529 65.8457C102.653 65.8457 102.878 65.8708 103.151 65.8708C103.326 65.8708 103.4 65.7704 103.4 65.6951C103.4 65.5948 103.326 65.5195 103.226 65.5195C103.151 65.5195 103.002 65.5195 102.902 65.4944C102.828 65.4944 102.753 65.4442 102.728 64.8419L102.628 61.9311C103.002 62.3326 103.6 63.0101 104.222 63.6375C104.92 64.4154 105.966 65.4442 106.04 65.4944C106.464 65.8959 106.538 65.9461 106.663 65.9461C106.837 65.9461 106.837 65.8708 106.837 65.3438L106.862 61.3288C106.862 60.8772 106.887 60.8772 107.012 60.8521C107.086 60.827 107.136 60.827 107.161 60.827C107.285 60.827 107.36 60.7266 107.36 60.6513C107.335 60.5008 107.161 60.5008 107.086 60.5008Z" fill="#B44736"/>
<path d="M112.789 64.4154C112.665 64.4154 112.64 64.4906 112.59 64.591C112.565 64.7165 112.466 64.9674 112.341 65.0929C112.092 65.3689 111.768 65.3689 111.27 65.3689C109.901 65.3689 108.855 64.3652 108.855 63.0101C108.855 62.4079 108.929 61.7805 109.452 61.3288C109.651 61.1281 110 60.8772 110.946 60.8772C111.569 60.8772 112.042 61.0528 112.266 61.2285C112.366 61.3288 112.49 61.5798 112.49 61.8056C112.49 61.906 112.49 62.0816 112.665 62.0816C112.789 62.0816 112.864 62.0064 112.864 61.8307C112.889 61.7303 112.889 61.5045 112.889 61.1281C112.889 60.9775 112.889 60.9022 112.914 60.827C112.914 60.8019 112.914 60.7768 112.914 60.7517C112.914 60.6262 112.839 60.5509 112.74 60.5509C112.615 60.5258 112.49 60.5008 112.366 60.4757C112.241 60.4506 112.142 60.4506 112.017 60.4255C111.694 60.3753 111.295 60.3502 110.971 60.3502C110.025 60.3502 109.303 60.6011 108.755 61.1281C108.132 61.7303 107.908 62.5333 107.908 63.0854C107.908 63.9637 108.207 64.6914 108.805 65.2184C109.402 65.7453 110.125 65.9712 111.071 65.9712C111.121 65.9712 111.171 65.9712 111.22 65.9712C111.893 65.9712 112.316 65.921 112.565 65.8206C112.715 65.7704 112.789 65.6951 112.814 65.5446C112.914 65.2435 112.989 64.6412 112.989 64.591C112.964 64.5408 112.889 64.4154 112.789 64.4154Z" fill="#B44736"/>
<path d="M117.197 64.8673C117.072 64.8673 117.023 64.9927 117.023 65.0429L116.998 65.0931C116.948 65.344 116.873 65.4193 116.749 65.4695C116.574 65.5448 116.226 65.5448 116.076 65.5448C115.429 65.5448 115.404 65.4695 115.379 65.1182V63.4369C115.777 63.4369 116.201 63.4369 116.35 63.462C116.574 63.4871 116.599 63.5373 116.624 63.5875C116.649 63.6377 116.649 63.738 116.649 63.7631C116.649 63.8635 116.724 63.9388 116.823 63.9388C116.948 63.9388 116.998 63.7882 116.998 63.6879C116.998 63.6377 116.998 63.4118 117.023 63.2864C117.048 63.1609 117.048 63.0605 117.072 62.9852C117.072 62.9351 117.072 62.91 117.072 62.8849C117.072 62.7092 116.948 62.7092 116.923 62.7092C116.823 62.7092 116.774 62.7594 116.724 62.8096C116.699 62.8347 116.624 62.8347 116.549 62.8598L116.425 62.8849C116.325 62.91 115.852 62.91 115.379 62.91V61.1534C115.852 61.1534 116.226 61.1534 116.3 61.1785C116.674 61.2036 116.699 61.2538 116.724 61.304C116.724 61.304 116.749 61.3542 116.749 61.4796C116.749 61.6051 116.848 61.6804 116.923 61.6804C117.023 61.6804 117.097 61.5549 117.097 61.4796C117.097 61.4294 117.097 61.3291 117.122 61.2287C117.122 61.1283 117.122 61.053 117.122 61.053C117.147 60.9527 117.147 60.8774 117.147 60.8272C117.147 60.777 117.172 60.7268 117.172 60.7017C117.172 60.5261 117.048 60.5261 117.023 60.5261C116.973 60.5261 116.948 60.5512 116.923 60.5512C116.898 60.5512 116.848 60.5512 116.823 60.5512C116.774 60.5512 116.699 60.5762 116.624 60.5762H114.931C114.906 60.5762 114.881 60.5762 114.806 60.5762C114.632 60.5762 114.333 60.5512 114.109 60.5512C113.885 60.5512 113.86 60.6766 113.86 60.7268C113.86 60.8272 113.935 60.9025 114.034 60.9025C114.059 60.9025 114.084 60.9025 114.134 60.9025C114.184 60.9025 114.233 60.9276 114.258 60.9276C114.383 60.9527 114.408 60.9527 114.433 61.2036C114.458 61.4043 114.458 61.6051 114.458 62.6339L114.557 63.9388C114.557 64.6163 114.557 65.1684 114.532 65.4193V65.4695C114.507 65.6452 114.507 65.6703 114.482 65.6703C114.433 65.6703 114.383 65.6703 114.333 65.6953C114.308 65.6953 114.283 65.6953 114.258 65.6953C114.159 65.6953 114.084 65.7706 114.084 65.871C114.084 65.9463 114.159 66.0467 114.333 66.0467C114.408 66.0467 114.458 66.0467 114.532 66.0467C114.607 66.0467 114.657 66.0216 114.731 66.0216H115.055C115.155 66.0216 115.354 66.0216 115.628 66.0467C115.753 66.0467 115.877 66.0467 116.026 66.0467C116.251 66.0467 116.525 66.0718 116.848 66.0718C117.122 66.0718 117.297 66.0718 117.371 65.7957C117.396 65.6703 117.446 65.1935 117.446 65.1182C117.371 64.9425 117.272 64.8673 117.197 64.8673Z" fill="#B44736"/>
<path d="M123.871 65.5702C123.771 65.5702 123.472 65.5451 123.348 65.52C123.149 65.4949 123.149 65.4447 123.124 65.2189C123.099 64.8676 123.099 64.1649 123.099 63.3619V61.9065C123.099 60.8526 123.124 60.1249 123.124 59.899V59.7987C123.124 59.5226 122.949 59.4975 122.924 59.4975C122.85 59.4975 122.75 59.5226 122.65 59.5979L121.106 60.6267L121.082 60.6518C121.057 60.6769 121.007 60.7271 121.007 60.8275C121.007 60.953 121.106 61.0282 121.181 61.0282C121.206 61.0282 121.281 61.0282 121.331 60.9781C121.729 60.7773 122.103 60.6267 122.202 60.6267C122.202 60.6267 122.227 60.6518 122.227 60.7522V63.387C122.227 64.2151 122.227 64.8927 122.202 65.244C122.177 65.4698 122.128 65.52 121.953 65.5702C121.804 65.5953 121.405 65.6204 121.355 65.6204C121.256 65.6204 121.181 65.6957 121.181 65.796C121.181 65.9215 121.331 65.9717 121.455 65.9717C121.854 65.9717 122.401 65.9466 122.601 65.9466H122.675H122.725C122.875 65.9466 123.323 65.9717 123.821 65.9717C124.045 65.9717 124.095 65.8713 124.095 65.796C124.07 65.6455 123.945 65.5702 123.871 65.5702Z" fill="#B44736"/>
<path d="M127.109 59.422C125.888 59.422 125.066 60.225 125.066 61.4044C125.066 62.0568 125.54 63.0857 126.81 63.0857C127.133 63.0857 127.607 62.9853 127.881 62.6842C127.93 62.634 127.93 62.6089 127.93 62.5336C127.93 62.358 127.806 62.358 127.781 62.358C127.706 62.358 127.656 62.383 127.631 62.4081L127.582 62.4583C127.557 62.4834 127.432 62.5838 127.059 62.5838C127.059 62.5838 125.988 62.4834 125.988 61.1033C125.988 60.5763 126.287 59.9992 126.959 59.9992C127.557 59.9992 128.154 60.6265 128.154 62.0066C128.154 63.9639 126.835 65.2186 126.063 65.6703L126.038 65.6954C125.988 65.7456 125.938 65.7958 125.938 65.9212C125.938 66.0467 126.038 66.122 126.112 66.122C126.162 66.122 126.212 66.122 126.287 66.0718C126.76 65.8209 129.126 64.4658 129.126 61.831C129.076 60.4257 128.279 59.4722 127.109 59.422Z" fill="#B44736"/>
<path d="M131.692 59.422C130.471 59.422 129.649 60.225 129.649 61.4044C129.649 62.0568 130.123 63.0857 131.393 63.0857C131.716 63.0857 132.19 62.9853 132.464 62.6842C132.513 62.634 132.513 62.6089 132.513 62.5336C132.513 62.358 132.389 62.358 132.364 62.358C132.289 62.358 132.239 62.383 132.215 62.4081L132.165 62.4583C132.14 62.4834 132.015 62.5838 131.642 62.5838C131.642 62.5838 130.571 62.4834 130.571 61.1033C130.571 60.5763 130.87 59.9992 131.542 59.9992C132.14 59.9992 132.737 60.6265 132.737 62.0066C132.737 63.9639 131.418 65.2186 130.646 65.6703L130.621 65.6954C130.571 65.7456 130.521 65.7958 130.521 65.9212C130.521 66.0467 130.621 66.122 130.695 66.122C130.745 66.122 130.795 66.122 130.87 66.0718C131.343 65.8209 133.709 64.4658 133.709 61.831C133.659 60.4508 132.862 59.4722 131.692 59.422Z" fill="#B44736"/>
<path d="M135.502 61.4044L135.576 60.3003H136.946C137.544 60.3003 137.544 60.4508 137.544 60.7018C137.544 60.8774 137.643 60.9527 137.718 60.9527C137.818 60.9527 137.892 60.8272 137.892 60.777C137.992 60.1748 138.017 59.8235 138.017 59.7482C138.017 59.6227 137.917 59.5475 137.842 59.5475C137.818 59.5475 137.793 59.5475 137.768 59.5475C137.718 59.5475 137.643 59.5725 137.544 59.5725C137.469 59.5725 137.344 59.5976 137.22 59.5976H135.327C135.128 59.5976 135.053 59.7231 135.053 59.8486L134.879 61.8812C134.854 61.9815 134.879 62.0568 134.904 62.0819C134.979 62.1823 135.103 62.1823 135.178 62.1823C135.726 62.2074 137.07 62.7845 137.07 64.0141C137.07 65.0681 136.398 65.4445 135.8 65.4445C135.128 65.4445 134.829 65.1684 134.829 64.5411C134.829 64.4156 134.829 64.2651 134.655 64.2651C134.53 64.2651 134.48 64.3905 134.48 64.4407C134.48 64.4658 134.48 64.4658 134.456 64.4909V64.516C134.431 64.7669 134.431 65.2437 134.431 65.5197C134.431 65.6201 134.456 65.7456 134.63 65.846C134.854 65.9965 135.203 66.0216 135.452 66.0216C137.095 66.0216 137.967 64.8422 137.967 63.6879C138.017 62.3328 136.697 61.6051 135.502 61.4044Z" fill="#B44736"/>
<path d="M12.8508 53.4243C12.8757 53.5247 12.9006 53.6251 12.9255 53.7254C12.9006 53.8007 12.8508 53.9011 12.7263 53.9764C12.6515 54.0266 12.527 54.0767 12.2282 54.0517C12.0539 54.0266 11.755 53.9764 11.4064 53.7505C11.4562 53.4745 11.506 53.1734 11.5807 52.8974C11.6056 52.5209 11.6056 52.1696 11.6305 51.7932C11.6305 51.7932 11.1324 50.7393 10.8087 50.5636C10.8087 50.5636 10.5098 51.9438 10.5098 52.8723V53.2236L10.5347 53.4996C10.5845 53.6 10.6094 53.7254 10.6592 53.8258C10.6592 53.8258 10.7091 53.9011 10.6841 53.9764C10.6592 54.0266 10.6094 54.0517 10.6094 54.0768C10.1363 54.0768 9.688 54.0768 9.21483 54.0768C9.14012 54.0768 9.11521 54.0517 9.09031 54.0266C8.9907 53.9262 8.9907 53.6753 9.16502 53.4243C9.18993 52.797 9.18993 52.1696 9.21483 51.5674L9.16502 49.8861C9.16502 49.8861 6.92369 50.1621 6.25129 49.9363C6.25129 49.9363 5.80302 50.6138 5.60379 50.7393C5.60379 50.7393 5.72831 52.1445 5.92754 52.9224C5.92754 52.9224 6.07696 53.3992 6.22638 53.6L6.25129 53.7254L6.22638 53.8258C6.22638 53.8258 5.97735 54.1018 5.28004 54.1018C5.28004 54.1018 4.83178 54.1269 4.55783 53.7505L4.43332 51.4419L4.28389 51.4168C4.13447 51.7932 4.00995 52.1696 3.86053 52.546C3.83563 52.6715 3.81072 52.797 3.78582 52.8974C3.76091 53.2738 3.71111 53.6502 3.6862 54.0015C3.6862 54.0015 3.43717 54.1771 2.9889 54.1771C2.54063 54.1771 2.11727 53.7003 2.11727 53.7003L2.14217 53.4745L2.56554 52.1696L2.64025 51.5925L2.66515 49.6352C2.66515 49.6352 2.39121 48.5562 2.29159 47.4771L2.19198 47.5022C2.21688 47.9288 2.21688 48.3052 2.21688 48.5812C2.21688 48.7318 2.19198 48.9075 2.16708 49.2588C2.11727 49.8108 2.09237 49.9112 2.06746 50.0116C2.01765 50.1872 1.94294 50.3629 1.84333 50.5636C1.76862 50.7142 1.71881 50.8397 1.669 50.915C1.6441 50.9902 1.61919 51.0906 1.59429 51.191C1.54448 51.3415 1.46977 51.4921 1.37016 51.5674C1.37016 51.5674 1.12112 51.7681 0.647949 51.7681C0.647949 51.7681 0.72266 51.3917 1.02151 51.1408L1.54448 50.8397C1.54448 50.8397 1.84333 50.2876 1.89314 49.8108V48.3554L1.84333 47.452C1.84333 47.452 1.94294 45.1434 3.31265 44.0142C4.68235 42.885 5.13062 42.8348 6.10186 42.7595L6.9735 42.9352C6.9735 42.9352 7.72061 43.2865 8.24359 43.2363C8.76656 43.1861 8.76656 43.1861 8.76656 43.1861C8.76656 43.1861 9.11521 43.0356 9.16502 43.0356C9.18993 43.0356 9.51367 42.885 9.7129 42.7846C9.48877 43.3116 9.06541 44.3404 9.11522 44.767C9.21483 45.6453 10.211 46.4734 11.9293 47.1509C11.8795 47.3517 11.8048 47.8033 11.8048 48.0041C11.8297 48.2801 12.8508 51.1408 12.8508 51.1408C12.8259 51.5172 12.801 51.8936 12.7761 52.27C12.8259 52.6966 12.8259 53.0479 12.8508 53.4243Z" fill="#B44736"/>
<path d="M18.2799 42.6592C18.2799 43.3618 18.0308 44.3906 17.1592 45.018C16.1879 45.7457 15.1669 45.57 15.1669 45.57H15.0922C15.0922 45.57 15.2167 45.9715 15.9389 46.2727C15.9389 46.2727 15.5155 46.3981 14.9677 45.9715C14.9677 45.9715 14.3451 46.2476 13.4734 46.1723L13.3738 46.2225L13.1497 47.2513C13.1497 47.2513 12.6516 47.2513 12.2781 47.2011C10.4352 46.5236 9.36433 45.7206 9.26471 44.8423C9.2149 44.4157 9.71298 43.2363 9.91221 42.7847H9.93711C9.93711 42.7847 10.3854 42.2326 10.7589 42.1824C11.1325 42.1322 11.506 42.2577 11.8796 42.0318C11.8796 42.0318 12.6267 41.7056 12.9754 41.7307C13.324 41.7307 13.4734 41.6805 14.1458 42.1824C14.8182 42.7094 15.5654 43.3869 15.5654 43.3869C15.5654 43.3869 15.7895 43.7884 16.3125 43.7633C16.8105 43.7382 17.2837 43.3618 17.4331 42.9352C17.5826 42.5086 17.3584 41.6303 17.2339 41.2288C17.1094 40.8023 16.7358 39.8487 17.458 39.2715L17.6075 39.6229L18.0557 39.7232C18.0557 39.7232 17.6822 39.9993 17.6822 40.1749C17.6822 40.5513 17.8565 40.8274 18.0557 41.3041C18.0059 41.2539 18.255 41.8562 18.2799 42.6592Z" fill="#B44736"/>
<path d="M181.075 53.4243C181.05 53.5247 181.025 53.6251 181 53.7254C181.025 53.8007 181.075 53.9011 181.2 53.9764C181.274 54.0266 181.399 54.0767 181.698 54.0517C181.872 54.0266 182.171 53.9764 182.52 53.7505C182.47 53.4745 182.42 53.1734 182.345 52.8974C182.32 52.5209 182.32 52.1696 182.295 51.7932C182.295 51.7932 182.794 50.7393 183.117 50.5636C183.117 50.5636 183.416 51.9438 183.416 52.8723V53.2236L183.391 53.4996C183.341 53.6 183.317 53.7254 183.267 53.8258C183.267 53.8258 183.217 53.9011 183.242 53.9764C183.267 54.0266 183.317 54.0517 183.317 54.0768C183.79 54.0768 184.238 54.0768 184.711 54.0768C184.786 54.0768 184.811 54.0517 184.836 54.0266C184.935 53.9262 184.935 53.6753 184.761 53.4243C184.736 52.797 184.736 52.1696 184.711 51.5674L184.761 49.8861C184.761 49.8861 187.002 50.1621 187.675 49.9363C187.675 49.9363 188.123 50.6138 188.322 50.7393C188.322 50.7393 188.198 52.1445 187.998 52.9224C187.998 52.9224 187.849 53.3992 187.7 53.6L187.675 53.7254L187.7 53.8258C187.7 53.8258 187.949 54.1018 188.646 54.1018C188.646 54.1018 189.094 54.1269 189.368 53.7505L189.493 51.4419L189.642 51.4168C189.792 51.7932 189.916 52.1696 190.065 52.546C190.09 52.6715 190.115 52.797 190.14 52.8974C190.165 53.2738 190.215 53.6502 190.24 54.0015C190.24 54.0015 190.489 54.1771 190.937 54.1771C191.385 54.1771 191.809 53.7003 191.809 53.7003L191.784 53.4745L191.36 52.1696L191.286 51.5925L191.261 49.6352C191.261 49.6352 191.535 48.5562 191.634 47.4771L191.734 47.5022C191.709 47.9288 191.709 48.3052 191.709 48.5812C191.709 48.7318 191.734 48.9075 191.759 49.2588C191.809 49.8108 191.834 49.9112 191.859 50.0116C191.908 50.1872 191.983 50.3629 192.083 50.5636C192.157 50.7142 192.207 50.8397 192.257 50.915C192.282 50.9902 192.307 51.0906 192.332 51.191C192.381 51.3415 192.456 51.4921 192.556 51.5674C192.556 51.5674 192.805 51.7681 193.278 51.7681C193.278 51.7681 193.203 51.3917 192.904 51.1408L192.381 50.8397C192.381 50.8397 192.083 50.2876 192.033 49.8108V48.3554L192.083 47.452C192.083 47.452 191.983 45.1434 190.613 44.0142C189.244 42.885 188.795 42.8348 187.824 42.7595L186.952 42.9352C186.952 42.9352 186.205 43.2865 185.682 43.2363C185.159 43.1861 185.159 43.1861 185.159 43.1861C185.159 43.1861 184.811 43.0356 184.761 43.0356C184.736 43.0356 184.412 42.885 184.213 42.7846C184.437 43.3116 184.861 44.3404 184.811 44.767C184.711 45.6453 183.715 46.4734 181.997 47.1509C182.046 47.3517 182.121 47.8033 182.121 48.0041C182.096 48.2801 181.075 51.1408 181.075 51.1408C181.1 51.5172 181.125 51.8936 181.15 52.27C181.1 52.6966 181.1 53.0479 181.075 53.4243Z" fill="#B44736"/>
<path d="M175.646 42.6592C175.646 43.3618 175.895 44.3906 176.767 45.018C177.738 45.7457 178.759 45.57 178.759 45.57H178.834C178.834 45.57 178.709 45.9715 177.987 46.2727C177.987 46.2727 178.41 46.3981 178.958 45.9715C178.958 45.9715 179.581 46.2476 180.452 46.1723L180.552 46.2225L180.776 47.2513C180.776 47.2513 181.274 47.2513 181.648 47.2011C183.491 46.5236 184.562 45.7206 184.661 44.8423C184.711 44.4157 184.213 43.2363 184.014 42.7847H183.989C183.989 42.7847 183.54 42.2326 183.167 42.1824C182.793 42.1322 182.42 42.2577 182.046 42.0318C182.046 42.0318 181.299 41.7056 180.95 41.7307C180.602 41.7307 180.452 41.6805 179.78 42.1824C179.108 42.7094 178.361 43.3869 178.361 43.3869C178.361 43.3869 178.136 43.7884 177.613 43.7633C177.115 43.7382 176.642 43.3618 176.493 42.9352C176.343 42.5086 176.567 41.6303 176.692 41.2288C176.816 40.8023 177.19 39.8487 176.468 39.2715L176.318 39.6229L175.87 39.7232C175.87 39.7232 176.244 39.9993 176.244 40.1749C176.244 40.5513 176.069 40.8274 175.87 41.3041C175.92 41.2539 175.671 41.8562 175.646 42.6592Z" fill="#B44736"/>
</g>
<defs>
<clipPath id="clip0_2160_68814">
<rect width="194" height="67" fill="white"/>
</clipPath>
</defs>
</svg>
