<svg width="101" height="100" viewBox="0 0 101 100" fill="none" xmlns="http://www.w3.org/2000/svg">
<path fill-rule="evenodd" clip-rule="evenodd" d="M30.7472 28.1244H25.2118C21.3868 28.1244 18.2118 31.0806 17.9389 34.8973L14.3681 84.8973C14.2243 86.916 14.9243 88.9035 16.3035 90.3848C17.6847 91.866 19.616 92.7077 21.641 92.7077H79.3576C81.3826 92.7077 83.3139 91.866 84.6951 90.3848C86.0743 88.9035 86.7743 86.916 86.6305 84.8973L83.0597 34.8973C82.7868 31.0806 79.6118 28.1244 75.7868 28.1244H70.291V27.0827C70.291 16.1514 61.4306 7.29102 50.4993 7.29102C39.9681 7.29102 30.2347 15.6785 30.7076 27.0827C30.7222 27.4285 30.7347 27.7764 30.7472 28.1244ZM70.291 34.3744V49.9994C70.291 51.7244 68.891 53.1244 67.166 53.1244C65.441 53.1244 64.041 51.7244 64.041 49.9994V34.3744H36.9576V49.9994C36.9576 51.7244 35.5576 53.1244 33.8326 53.1244C32.1076 53.1244 30.7076 51.7244 30.7076 49.9994C30.7076 49.9994 30.9785 42.6973 30.8889 34.3744H25.2118C24.666 34.3744 24.2118 34.7972 24.1743 35.341L20.6014 85.341C20.5805 85.6306 20.6806 85.9139 20.8785 86.1264C21.0764 86.3369 21.3514 86.4577 21.641 86.4577H79.3576C79.6472 86.4577 79.9222 86.3369 80.1201 86.1264C80.318 85.9139 80.4181 85.6306 80.3972 85.341L76.8243 35.341C76.7868 34.7972 76.3326 34.3744 75.7868 34.3744H70.291ZM64.041 28.1244V27.0827C64.041 19.6035 57.9785 13.541 50.4993 13.541C43.0201 13.541 36.9576 19.6035 36.9576 27.0827V28.1244H64.041Z" fill="#B3B3B3"/>
</svg>
