<svg width="36" height="36" viewBox="0 0 36 36" fill="none" xmlns="http://www.w3.org/2000/svg">
<g clip-path="url(#clip0_4857_152045)">
<path d="M9.6 16.8016H17.4C17.5591 16.8016 17.7117 16.7383 17.8243 16.6258C17.9368 16.5133 18 16.3607 18 16.2016C18 16.0424 17.9368 15.8898 17.8243 15.7773C17.7117 15.6648 17.5591 15.6016 17.4 15.6016H9.6C9.44087 15.6016 9.28826 15.6648 9.17574 15.7773C9.06321 15.8898 9 16.0424 9 16.2016C9 16.3607 9.06321 16.5133 9.17574 16.6258C9.28826 16.7383 9.44087 16.8016 9.6 16.8016Z" fill="#DF6D5D"/>
<path d="M9.60156 20.9984C9.60156 21.1576 9.66478 21.3102 9.7773 21.4227C9.88982 21.5352 10.0424 21.5984 10.2016 21.5984H24.0016C24.1607 21.5984 24.3133 21.5352 24.4258 21.4227C24.5383 21.3102 24.6016 21.1576 24.6016 20.9984C24.6016 20.8393 24.5383 20.6867 24.4258 20.5742C24.3133 20.4617 24.1607 20.3984 24.0016 20.3984H10.2016C10.0424 20.3984 9.88982 20.4617 9.7773 20.5742C9.66478 20.6867 9.60156 20.8393 9.60156 20.9984Z" fill="#DF6D5D"/>
<path d="M25.377 13.026C25.4895 13.1385 25.6421 13.2017 25.8012 13.2018H25.8612C25.9495 13.193 26.0347 13.1648 26.1108 13.1191C26.1868 13.0735 26.2518 13.0115 26.301 12.9378L31.101 5.73776C31.1448 5.67221 31.1751 5.59868 31.1905 5.52138C31.2058 5.44408 31.2057 5.36452 31.1903 5.28724C31.1748 5.20996 31.1443 5.13648 31.1005 5.071C31.0567 5.00551 31.0004 4.94929 30.9348 4.90556C30.8693 4.86183 30.7957 4.83144 30.7184 4.81613C30.6411 4.80081 30.5616 4.80087 30.4843 4.81631C30.407 4.83174 30.3335 4.86224 30.2681 4.90607C30.2026 4.94991 30.1464 5.00621 30.1026 5.07176L25.7082 11.6604L23.8254 9.77756C23.7123 9.66827 23.5607 9.60779 23.4034 9.60916C23.2461 9.61053 23.0956 9.67363 22.9843 9.78487C22.8731 9.89612 22.81 10.0466 22.8086 10.2039C22.8072 10.3612 22.8677 10.5128 22.977 10.626L25.377 13.026Z" fill="#DF6D5D"/>
<path d="M0.6 9.59972H4.1166L6.6252 23.6817C6.8406 24.8937 6.975 25.6461 7.086 26.1123L5.7 28.2207C5.51595 28.515 5.41405 28.8532 5.40489 29.2002C5.39572 29.5472 5.47964 29.8903 5.64791 30.1939C5.81618 30.4975 6.06267 30.7505 6.36177 30.9267C6.66088 31.1028 7.00169 31.1956 7.3488 31.1955H9.021C8.62107 31.7122 8.40279 32.3464 8.4 32.9997C8.39636 33.4772 8.50677 33.9487 8.72204 34.375C8.93732 34.8013 9.25124 35.17 9.6377 35.4505C10.0242 35.731 10.472 35.9152 10.944 35.9877C11.416 36.0603 11.8985 36.0192 12.3514 35.8677C12.8042 35.7163 13.2144 35.4589 13.5478 35.117C13.8812 34.7751 14.1281 34.3586 14.2681 33.902C14.4081 33.4454 14.4371 32.9621 14.3526 32.4921C14.2682 32.0221 14.0728 31.579 13.7826 31.1997H19.8162C19.4191 31.716 19.2026 32.3484 19.2 32.9997C19.2 33.7954 19.5161 34.5584 20.0787 35.121C20.6413 35.6837 21.4044 35.9997 22.2 35.9997C22.9957 35.9997 23.7587 35.6837 24.3213 35.121C24.8839 34.5584 25.2 33.7954 25.2 32.9997C25.1976 32.3485 24.9813 31.7161 24.5844 31.1997H26.4C26.5591 31.1997 26.7117 31.1365 26.8243 31.024C26.9368 30.9115 27 30.7589 27 30.5997C27 30.4406 26.9368 30.288 26.8243 30.1755C26.7117 30.0629 26.5591 29.9997 26.4 29.9997L7.3464 29.9955C7.21473 29.9955 7.0854 29.9606 6.97163 29.8943C6.85785 29.828 6.76368 29.7328 6.69873 29.6182C6.63377 29.5037 6.60035 29.374 6.60188 29.2423C6.6034 29.1106 6.63981 28.9817 6.7074 28.8687L8.0322 26.8575L25.4754 25.9431C25.8939 25.92 26.2953 25.7692 26.6255 25.5109C26.9557 25.2527 27.1989 24.8995 27.3222 24.4989L29.4054 17.6637C31.1279 17.1913 32.6714 16.2182 33.8402 14.8676C35.009 13.517 35.7505 11.8498 35.9708 10.0773C36.191 8.30483 35.8801 6.50687 35.0773 4.91131C34.2746 3.31575 33.0162 1.99444 31.4617 1.11485C29.9072 0.235268 28.1265 -0.162986 26.3454 -0.0294318C24.5643 0.104122 22.8629 0.763472 21.4569 1.86504C20.051 2.96662 19.0037 4.46081 18.4479 6.15824C17.892 7.85567 17.8527 9.67991 18.3348 11.3997H5.6562C5.388 9.89132 5.2104 8.89413 5.2104 8.89413C5.18562 8.75555 5.11291 8.63009 5.00498 8.53971C4.89705 8.44933 4.76078 8.39978 4.62 8.39973H0.6C0.44087 8.39973 0.288258 8.46294 0.175736 8.57546C0.0632141 8.68798 0 8.8406 0 8.99973C0 9.15886 0.0632141 9.31147 0.175736 9.42399C0.288258 9.53651 0.44087 9.59972 0.6 9.59972ZM11.4 34.7997C11.044 34.7997 10.696 34.6942 10.4 34.4964C10.104 34.2986 9.87326 34.0175 9.73702 33.6886C9.60078 33.3596 9.56513 32.9977 9.63459 32.6486C9.70404 32.2994 9.87547 31.9787 10.1272 31.7269C10.3789 31.4752 10.6997 31.3038 11.0488 31.2343C11.398 31.1649 11.7599 31.2005 12.0888 31.3367C12.4177 31.473 12.6989 31.7037 12.8966 31.9997C13.0944 32.2957 13.2 32.6437 13.2 32.9997C13.2 33.4771 13.0104 33.935 12.6728 34.2725C12.3352 34.6101 11.8774 34.7997 11.4 34.7997ZM22.2 34.7997C21.844 34.7997 21.496 34.6942 21.2 34.4964C20.904 34.2986 20.6733 34.0175 20.537 33.6886C20.4008 33.3596 20.3651 32.9977 20.4346 32.6486C20.504 32.2994 20.6755 31.9787 20.9272 31.7269C21.1789 31.4752 21.4997 31.3038 21.8488 31.2343C22.198 31.1649 22.5599 31.2005 22.8888 31.3367C23.2177 31.473 23.4989 31.7037 23.6966 31.9997C23.8944 32.2957 24 32.6437 24 32.9997C24 33.4771 23.8104 33.935 23.4728 34.2725C23.1352 34.6101 22.6774 34.7997 22.2 34.7997ZM27 1.19973C28.5427 1.19973 30.0507 1.65719 31.3335 2.51426C32.6162 3.37134 33.6159 4.58953 34.2063 6.01479C34.7966 7.44006 34.9511 9.00838 34.6501 10.5214C34.3492 12.0345 33.6063 13.4243 32.5154 14.5152C31.4246 15.606 30.0348 16.3489 28.5217 16.6499C27.0087 16.9508 25.4403 16.7963 24.0151 16.206C22.5898 15.6156 21.3716 14.6159 20.5145 13.3332C19.6575 12.0505 19.2 10.5424 19.2 8.99973C19.2024 6.93177 20.0249 4.94919 21.4872 3.48692C22.9495 2.02466 24.932 1.20211 27 1.19973ZM18.7566 12.5997C19.521 14.3778 20.8427 15.8592 22.5224 16.8207C24.2021 17.7821 26.1489 18.1715 28.0692 17.9301L26.175 24.1467C26.1263 24.3134 26.0269 24.4608 25.8905 24.5683C25.7541 24.6759 25.5877 24.7382 25.4142 24.7467L8.1942 25.6467C7.8528 23.7315 6.6408 16.9269 5.8704 12.5997H18.7566Z" fill="#DF6D5D"/>
</g>
<defs>
<clipPath id="clip0_4857_152045">
<rect width="36" height="36" fill="white"/>
</clipPath>
</defs>
</svg>
