<svg width="70" height="38" viewBox="0 0 70 38" fill="none" xmlns="http://www.w3.org/2000/svg">
<g clip-path="url(#clip0_4234_109003)">
<path d="M68.6268 0.914473C63.2956 8.71154 58.3351 15.966 53.3745 23.2204C50.9227 26.819 48.2714 30.332 46.0477 34.0734C44.5652 36.5582 42.7691 37.5007 40.0037 37.1865C38.4072 36.9866 36.7252 37.158 34.644 37.158C35.4138 35.8442 35.9555 34.9017 36.5827 33.9877C43.3108 24.1058 50.1245 14.2809 56.7386 4.34176C58.3921 1.82842 60.0741 0.37182 63.2101 0.885913C64.7496 1.1144 66.3461 0.914473 68.6268 0.914473Z" fill="#B44736"/>
<path d="M8.72856 37.0997C6.0487 37.0997 3.56841 37.0997 0.831543 37.0997C0.831543 25.1328 0.831543 13.223 0.831543 1.11328C3.39736 1.11328 5.96318 1.11328 8.72856 1.11328C8.72856 12.966 8.72856 24.8758 8.72856 37.0997Z" fill="#B44736"/>
<path d="M16.7686 23.8783C22.3848 15.8242 22.3848 9.05534 16.9396 1.05835C21.5296 0.372892 25.1787 1.80093 27.716 5.57094C30.4529 9.62656 30.5669 14.0249 28.3432 18.309C25.977 22.7645 21.9002 24.1639 16.7686 23.8783Z" fill="#B44736"/>
<path d="M54.9141 36.9864C60.6729 34.216 64.7497 29.9604 67.5436 24.334C67.7716 24.4197 67.9997 24.5053 68.2278 24.591C67.9997 28.4182 67.8002 32.2453 67.458 36.0439C67.4295 36.4152 66.5458 36.9578 66.0326 36.9578C62.3549 37.0435 58.6487 36.9864 54.9141 36.9864Z" fill="#B44736"/>
<path d="M34.1597 13.1932C34.4162 9.2233 34.6443 5.31049 34.9009 1.14062C39.1488 1.14062 43.2826 1.14062 48.2146 1.14062C41.7716 3.68253 37.6093 7.85239 34.8724 13.5074C34.6158 13.4217 34.3877 13.2789 34.1597 13.1932Z" fill="#B44736"/>
</g>
<defs>
<clipPath id="clip0_4234_109003">
<rect width="70" height="38" fill="white"/>
</clipPath>
</defs>
</svg>
