<svg width="36" height="36" viewBox="0 0 36 36" fill="none" xmlns="http://www.w3.org/2000/svg">
<path d="M7.3125 24.75H3.9375V17.4375H7.3125V24.75ZM5.0625 23.625H6.1875V18.5625H5.0625V23.625Z" fill="#DF6D5D"/>
<path d="M13.5 24.75H10.125V11.8125H13.5V24.75ZM11.25 23.625H12.375V12.9375H11.25V23.625Z" fill="#DF6D5D"/>
<path d="M19.6875 24.75H16.3125V15.75H19.6875V24.75ZM17.4375 23.625H18.5625V16.875H17.4375V23.625Z" fill="#DF6D5D"/>
<path d="M25.875 24.75H22.5V13.5H25.875V24.75ZM23.625 23.625H24.75V14.625H23.625V23.625Z" fill="#DF6D5D"/>
<path d="M32.0625 24.75H28.6875V9.5625H32.0625V24.75ZM29.8125 23.625H30.9375V10.6875H29.8125V23.625Z" fill="#DF6D5D"/>
<path d="M28.6875 6.1875H32.0625V7.3125H28.6875V6.1875Z" fill="#DF6D5D"/>
<path d="M22.5 10.125H25.875V11.25H22.5V10.125Z" fill="#DF6D5D"/>
<path d="M16.3125 12.375H19.6875V13.5H16.3125V12.375Z" fill="#DF6D5D"/>
<path d="M10.125 8.4375H13.5V9.5625H10.125V8.4375Z" fill="#DF6D5D"/>
<path d="M3.9375 14.0625H7.3125V15.1875H3.9375V14.0625Z" fill="#DF6D5D"/>
<path d="M32.625 29.8125H3.375C2.92745 29.8125 2.49822 29.6347 2.18176 29.3182C1.86529 29.0018 1.6875 28.5726 1.6875 28.125V27.5625C1.6875 27.1149 1.86529 26.6857 2.18176 26.3693C2.49822 26.0528 2.92745 25.875 3.375 25.875H32.625C33.0726 25.875 33.5018 26.0528 33.8182 26.3693C34.1347 26.6857 34.3125 27.1149 34.3125 27.5625V28.125C34.3125 28.5726 34.1347 29.0018 33.8182 29.3182C33.5018 29.6347 33.0726 29.8125 32.625 29.8125ZM3.375 27C3.22582 27 3.08274 27.0593 2.97725 27.1648C2.87176 27.2702 2.8125 27.4133 2.8125 27.5625V28.125C2.8125 28.2742 2.87176 28.4173 2.97725 28.5227C3.08274 28.6282 3.22582 28.6875 3.375 28.6875H32.625C32.7742 28.6875 32.9173 28.6282 33.0227 28.5227C33.1282 28.4173 33.1875 28.2742 33.1875 28.125V27.5625C33.1875 27.4133 33.1282 27.2702 33.0227 27.1648C32.9173 27.0593 32.7742 27 32.625 27H3.375Z" fill="#DF6D5D"/>
</svg>
