<svg width="20" height="20" viewBox="0 0 20 20" fill="none" xmlns="http://www.w3.org/2000/svg">
<path d="M8.12089 6.25037L9.72237 4.64893V13.1205C9.72237 13.3263 9.80411 13.5236 9.94961 13.6691C10.0951 13.8146 10.2925 13.8963 10.4982 13.8963C10.704 13.8963 10.9013 13.8146 11.0468 13.6691C11.1923 13.5236 11.2741 13.3263 11.2741 13.1205V4.64893L12.8756 6.25037C12.9475 6.32274 13.0331 6.38019 13.1273 6.41944C13.2215 6.45869 13.3226 6.47897 13.4246 6.47911C13.5267 6.47925 13.6278 6.45925 13.7221 6.42025C13.8164 6.38126 13.9021 6.32404 13.9743 6.25187C14.0465 6.1797 14.1037 6.094 14.1427 5.99968C14.1817 5.90536 14.2017 5.80427 14.2015 5.70221C14.2014 5.60014 14.1811 5.49911 14.1419 5.4049C14.1026 5.31068 14.0452 5.22514 13.9728 5.15317L11.0469 2.22725C10.9748 2.15521 10.8893 2.09805 10.7951 2.05906C10.701 2.02007 10.6001 2 10.4982 2C10.3963 2 10.2954 2.02007 10.2013 2.05906C10.1072 2.09805 10.0216 2.15521 9.9496 2.22725L7.02366 5.15317C6.95129 5.22514 6.89384 5.31068 6.85459 5.4049C6.81534 5.49911 6.79506 5.60014 6.79492 5.70221C6.79478 5.80427 6.81478 5.90536 6.85378 5.99968C6.89277 6.094 6.95 6.1797 7.02217 6.25187C7.09434 6.32404 7.18004 6.38126 7.27436 6.42025C7.36868 6.45925 7.46977 6.47925 7.57184 6.47911C7.6739 6.47897 7.77494 6.45869 7.86915 6.41944C7.96337 6.38019 8.04892 6.32274 8.12089 6.25037Z" fill="#DF6D5D"/>
<path d="M17.2241 8.72461C17.0184 8.72461 16.821 8.80635 16.6755 8.95185C16.53 9.09735 16.4483 9.29469 16.4483 9.50046V15.4486H4.55172V9.50046C4.55172 9.29469 4.46998 9.09735 4.32448 8.95185C4.17898 8.80635 3.98163 8.72461 3.77586 8.72461C3.57009 8.72461 3.37275 8.80635 3.22724 8.95185C3.08174 9.09735 3 9.29469 3 9.50046V15.7072C3 16.0502 3.13624 16.3791 3.37874 16.6216C3.62125 16.8641 3.95015 17.0003 4.2931 17.0003H16.7069C17.0498 17.0003 17.3788 16.8641 17.6213 16.6216C17.8638 16.3791 18 16.0502 18 15.7072V9.50046C18 9.29469 17.9183 9.09735 17.7728 8.95185C17.6273 8.80635 17.4299 8.72461 17.2241 8.72461Z" fill="#DF6D5D"/>
</svg>
