<svg width="24" height="24" viewBox="0 0 24 24" fill="none" xmlns="http://www.w3.org/2000/svg">
<path d="M0 12L2 10V12H0Z" fill="#135431"/>
<path d="M24 12L22 10V12H24Z" fill="#135431"/>
<path d="M17 0H3.268C2.5675 0 2 0.5595 2 1.25V22.75C2 23.4405 2.5675 24 3.268 24H20.732C21.4325 24 22 23.4405 22 22.75V5L17 0Z" fill="#35BD73"/>
<path d="M17 0L22 5H17V0Z" fill="#D9FFEB"/>
<path d="M0 12H24V21H0V12Z" fill="#229456"/>
<path d="M22 5V10L17 5H22Z" fill="#1B9754"/>
<path d="M10.4981 5H4.50186C4.22469 5 4 5.22386 4 5.5C4 5.77614 4.22469 6 4.50186 6H10.4981C10.7753 6 11 5.77614 11 5.5C11 5.22386 10.7753 5 10.4981 5Z" fill="#D9FFEB"/>
<path d="M15.4783 7H4.52174C4.23359 7 4 7.22386 4 7.5C4 7.77614 4.23359 8 4.52174 8H15.4783C15.7664 8 16 7.77614 16 7.5C16 7.22386 15.7664 7 15.4783 7Z" fill="#D9FFEB"/>
<path d="M15.4783 9H4.52174C4.23359 9 4 9.22386 4 9.5C4 9.77614 4.23359 10 4.52174 10H15.4783C15.7664 10 16 9.77614 16 9.5C16 9.22386 15.7664 9 15.4783 9Z" fill="#D9FFEB"/>
<path d="M10.4976 14.6621L11.4137 13H12.9574L11.3906 15.4794L13 18H11.4411L10.4982 16.3069L9.55524 18H8L9.60517 15.4794L8.04205 13H9.58205L10.4982 14.6621H10.4976Z" fill="white"/>
<path d="M14.4596 17.0726H17V18H13V13H14.4596V17.073V17.0726Z" fill="white"/>
</svg>
