<svg width="20" height="20" viewBox="0 0 20 20" fill="none" xmlns="http://www.w3.org/2000/svg">
<path d="M17.52 13.3476L16.4741 12.282C16.3278 12.1333 16.2473 11.9364 16.2473 11.7279V8.50586C16.2473 5.905 14.5109 3.70246 12.1365 2.99582C12.1579 2.88895 12.1692 2.77961 12.1692 2.66992C12.1692 1.74918 11.42 1 10.4993 1C9.57851 1 8.82933 1.74918 8.82933 2.66992C8.82933 2.78066 8.84023 2.88965 8.86097 2.99617C6.48723 3.70316 4.75121 5.90535 4.75121 8.50586V11.7279C4.75121 11.9364 4.6707 12.1333 4.52445 12.282L3.47855 13.3476C2.89777 13.9389 2.73605 14.7812 3.05703 15.5459C3.37765 16.3102 4.09203 16.7852 4.92101 16.7852H8.00387C8.15223 18.0307 9.2143 19 10.4993 19C11.7842 19 12.8463 18.0307 12.9946 16.7852H16.0775C16.9065 16.7852 17.6209 16.3102 17.9415 15.5459C18.2625 14.7812 18.1007 13.9389 17.52 13.3476ZM10.0598 2.66992C10.0598 2.4277 10.257 2.23047 10.4993 2.23047C10.7415 2.23047 10.9387 2.4277 10.9387 2.66992C10.9387 2.70789 10.9338 2.74199 10.9261 2.77363C10.7851 2.76344 10.6427 2.75781 10.4993 2.75781C10.3558 2.75781 10.2134 2.76344 10.0725 2.77363C10.0647 2.74234 10.0598 2.70789 10.0598 2.66992ZM10.4993 17.7695C9.89457 17.7695 9.38656 17.3491 9.25156 16.7852H11.747C11.612 17.3491 11.1039 17.7695 10.4993 17.7695ZM16.807 15.0699C16.7592 15.1838 16.5655 15.5547 16.0775 15.5547H4.92101C4.43305 15.5547 4.23933 15.1834 4.19152 15.0699C4.14371 14.956 4.01469 14.558 4.3564 14.2096L5.40265 13.144C5.77601 12.7636 5.98168 12.2609 5.98168 11.7279V8.50586C5.98168 6.01504 8.00808 3.98828 10.4993 3.98828C12.9904 3.98828 15.0168 6.01504 15.0168 8.50586V11.7279C15.0168 12.2609 15.2225 12.7636 15.5959 13.144L16.6421 14.2096C16.9838 14.5577 16.8548 14.956 16.807 15.0699Z" fill="#4D4D4D"/>
</svg>
