<svg width="20" height="20" viewBox="0 0 20 20" fill="none" xmlns="http://www.w3.org/2000/svg">
<path d="M17.4737 9.43041C17.144 9.09927 16.761 8.82578 16.3408 8.62133C16.3708 8.59211 16.4003 8.56241 16.4284 8.53193C16.5507 8.40238 16.6587 8.26003 16.7505 8.10734C17.0126 7.69295 17.1516 7.21261 17.1512 6.72229C17.1531 6.44178 17.1073 6.163 17.0156 5.89788C16.8795 5.48376 16.6427 5.10991 16.3265 4.80985C16.0103 4.50979 15.6246 4.29291 15.2039 4.17867C14.7832 4.06442 14.3407 4.05638 13.9162 4.15526C13.4916 4.25415 13.0983 4.45686 12.7714 4.74523C12.5208 4.22284 12.1278 3.78186 11.6376 3.47309C11.1473 3.16432 10.5798 3.00033 10.0005 3C9.42112 2.99967 8.85345 3.16303 8.36287 3.47125C7.87229 3.77947 7.47877 4.22001 7.22764 4.74211C6.90053 4.45458 6.50721 4.25266 6.08292 4.15443C5.65862 4.0562 5.21658 4.06472 4.79639 4.17923C4.37619 4.29374 3.99095 4.51068 3.67516 4.8106C3.35937 5.11052 3.12289 5.48408 2.98689 5.89782C2.89523 6.16296 2.84938 6.44178 2.85131 6.72231C2.85091 7.21263 2.98986 7.69297 3.25196 8.10736C3.34379 8.26004 3.45181 8.40239 3.57413 8.53193C3.60226 8.56241 3.63164 8.59209 3.66169 8.62129C2.95592 8.96492 2.36102 9.5001 1.94493 10.1657C1.52884 10.8314 1.30833 11.6006 1.30859 12.3856V15.4874L1.60324 15.6527C2.69808 16.269 3.92286 16.6182 5.17805 16.672L5.34954 16.7699C6.76724 17.5761 8.37013 18 10.001 18C11.6319 18 13.2348 17.5761 14.6525 16.7699L14.8239 16.672C16.0793 16.6182 17.3043 16.269 18.3993 15.6527L18.6939 15.4874V12.3856C18.6957 11.8368 18.5888 11.2932 18.3793 10.786C18.1699 10.2787 17.8621 9.81804 17.4737 9.43041ZM14.5155 5.2408C14.8276 5.24005 15.1319 5.33852 15.3844 5.522C15.6369 5.70548 15.8245 5.96447 15.9202 6.26156L15.9257 6.27795C15.9748 6.42093 15.9989 6.57126 15.997 6.7224C15.9973 6.9958 15.9195 7.26361 15.7727 7.49428L15.7647 7.50726C15.7147 7.59087 15.6559 7.66881 15.5891 7.73971L15.5823 7.74692C15.5053 7.82916 15.4183 7.90137 15.3232 7.96186L15.3168 7.96606C15.094 8.1127 14.8349 8.19467 14.5682 8.20285C14.5509 8.2026 14.5336 8.20213 14.5162 8.20208H14.5104C14.4922 8.20208 14.4741 8.20233 14.456 8.20258C14.1901 8.1938 13.9318 8.11197 13.7093 7.96606L13.7029 7.96186C13.6078 7.90133 13.5208 7.82908 13.4438 7.7468L13.4379 7.74052C13.1759 7.46626 13.0295 7.10162 13.0292 6.72229C13.0292 5.90532 13.6959 5.2408 14.5155 5.2408ZM12.5488 8.69633C12.3702 8.58655 12.1847 8.48859 11.9933 8.40309C12.0771 8.332 12.1566 8.25596 12.2312 8.17537C12.2477 8.15808 12.2639 8.14051 12.2799 8.12265C12.3723 8.26888 12.4786 8.40579 12.5973 8.53146C12.6266 8.5632 12.6572 8.5941 12.6886 8.62445C12.6416 8.6475 12.595 8.67146 12.5488 8.69633ZM10.0039 4.15163C10.4076 4.15065 10.8011 4.278 11.1276 4.51529C11.4542 4.75258 11.6969 5.08753 11.8206 5.47176L11.8262 5.48815C11.8902 5.67441 11.9218 5.87029 11.9195 6.06724C11.9206 6.15632 11.915 6.24536 11.9028 6.33361C11.8629 6.5949 11.7693 6.84512 11.6281 7.06855L11.6209 7.08028C11.5558 7.18918 11.4791 7.2907 11.3921 7.38304L11.3853 7.39025C11.285 7.4975 11.1717 7.59168 11.0478 7.67056L11.0414 7.67478C10.7334 7.87736 10.3725 7.98455 10.0039 7.9829H9.99813C9.6293 7.98606 9.26796 7.87874 8.96065 7.67477L8.9542 7.67056C8.83039 7.59164 8.71702 7.49744 8.61675 7.39018L8.61089 7.3839C8.27206 7.02924 8.08283 6.55772 8.08248 6.06722C8.08252 5.01095 8.94442 4.15161 10.0039 4.15161V4.15163ZM7.44893 8.69379C7.40427 8.66982 7.35926 8.6467 7.31388 8.62445C7.34521 8.59411 7.37576 8.56326 7.40503 8.53155C7.5238 8.40595 7.63011 8.26912 7.72244 8.12298C7.73822 8.14044 7.75421 8.15776 7.77041 8.17494C7.84502 8.25546 7.92438 8.33144 8.00805 8.4025C7.81565 8.48756 7.62889 8.58486 7.44893 8.69379ZM4.68569 7.96606L4.67925 7.96186C4.58422 7.90135 4.49718 7.82911 4.4202 7.74685L4.4134 7.73964C4.34664 7.66874 4.28777 7.5908 4.23784 7.50719L4.22981 7.49419C4.08304 7.26352 4.00522 6.99571 4.00552 6.72231C4.00364 6.57118 4.02773 6.42085 4.07674 6.27788L4.08233 6.26147C4.17802 5.9644 4.36566 5.70543 4.61815 5.52196C4.87064 5.3385 5.17491 5.24004 5.48702 5.2408C6.30655 5.2408 6.97328 5.9054 6.97328 6.72231C6.97296 7.10164 6.82658 7.46628 6.56451 7.74054L6.55867 7.74678C6.48167 7.82906 6.39461 7.90132 6.29957 7.96186L6.29313 7.96606C6.07069 8.11197 5.81237 8.1938 5.5465 8.20258C5.52835 8.20233 5.51021 8.20208 5.49205 8.20208H5.4846C5.46752 8.20208 5.45054 8.20258 5.43349 8.20284C5.16714 8.19452 4.90829 8.11256 4.68569 7.96606ZM2.46281 12.3856C2.46281 10.737 3.79238 9.38909 5.43544 9.35708C5.45263 9.35741 5.46971 9.358 5.48702 9.358C5.50821 9.358 5.52931 9.35737 5.55045 9.35687C5.85074 9.36256 6.14844 9.41364 6.43345 9.50836C6.14441 9.81025 5.89458 10.1474 5.68987 10.5118C5.68096 10.5276 5.67204 10.5434 5.66331 10.5593C5.65647 10.5718 5.64978 10.5843 5.64307 10.5969C5.6373 10.6077 5.63139 10.6183 5.6257 10.6291C5.6195 10.6408 5.61348 10.6527 5.60738 10.6645C5.60378 10.6715 5.60004 10.6786 5.59644 10.6856C5.58112 10.7156 5.56613 10.7458 5.55148 10.7761C5.54744 10.7844 5.54347 10.7928 5.53948 10.8011C5.52758 10.8261 5.51587 10.8511 5.50437 10.8763C5.49806 10.8901 5.49182 10.9039 5.48567 10.9178C5.47676 10.9378 5.46797 10.9578 5.45932 10.978C5.45173 10.9956 5.44425 11.0133 5.43686 11.031C5.43506 11.0355 5.43315 11.0401 5.43127 11.0446C5.18471 11.6419 5.05813 12.2818 5.05875 12.928V15.5102C4.15504 15.4489 3.27257 15.2083 2.46281 14.8024V12.3856ZM6.21343 15.9262V12.928C6.21293 12.3253 6.35709 11.7313 6.63381 11.1959C6.91053 10.6604 7.31172 10.1993 7.80367 9.85109L8.0375 9.68632C8.62805 9.32632 9.3065 9.13628 9.99813 9.13712H10.0039C10.7451 9.13372 11.47 9.35428 12.0837 9.76991L12.1988 9.85107C12.7832 10.2636 13.2374 10.8348 13.5077 11.4971C13.5218 11.5316 13.5354 11.5662 13.5485 11.6011C13.5746 11.6708 13.5987 11.7414 13.6208 11.8128C13.7324 12.174 13.7891 12.5499 13.7891 12.928V15.926C12.6179 16.5304 11.3192 16.8458 10.0013 16.8459C8.68338 16.8459 7.3846 16.5306 6.21343 15.9262ZM17.5397 14.8024C16.7298 15.2084 15.8471 15.449 14.9433 15.5102V12.928C14.9434 12.1271 14.749 11.3382 14.3768 10.6291C14.3566 10.5908 14.3357 10.5528 14.3144 10.515C14.3105 10.5081 14.3067 10.5011 14.3027 10.4942C14.2821 10.4579 14.2609 10.4218 14.2393 10.386C14.2353 10.3793 14.2312 10.3727 14.2272 10.366C14.2046 10.329 14.1817 10.2922 14.1581 10.2557C14.1345 10.2193 14.1102 10.1832 14.0857 10.1474C14.0813 10.1409 14.0769 10.1344 14.0724 10.128C14.0485 10.0935 14.0242 10.0594 13.9995 10.0255C13.995 10.0194 13.9905 10.0133 13.986 10.0072C13.9603 9.97236 13.9342 9.93786 13.9077 9.90373L13.9072 9.90304C13.8804 9.86878 13.853 9.83498 13.8255 9.80142C13.8206 9.79541 13.8157 9.78941 13.8107 9.78338C13.7839 9.7511 13.7566 9.71916 13.729 9.68755C13.724 9.6819 13.7191 9.67633 13.7141 9.6707C13.6857 9.63853 13.6569 9.60667 13.6277 9.57512L13.6262 9.57355C13.6061 9.55202 13.5859 9.53066 13.5655 9.50948C13.8515 9.41399 14.1505 9.36252 14.452 9.35683C14.4731 9.35734 14.4942 9.35797 14.5154 9.35797C14.5324 9.35797 14.5493 9.35737 14.5663 9.35707C16.2105 9.3896 17.5397 10.7373 17.5397 12.3856V14.8024Z" fill="#4D4D4D"/>
</svg>
