<svg width="20" height="20" viewBox="0 0 20 20" fill="none" xmlns="http://www.w3.org/2000/svg">
<g clip-path="url(#clip0_2090_57812)">
<path fill-rule="evenodd" clip-rule="evenodd" d="M9.3745 2.50025C9.3745 1.46525 8.5345 0.625252 7.4995 0.625252H2.5C1.465 0.625252 0.625 1.46525 0.625 2.50025V7.49975C0.625 8.53475 1.465 9.37475 2.5 9.37475H7.4995C8.5345 9.37475 9.3745 8.53475 9.3745 7.49975V2.50025ZM8.125 2.50025V7.49975C8.125 7.84475 7.8445 8.12525 7.4995 8.12525H2.5C2.155 8.12525 1.8745 7.84475 1.8745 7.49975V2.50025C1.8745 2.15525 2.155 1.87475 2.5 1.87475H7.4995C7.8445 1.87475 8.125 2.15525 8.125 2.50025Z" fill="#4D4D4D"/>
<path fill-rule="evenodd" clip-rule="evenodd" d="M9.3745 12.5003C9.3745 11.4653 8.5345 10.6253 7.4995 10.6253H2.5C1.465 10.6253 0.625 11.4653 0.625 12.5003V17.4998C0.625 18.5348 1.465 19.3748 2.5 19.3748H7.4995C8.5345 19.3748 9.3745 18.5348 9.3745 17.4998V12.5003ZM8.125 12.5003V17.4998C8.125 17.8448 7.8445 18.1253 7.4995 18.1253H2.5C2.155 18.1253 1.8745 17.8448 1.8745 17.4998V12.5003C1.8745 12.1553 2.155 11.8748 2.5 11.8748H7.4995C7.8445 11.8748 8.125 12.1553 8.125 12.5003Z" fill="#4D4D4D"/>
<path fill-rule="evenodd" clip-rule="evenodd" d="M19.3745 2.50025C19.3745 1.46525 18.5345 0.625252 17.4995 0.625252H12.5C11.465 0.625252 10.625 1.46525 10.625 2.50025V7.49975C10.625 8.53475 11.465 9.37475 12.5 9.37475H17.4995C18.5345 9.37475 19.3745 8.53475 19.3745 7.49975V2.50025ZM18.125 2.50025V7.49975C18.125 7.84475 17.8445 8.12525 17.4995 8.12525H12.5C12.155 8.12525 11.8745 7.84475 11.8745 7.49975V2.50025C11.8745 2.15525 12.155 1.87475 12.5 1.87475H17.4995C17.8445 1.87475 18.125 2.15525 18.125 2.50025Z" fill="#4D4D4D"/>
<path fill-rule="evenodd" clip-rule="evenodd" d="M19.3745 12.5003C19.3745 11.4653 18.5345 10.6253 17.4995 10.6253H12.5C11.465 10.6253 10.625 11.4653 10.625 12.5003V17.4998C10.625 18.5348 11.465 19.3748 12.5 19.3748H17.4995C18.5345 19.3748 19.3745 18.5348 19.3745 17.4998V12.5003ZM18.125 12.5003V17.4998C18.125 17.8448 17.8445 18.1253 17.4995 18.1253H12.5C12.155 18.1253 11.8745 17.8448 11.8745 17.4998V12.5003C11.8745 12.1553 12.155 11.8748 12.5 11.8748H17.4995C17.8445 11.8748 18.125 12.1553 18.125 12.5003Z" fill="#4D4D4D"/>
</g>
<defs>
<clipPath id="clip0_2090_57812">
<rect width="20" height="20" fill="white"/>
</clipPath>
</defs>
</svg>
