<svg width="20" height="20" viewBox="0 0 20 20" fill="none" xmlns="http://www.w3.org/2000/svg">
<path d="M8.15668 13.1291L10.6426 5.6713C10.7347 5.39501 10.5853 5.09635 10.3091 5.00424C10.0328 4.91217 9.73411 5.06148 9.642 5.33777L7.1561 12.7956C7.06403 13.0719 7.21333 13.3705 7.48963 13.4626C7.54493 13.4811 7.60118 13.4898 7.65644 13.4898C7.87723 13.4898 8.08299 13.3501 8.15668 13.1291Z" fill="#4D4D4D"/>
<path d="M11.8828 10.8155C12.7551 10.8155 13.4648 10.1058 13.4648 9.23348C13.4648 8.36114 12.7551 7.65144 11.8828 7.65144C11.0105 7.65144 10.3008 8.36114 10.3008 9.23348C10.3008 10.1058 11.0105 10.8155 11.8828 10.8155ZM11.8828 8.70613C12.1736 8.70613 12.4102 8.9427 12.4102 9.23348C12.4102 9.52425 12.1736 9.76082 11.8828 9.76082C11.592 9.76082 11.3555 9.52425 11.3555 9.23348C11.3555 8.9427 11.592 8.70613 11.8828 8.70613Z" fill="#4D4D4D"/>
<path d="M5.91406 7.65144C5.04173 7.65144 4.33203 8.36114 4.33203 9.23348C4.33203 10.1058 5.04173 10.8155 5.91406 10.8155C6.7864 10.8155 7.49609 10.1058 7.49609 9.23348C7.49609 8.36114 6.78643 7.65144 5.91406 7.65144ZM5.91406 9.76082C5.62329 9.76082 5.38672 9.52425 5.38672 9.23348C5.38672 8.9427 5.62329 8.70613 5.91406 8.70613C6.20484 8.70613 6.44141 8.9427 6.44141 9.23348C6.44141 9.52425 6.20488 9.76082 5.91406 9.76082Z" fill="#4D4D4D"/>
<path d="M18.8945 7.53906L17.0556 5.08715L17.1274 4.58502C17.1508 4.4207 17.0956 4.2549 16.9782 4.13755L15.8595 3.01887L16.9782 1.9002C17.1841 1.69429 17.1841 1.36038 16.9782 1.15443C16.7723 0.948522 16.4383 0.948522 16.2324 1.15443L15.1138 2.27311L13.9951 1.15443C13.8777 1.03705 13.7119 0.981991 13.5476 1.00526L8.32716 1.75103C8.2142 1.76717 8.10954 1.81952 8.02885 1.9002L1.56544 8.36361C0.811518 9.1175 0.811518 10.3442 1.56544 11.0981L7.03446 16.5672C7.14633 16.6791 7.26881 16.7739 7.39843 16.8526V17.0664C7.39843 18.1326 8.26584 19 9.33203 19H17.0664C18.1326 19 19 18.1326 19 17.0664V7.85546C19 7.74138 18.963 7.63032 18.8945 7.53906ZM2.31121 10.3524C1.96851 10.0097 1.96851 9.45209 2.31121 9.10938L8.65031 2.77029L13.4357 2.08667L14.368 3.01891L13.6222 3.76468L13.2493 3.39178C13.0434 3.18587 12.7095 3.18587 12.5035 3.39178C12.2976 3.59769 12.2976 3.9316 12.5035 4.13755L13.9951 5.62912C14.0981 5.7321 14.233 5.7836 14.368 5.7836C14.5029 5.7836 14.6379 5.7321 14.7408 5.62912C14.9468 5.42321 14.9468 5.0893 14.7408 4.88335L14.3679 4.51045L15.1137 3.76468L16.0459 4.69692L15.3623 9.48232L9.02321 15.8214C8.85721 15.9874 8.6365 16.0788 8.40172 16.0788C8.16695 16.0788 7.94624 15.9874 7.78023 15.8214L2.31121 10.3524ZM17.9453 17.0664C17.9453 17.551 17.551 17.9453 17.0664 17.9453H9.33203C8.86923 17.9453 8.48912 17.5857 8.45576 17.1313C8.93272 17.1181 9.40575 16.9304 9.76895 16.5672L16.2324 10.1038C16.313 10.0231 16.3654 9.91843 16.3815 9.80548L16.8446 6.56372L17.9453 8.03125V17.0664Z" fill="#4D4D4D"/>
</svg>
