<svg width="20" height="20" viewBox="0 0 20 20" fill="none" xmlns="http://www.w3.org/2000/svg">
<g clip-path="url(#clip0_955_10729)">
<mask id="mask0_955_10729" style="mask-type:luminance" maskUnits="userSpaceOnUse" x="0" y="0" width="20" height="20">
<path d="M20 0H0V20H20V0Z" fill="white"/>
</mask>
<g mask="url(#mask0_955_10729)">
<path d="M5.35162 12.5873C5.53838 12.4796 5.60232 12.2405 5.49459 12.0537C5.38671 11.8671 5.14776 11.803 4.96099 11.9107C4.77422 12.0186 4.71014 12.2577 4.81802 12.4443C4.92574 12.6311 5.16485 12.6952 5.35162 12.5873Z" fill="white"/>
<path d="M3.74938 15.2832L5.71655 18.6906C6.14105 19.4267 7.09594 19.6992 7.8511 19.2626C8.59832 18.8308 8.85513 17.8761 8.42285 17.1282L7.25097 15.0982L8.26583 14.5123C8.4526 14.4042 8.51669 14.1654 8.40881 13.9787L7.90084 13.0989C7.96142 13.0871 8.35968 13.009 15.3828 11.6313C16.2511 11.5841 16.7712 10.6346 16.3327 9.87542L15.0345 7.62689L15.8641 6.37032C15.9456 6.24673 15.9505 6.08788 15.8765 5.95971L15.0952 4.60656C15.0212 4.47839 14.8807 4.40331 14.7334 4.41201L13.2306 4.50219L11.7894 2.00585C11.5807 1.64422 11.2067 1.42526 10.7892 1.42007C10.7841 1.41992 10.7793 1.41992 10.7742 1.41992C10.3708 1.41992 10.0046 1.62072 9.78759 1.96023L4.68475 8.46078L1.36733 10.3761C0.0625551 11.1291 -0.389411 12.803 0.36651 14.1113C1.05712 15.3076 2.51312 15.7782 3.74938 15.2832ZM7.74642 17.519C7.96218 17.8923 7.83447 18.3699 7.46017 18.5861C7.08465 18.8032 6.60644 18.6698 6.39312 18.3001L4.44 14.9168L5.79315 14.1355C8.05358 18.0513 7.71011 17.4563 7.74642 17.519ZM6.86035 14.4215L6.46972 13.7449L7.1463 13.3543L7.53692 14.0309L6.86035 14.4215ZM14.5393 5.20623L15.0792 6.14129L14.5978 6.87035L13.6673 5.25857L14.5393 5.20623ZM10.441 2.38854C10.5458 2.21703 10.7121 2.19933 10.7796 2.20117C10.8462 2.20193 11.0124 2.22268 11.1127 2.39633L15.6561 10.2661C15.8041 10.5223 15.6242 10.8444 15.3274 10.8517C15.2742 10.8529 15.2496 10.8625 15.1132 10.888L10.3072 2.56356C10.408 2.43386 10.421 2.42135 10.441 2.38854ZM9.78729 3.22579L14.3028 11.047L7.48794 12.3837L5.4158 8.79464L9.78729 3.22579ZM1.04308 13.7207C0.871576 13.4239 0.780939 13.087 0.780939 12.7461C0.780939 12.0494 1.15539 11.4006 1.75796 11.0527L4.80255 9.29482L6.75567 12.6777L3.71108 14.4357C2.77831 14.974 1.58157 14.6533 1.04308 13.7207Z" fill="white"/>
<path d="M4.14071 12.835C4.03283 12.6483 3.79388 12.5842 3.60711 12.692L2.93053 13.0827C2.74407 13.1904 2.50466 13.1262 2.39693 12.9397C2.28905 12.7529 2.0501 12.6888 1.86333 12.7967C1.67657 12.9046 1.61248 13.1436 1.72036 13.3303C2.04186 13.8873 2.75903 14.0836 3.32116 13.7592L3.99773 13.3686C4.1845 13.2607 4.24859 13.0219 4.14071 12.835Z" fill="white"/>
<path d="M19.4204 2.25596L17.2437 3.4672C17.0553 3.57218 16.9874 3.81007 17.0924 3.99851C17.197 4.18681 17.4348 4.25501 17.6237 4.14988L19.8002 2.93864C19.9888 2.83366 20.0565 2.59577 19.9515 2.40733C19.8467 2.21873 19.6088 2.15098 19.4204 2.25596Z" fill="white"/>
<path d="M19.1926 6.30156L17.6833 5.8972C17.4749 5.84136 17.2607 5.96495 17.2048 6.17339C17.149 6.38182 17.2727 6.5959 17.4811 6.65175L18.9905 7.05611C19.2002 7.11241 19.4134 6.98683 19.4689 6.77992C19.5248 6.57149 19.401 6.35726 19.1926 6.30156Z" fill="white"/>
<path d="M15.3987 0.836475L14.9939 2.34587C14.938 2.55431 15.0616 2.76839 15.2701 2.82439C15.4784 2.88008 15.6926 2.75679 15.7486 2.54821L16.1532 1.03881C16.2091 0.830372 16.0855 0.616138 15.8771 0.560291C15.6688 0.504444 15.4545 0.62804 15.3987 0.836475Z" fill="white"/>
</g>
</g>
<defs>
<clipPath id="clip0_955_10729">
<rect width="20" height="20" fill="white"/>
</clipPath>
</defs>
</svg>
