<svg width="20" height="20" viewBox="0 0 20 20" fill="none" xmlns="http://www.w3.org/2000/svg">
<path d="M17.2681 2H2.7319C1.77692 2 1 2.77695 1 3.7319V17.8555H19V3.7319C19 2.77695 18.2231 2 17.2681 2ZM2.7319 3.05469H17.2681C17.6415 3.05469 17.9453 3.35851 17.9453 3.7319V6.21875H2.05469V3.7319C2.05469 3.35851 2.35847 3.05469 2.7319 3.05469ZM2.05469 16.8008V7.27344H17.9453V16.8008H2.05469Z" fill="white"/>
<path d="M3.10938 4.10938H4.16406V5.16406H3.10938V4.10938Z" fill="white"/>
<path d="M3.10938 8.32812H4.16406V9.38281H3.10938V8.32812Z" fill="white"/>
<path d="M5.21875 4.10938H6.27344V5.16406H5.21875V4.10938Z" fill="white"/>
<path d="M7.32812 4.10938H8.38281V5.16406H7.32812V4.10938Z" fill="white"/>
<path d="M9.4375 4.10938H16.8906V5.16406H9.4375V4.10938Z" fill="white"/>
<path d="M3.10938 10.4375H4.16406V11.4922H3.10938V10.4375Z" fill="white"/>
<path d="M3.10938 14.6562H4.16406V15.7109H3.10938V14.6562Z" fill="white"/>
<path d="M5.21875 8.32812H9.40234V9.38281H5.21875V8.32812Z" fill="white"/>
<path d="M5.21875 13.6016H9.40234V10.4375H5.21875V13.6016ZM6.27344 11.4922H8.34766V12.5469H6.27344V11.4922Z" fill="white"/>
<path d="M5.21875 14.6562H9.40234V15.7109H5.21875V14.6562Z" fill="white"/>
<path d="M15.4564 11.0355L15.9288 10.5631L15.1829 9.81734L14.7106 10.2897C14.5579 10.2012 14.393 10.1319 14.2188 10.0852V9.41797H13.1641V10.0852C12.9898 10.1319 12.8249 10.2012 12.6722 10.2897L12.1999 9.81734L11.4541 10.5631L11.9265 11.0355C11.838 11.1882 11.7686 11.3531 11.7219 11.5273H11.0547V12.582H11.7219C11.7686 12.7563 11.838 12.9212 11.9265 13.0739L11.4541 13.5463L12.1999 14.292L12.6722 13.8196C12.8249 13.9081 12.9898 13.9775 13.1641 14.0242V14.6914H14.2188V14.0242C14.393 13.9775 14.5579 13.9081 14.7106 13.8196L15.1829 14.292L15.9288 13.5463L15.4564 13.0739C15.5448 12.9212 15.6142 12.7563 15.6609 12.582H16.3281V11.5273H15.6609C15.6142 11.3531 15.5448 11.1882 15.4564 11.0355ZM13.6914 13.0391C13.1486 13.0391 12.707 12.5975 12.707 12.0547C12.707 11.5119 13.1486 11.0703 13.6914 11.0703C14.2342 11.0703 14.6758 11.5119 14.6758 12.0547C14.6758 12.5975 14.2342 13.0391 13.6914 13.0391Z" fill="white"/>
</svg>
