<svg width="25" height="24" viewBox="0 0 25 24" fill="none" xmlns="http://www.w3.org/2000/svg">
<g clip-path="url(#clip0_1047_49403)">
<path d="M8.26247 18.8843C8.5455 18.8843 8.77494 18.6549 8.77494 18.3718C8.77494 18.0888 8.5455 17.8594 8.26247 17.8594C7.97944 17.8594 7.75 18.0888 7.75 18.3718C7.75 18.6549 7.97944 18.8843 8.26247 18.8843Z" fill="#DF6D5D"/>
<path d="M16.6741 18.8843C16.9571 18.8843 17.1866 18.6549 17.1866 18.3718C17.1866 18.0888 16.9571 17.8594 16.6741 17.8594C16.3911 17.8594 16.1616 18.0888 16.1616 18.3718C16.1616 18.6549 16.3911 18.8843 16.6741 18.8843Z" fill="#DF6D5D"/>
<path d="M12.4996 0C5.87247 0 0.5 5.37287 0.5 11.9998C0.5 18.6267 5.87247 24 12.4996 24C19.127 24 24.4997 18.6269 24.4997 11.9998C24.4997 5.37271 19.127 0 12.4996 0ZM9.22025 16.6153H16.674C17.643 16.6153 18.4312 17.4038 18.4312 18.3727C18.4312 19.3417 17.643 20.1301 16.674 20.1301C15.7049 20.1301 14.9164 19.3417 14.9164 18.3727C14.9164 18.1945 14.9436 18.0225 14.993 17.8603H9.94312C9.99272 18.0225 10.0199 18.1943 10.0199 18.3727C10.0199 19.3417 9.23169 20.1301 8.26251 20.1301C7.29333 20.1301 6.5051 19.3417 6.5051 18.3727C6.5051 17.5071 7.13485 16.7873 7.96004 16.6433L7.65108 14.9418L7.64772 14.9256L6.00903 6.81613L4.50353 6.82605L4.49521 5.58111L7.02637 5.56431L7.63884 8.5949L18.9859 9.95535L17.5444 15.448H9.00818L9.22025 16.6153Z" fill="#DF6D5D"/>
</g>
<defs>
<clipPath id="clip0_1047_49403">
<rect width="24" height="24" fill="white" transform="translate(0.5)"/>
</clipPath>
</defs>
</svg>
