<svg width="16" height="16" viewBox="0 0 16 16" fill="none" xmlns="http://www.w3.org/2000/svg">
<path d="M12.9997 13.3307H11.333C11.1562 13.3307 10.9866 13.2605 10.8616 13.1355C10.7366 13.0104 10.6663 12.8409 10.6663 12.6641C10.6663 12.4873 10.7366 12.3177 10.8616 12.1927C10.9866 12.0676 11.1562 11.9974 11.333 11.9974H12.9997C13.0877 11.9963 13.1719 11.9608 13.2342 11.8985C13.2964 11.8363 13.3319 11.7521 13.333 11.6641V2.33073C13.3319 2.24267 13.2964 2.15853 13.2342 2.09625C13.1719 2.03398 13.0877 1.9985 12.9997 1.9974H4.99967C4.91161 1.9985 4.82747 2.03398 4.7652 2.09625C4.70292 2.15853 4.66745 2.24267 4.66634 2.33073V3.9974C4.66634 4.17421 4.5961 4.34378 4.47108 4.4688C4.34605 4.59382 4.17649 4.66406 3.99967 4.66406C3.82286 4.66406 3.65329 4.59382 3.52827 4.4688C3.40325 4.34378 3.33301 4.17421 3.33301 3.9974V2.33073C3.33347 1.88884 3.50922 1.46519 3.82168 1.15273C4.13414 0.84027 4.55779 0.664527 4.99967 0.664062H12.9997C13.4416 0.664527 13.8652 0.84027 14.1777 1.15273C14.4901 1.46519 14.6659 1.88884 14.6663 2.33073V11.6641C14.6659 12.1059 14.4901 12.5296 14.1777 12.8421C13.8652 13.1545 13.4416 13.3303 12.9997 13.3307Z" fill="white"/>
<path d="M10.333 15.3281H2.99967C2.55779 15.3277 2.13414 15.1519 1.82168 14.8395C1.50922 14.527 1.33347 14.1033 1.33301 13.6615V4.99479C1.33347 4.55291 1.50922 4.12925 1.82168 3.81679C2.13414 3.50433 2.55779 3.32859 2.99967 3.32812H10.333C10.7749 3.32859 11.1985 3.50433 11.511 3.81679C11.8235 4.12925 11.9992 4.55291 11.9997 4.99479V13.6615C11.9992 14.1033 11.8235 14.527 11.511 14.8395C11.1985 15.1519 10.7749 15.3277 10.333 15.3281ZM2.99967 4.66146C2.9113 4.66157 2.82659 4.69673 2.7641 4.75922C2.70161 4.8217 2.66646 4.90642 2.66634 4.99479V13.6615C2.66646 13.7498 2.70161 13.8345 2.7641 13.897C2.82659 13.9595 2.9113 13.9947 2.99967 13.9948H10.333C10.4214 13.9947 10.5061 13.9595 10.5686 13.897C10.6311 13.8345 10.6662 13.7498 10.6663 13.6615V4.99479C10.6662 4.90642 10.6311 4.8217 10.5686 4.75922C10.5061 4.69673 10.4214 4.66157 10.333 4.66146H2.99967Z" fill="white"/>
</svg>
