<svg width="42" height="42" viewBox="0 0 42 42" fill="none" xmlns="http://www.w3.org/2000/svg">
<path d="M28.3628 14.7955C27.4749 13.9108 26.2725 13.4141 25.0191 13.4141C23.7656 13.4141 22.5633 13.9108 21.6753 14.7955L21.0003 15.4705L20.3253 14.7955C19.4374 13.9108 18.235 13.4141 16.9816 13.4141C15.7281 13.4141 14.5258 13.9108 13.6378 14.7955C12.7528 15.6845 12.2559 16.8879 12.2559 18.1424C12.2559 19.3968 12.7528 20.6002 13.6378 21.4892L20.5566 28.408C20.6147 28.4666 20.6838 28.5131 20.76 28.5448C20.8361 28.5765 20.9178 28.5929 21.0003 28.5929C21.0828 28.5929 21.1645 28.5765 21.2407 28.5448C21.3169 28.5131 21.386 28.4666 21.4441 28.408L28.3628 21.4892C29.2479 20.6002 29.7448 19.3968 29.7448 18.1424C29.7448 16.8879 29.2479 15.6845 28.3628 14.7955Z" fill="#404054"/>
</svg>
