<svg width="42" height="42" viewBox="0 0 42 42" fill="none" xmlns="http://www.w3.org/2000/svg">
<path fill-rule="evenodd" clip-rule="evenodd" d="M28.9865 21.3443C27.3727 24.2425 24.312 26.0429 21.0007 26.0429C17.6872 26.0429 14.6266 24.2425 13.0127 21.3443C12.8884 21.1193 12.8884 20.8814 13.0127 20.6566C14.6266 17.7584 17.6872 15.9583 21.0007 15.9583C24.312 15.9583 27.3726 17.7584 28.9865 20.6566C29.113 20.8814 29.113 21.1193 28.9865 21.3443ZM30.0175 20.082C28.1957 16.8098 24.7407 14.7773 21.0007 14.7773C17.2585 14.7773 13.8035 16.8098 11.9817 20.082C11.6559 20.6658 11.6559 21.3351 11.9817 21.9185C13.8035 25.1907 17.2585 27.2236 21.0007 27.2236C24.7407 27.2236 28.1957 25.1907 30.0175 21.9185C30.3433 21.3352 30.3433 20.6658 30.0175 20.082ZM21.0007 23.4229C22.3359 23.4229 23.4226 22.3362 23.4226 21.0004C23.4226 19.6645 22.3359 18.5778 21.0007 18.5778C19.6633 18.5778 18.5766 19.6645 18.5766 21.0004C18.5766 22.3362 19.6633 23.4229 21.0007 23.4229ZM21.0007 17.3969C19.0117 17.3969 17.3957 19.0136 17.3957 21.0004C17.3957 22.9877 19.0117 24.6037 21.0007 24.6037C22.9875 24.6037 24.6035 22.9876 24.6035 21.0004C24.6035 19.0136 22.9875 17.3969 21.0007 17.3969Z" fill="#404054"/>
</svg>
