<svg width="42" height="42" viewBox="0 0 42 42" fill="none" xmlns="http://www.w3.org/2000/svg">
<path d="M28.3628 14.7955C27.4749 13.9108 26.2725 13.4141 25.0191 13.4141C23.7656 13.4141 22.5633 13.9108 21.6753 14.7955L21.0003 15.4705L20.3253 14.7955C19.4374 13.9108 18.235 13.4141 16.9816 13.4141C15.7281 13.4141 14.5258 13.9108 13.6378 14.7955C12.7528 15.6845 12.2559 16.8879 12.2559 18.1424C12.2559 19.3968 12.7528 20.6002 13.6378 21.4892L20.5566 28.408C20.6147 28.4666 20.6838 28.5131 20.76 28.5448C20.8361 28.5765 20.9178 28.5929 21.0003 28.5929C21.0828 28.5929 21.1645 28.5765 21.2407 28.5448C21.3169 28.5131 21.386 28.4666 21.4441 28.408L28.3628 21.4892C29.2479 20.6002 29.7448 19.3968 29.7448 18.1424C29.7448 16.8879 29.2479 15.6845 28.3628 14.7955ZM27.4816 20.6017L21.0003 27.083L14.5191 20.6017C13.8676 19.9491 13.5017 19.0645 13.5017 18.1424C13.5017 17.2202 13.8676 16.3357 14.5191 15.683C15.1728 15.0311 16.0584 14.6651 16.9816 14.6651C17.9048 14.6651 18.7903 15.0311 19.4441 15.683L20.5566 16.7955C20.6147 16.8541 20.6838 16.9006 20.76 16.9323C20.8361 16.964 20.9178 16.9804 21.0003 16.9804C21.0828 16.9804 21.1645 16.964 21.2407 16.9323C21.3169 16.9006 21.386 16.8541 21.4441 16.7955L22.5566 15.683C23.2103 15.0311 24.0959 14.6651 25.0191 14.6651C25.9423 14.6651 26.8278 15.0311 27.4816 15.683C28.1331 16.3357 28.499 17.2202 28.499 18.1424C28.499 19.0645 28.1331 19.9491 27.4816 20.6017Z" fill="#404054"/>
</svg>
