<svg width="222" height="76" viewBox="0 0 222 76" fill="none" xmlns="http://www.w3.org/2000/svg">
<g clip-path="url(#clip0_1396_8470)">
<path d="M25.6011 61.1752C25.8862 61.0895 26.1427 61.0038 26.4563 60.9467C26.7699 60.861 27.055 60.8324 27.2546 60.7753V47.8373C26.6559 47.7516 26.1427 47.6088 25.6296 47.4375V47.209H31.645C33.384 47.209 34.6384 47.5517 35.3797 48.3228C36.1209 49.0369 36.52 50.0936 36.52 51.436C36.52 52.7212 36.1779 53.8065 35.4082 54.5776C34.6384 55.3488 33.5551 55.8057 32.1011 55.8057H29.0222V60.8039C29.5638 60.8896 30.134 61.0038 30.6757 61.2037V61.4322H25.6011C25.6011 61.4036 25.6011 61.1752 25.6011 61.1752ZM31.759 55.0632C32.7283 55.0632 33.4981 54.7204 34.0112 54.035C34.4959 53.3781 34.7525 52.4641 34.7525 51.4074C34.7525 50.3507 34.5244 49.4653 34.0112 48.8941C33.5266 48.2943 32.7854 47.9801 31.759 47.9801H29.1362V55.1203H31.759V55.0632Z" fill="#B44736"/>
<path d="M50.1465 61.1747V61.4032H47.2101L43.903 55.3483H41.5083V60.832C42.0214 60.9176 42.5631 61.0319 43.1618 61.2318V61.4603H37.9731V61.2318C38.2012 61.1461 38.4863 61.0604 38.7999 61.0033C39.1135 60.9176 39.3986 60.8891 39.6267 60.832V47.894C39.085 47.8083 38.5148 47.694 38.0017 47.4941V47.2656H44.6443C46.1838 47.2656 47.2671 47.6084 47.9798 48.3224C48.6355 49.0364 49.0061 50.0075 49.0061 51.2641C49.0061 52.4065 48.7211 53.3205 48.1509 54.0059C47.5522 54.72 46.6969 55.1484 45.5566 55.2626L48.6926 60.8034C49.3768 60.9462 49.8899 61.0604 50.1465 61.1747ZM41.5083 54.6057H44.1311C45.1574 54.6057 45.9272 54.2916 46.4118 53.6918C46.8965 53.092 47.1531 52.2637 47.1531 51.207C47.1531 50.1503 46.925 49.322 46.4118 48.7793C45.9272 48.2367 45.1574 47.9511 44.1311 47.9511H41.5083V54.6057Z" fill="#B44736"/>
<path d="M65.1713 61.1776V61.4061H60.0967V61.1776C60.5813 61.0062 61.123 60.8634 61.7502 60.8349L60.6384 57.7503H54.5944L53.4826 60.8349C54.0813 60.9205 54.6229 61.0348 55.1646 61.2347V61.4632H50.8027V61.1776C51.0308 61.0919 51.3159 61.0062 51.6295 60.9491C51.9431 60.8634 52.1712 60.8349 52.4277 60.7777L57.3883 47.1543H58.6427L63.6033 60.7777C64.1735 60.8634 64.6866 61.0062 65.1713 61.1776ZM60.4103 57.0077L57.6164 49.1821L54.794 57.0077H60.4103Z" fill="#B44736"/>
<path d="M66.1125 61.1752C66.3406 61.0895 66.6257 61.0038 66.9393 60.9467C67.2529 60.861 67.5379 60.8324 67.7375 60.7753V47.8373C67.1103 47.7516 66.5686 47.6088 66.1125 47.4375V47.209H71.2726V47.4946C70.788 47.666 70.2463 47.7802 69.6191 47.8373V54.8061L75.72 48.1515C75.8056 48.0658 75.8341 47.9801 75.8341 47.9516C75.8341 47.8373 75.663 47.7516 75.3209 47.666C75.0073 47.5803 74.6652 47.5517 74.3516 47.5517V47.2375H78.3999V47.5517C78.2859 47.5803 78.1148 47.5803 77.9152 47.6374C77.7157 47.666 77.5731 47.7231 77.4021 47.7516C77.231 47.7802 77.117 47.8659 77.003 47.9801L72.2419 53.0925L78.2573 60.7753C78.9131 60.8896 79.4832 61.0038 79.9394 61.1752V61.4036H76.7464L71.1586 54.292L69.5906 56.0342V60.8039C70.1323 60.8896 70.7024 61.0038 71.2441 61.2037V61.4322H66.084L66.1125 61.1752Z" fill="#B44736"/>
<path d="M94.6789 61.1776V61.4061H89.6043V61.1776C90.089 61.0062 90.6306 60.8634 91.2578 60.8349L90.146 57.7503H84.1021L82.9902 60.8349C83.5889 60.9205 84.1306 61.0348 84.6722 61.2347V61.4632H80.3389V61.1776C80.5669 61.0919 80.852 61.0062 81.1656 60.9491C81.4792 60.8634 81.7073 60.8349 81.9639 60.7777L86.9245 47.1543H88.1789L93.1394 60.7777C93.7096 60.8634 94.1943 61.0062 94.6789 61.1776ZM89.9179 57.0077L87.124 49.1821L84.3016 57.0077H89.9179Z" fill="#B44736"/>
<path d="M96.6173 61.0909C95.7906 60.7482 95.1634 60.2912 94.6787 59.7486L94.8783 57.0067H95.3629C95.477 57.3495 95.591 58.1777 95.705 59.4915C96.0471 59.9199 96.5033 60.2341 97.045 60.4626C97.5866 60.6911 98.2138 60.8624 98.9266 60.8624C99.8674 60.8624 100.694 60.634 101.35 60.1199C102.006 59.6058 102.376 58.8918 102.376 58.0064C102.376 57.4066 102.205 56.8639 101.891 56.4641C101.578 56.0357 101.179 55.6644 100.723 55.4073C100.238 55.1217 99.6108 54.8076 98.841 54.4648C97.9858 54.065 97.3015 53.7508 96.7599 53.4367C96.2467 53.1225 95.8191 52.7226 95.477 52.2657C95.1349 51.7516 94.9353 51.1518 94.9353 50.4092C94.9353 49.2954 95.3629 48.4671 96.1897 47.8959C97.0165 47.2961 98.1853 47.0391 99.6393 47.0391C101.492 47.0391 102.861 47.5246 103.802 48.4957L103.602 50.8662H103.117C102.946 50.3521 102.804 49.6381 102.718 48.667C102.405 48.3814 102.006 48.1529 101.578 48.0101C101.093 47.8388 100.637 47.7816 100.095 47.7816C99.0406 47.7816 98.2138 47.9816 97.6722 48.3814C97.1305 48.7813 96.8454 49.3525 96.8454 50.1522C96.8454 50.5806 97.0165 50.9804 97.273 51.3232C97.5581 51.6373 97.9002 51.9515 98.2994 52.18C98.6985 52.4085 99.2687 52.6941 99.9814 53.0082C100.922 53.4081 101.663 53.8079 102.234 54.1507C102.832 54.4934 103.288 54.9789 103.716 55.5787C104.115 56.1785 104.343 56.8639 104.343 57.7493C104.343 58.549 104.144 59.2345 103.716 59.8343C103.288 60.434 102.69 60.891 101.949 61.2052C101.207 61.5193 100.381 61.6907 99.4397 61.6907C98.3849 61.605 97.4441 61.4336 96.6173 61.0909Z" fill="#B44736"/>
<path d="M118.568 47.8654V60.7748C119.195 60.8605 119.737 61.0033 120.222 61.1747V61.4032H115.147V61.2032C115.489 61.089 115.774 60.9748 115.974 60.9176C116.173 60.8891 116.459 60.8319 116.715 60.8034V54.5772H109.331V60.8034C109.959 60.9176 110.5 61.0319 110.899 61.2032V61.4317H105.825V61.2032C106.338 61.0033 106.88 60.8891 107.45 60.8605V47.9225C106.851 47.8368 106.338 47.694 105.825 47.5227V47.2942H110.899V47.5227C110.557 47.6369 110.272 47.7512 110.073 47.8083C109.873 47.8368 109.645 47.894 109.331 47.9225V53.8631H116.715V47.894C116.288 47.8083 115.746 47.694 115.147 47.4941V47.2656H120.222V47.5512C119.623 47.694 119.081 47.8368 118.568 47.8654Z" fill="#B44736"/>
<path d="M126.808 60.9462L135.247 48.0082H128.576C128.547 48.2938 128.49 48.6651 128.376 49.1792C128.262 49.6933 128.148 50.0075 128.063 50.2074H127.635V47.2656H137.271V47.6084L128.775 60.7463H135.988C136.017 60.4321 136.102 60.0894 136.302 59.5753C136.473 59.0898 136.615 58.747 136.786 58.5471H137.214L136.9 61.4603H126.808V60.9462Z" fill="#B44736"/>
<path d="M152.466 61.1776V61.4061H147.391V61.1776C147.876 61.0062 148.418 60.8634 149.045 60.8349L147.933 57.7503H141.889L140.777 60.8349C141.376 60.9205 141.918 61.0348 142.459 61.2347V61.4632H138.126V61.1776C138.354 61.0919 138.639 61.0062 138.953 60.9491C139.266 60.8634 139.494 60.8349 139.751 60.7777L144.712 47.1543H145.966L150.927 60.7777C151.468 60.8634 152.01 61.0062 152.466 61.1776ZM147.734 57.0077L144.94 49.1821L142.117 57.0077H147.734Z" fill="#B44736"/>
<path d="M151.468 47.8647C150.869 47.779 150.356 47.6362 149.929 47.4648V47.2363H154.946V47.5219C154.462 47.6933 153.92 47.8361 153.264 47.8647L157.227 59.9173L161.19 47.8647C160.477 47.779 159.935 47.6362 159.508 47.4648V47.2363H163.841V47.5219C163.299 47.7219 162.786 47.8647 162.302 47.9503L157.626 61.5452H156.144L151.468 47.8647Z" fill="#B44736"/>
<path d="M175.673 58.4892L175.388 61.4024H165.068V61.1739C165.61 60.974 166.18 60.8598 166.75 60.7741V47.8647C166.265 47.8361 165.695 47.6647 165.068 47.4648V47.2363H175.388V50.1781H174.961C174.846 49.9782 174.732 49.6354 174.647 49.1499C174.533 48.6358 174.447 48.236 174.447 47.9789H168.632V54.0909H172.822C172.851 53.8624 172.908 53.5768 172.993 53.2341C173.079 52.9199 173.164 52.6343 173.221 52.4058H173.535V56.49H173.221C173.136 56.2615 173.05 55.9759 172.993 55.6617C172.936 55.3476 172.879 55.0334 172.822 54.8335H168.632V60.7455H174.476C174.476 60.4599 174.59 60.0886 174.761 59.6031C174.932 59.1176 175.075 58.7748 175.246 58.5464L175.673 58.4892Z" fill="#B44736"/>
<path d="M189.642 61.1747V61.4032H186.706L183.399 55.3483H181.004V60.832C181.517 60.9176 182.059 61.0319 182.658 61.2318V61.4603H177.498V61.2318C177.726 61.1461 178.011 61.0604 178.324 61.0033C178.638 60.9176 178.923 60.8891 179.151 60.832V47.894C178.609 47.8083 178.039 47.694 177.526 47.4941V47.2656H184.169C185.708 47.2656 186.792 47.6084 187.504 48.3224C188.16 49.0364 188.531 50.0075 188.531 51.2641C188.531 52.4065 188.245 53.3205 187.675 54.0059C187.105 54.6914 186.221 55.1484 185.081 55.2626L188.217 60.8034C188.873 60.9462 189.329 61.0604 189.642 61.1747ZM180.976 54.6057H183.599C184.625 54.6057 185.395 54.2916 185.879 53.6918C186.364 53.092 186.62 52.2637 186.62 51.207C186.62 50.1503 186.392 49.322 185.879 48.7793C185.395 48.2367 184.625 47.9511 183.599 47.9511H180.976V54.6057Z" fill="#B44736"/>
<path d="M191.039 61.1747C191.638 61.0033 192.179 60.8605 192.693 60.832V47.894C192.151 47.8083 191.581 47.694 191.039 47.4941V47.2656H196.199V47.5512C195.715 47.7226 195.173 47.8368 194.546 47.894V60.832C195.087 60.9176 195.658 61.0319 196.199 61.2318V61.4603H191.039V61.1747Z" fill="#B44736"/>
<path d="M144.627 0.914473C139.296 8.71154 134.335 15.966 129.374 23.2204C126.923 26.819 124.271 30.332 122.048 34.0734C120.565 36.5582 118.769 37.5007 116.004 37.1865C114.407 36.9866 112.725 37.158 110.644 37.158C111.414 35.8442 111.955 34.9017 112.583 33.9877C119.311 24.1058 126.124 14.2809 132.739 4.34176C134.392 1.82842 136.074 0.37182 139.21 0.885913C140.75 1.1144 142.346 0.914473 144.627 0.914473Z" fill="#B44736"/>
<path d="M84.7286 37.0997C82.0487 37.0997 79.5684 37.0997 76.8315 37.0997C76.8315 25.1328 76.8315 13.223 76.8315 1.11328C79.3974 1.11328 81.9632 1.11328 84.7286 1.11328C84.7286 12.966 84.7286 24.8758 84.7286 37.0997Z" fill="#B44736"/>
<path d="M92.7686 23.8783C98.3848 15.8242 98.3848 9.05534 92.9396 1.05835C97.5296 0.372892 101.179 1.80093 103.716 5.57094C106.453 9.62656 106.567 14.0249 104.343 18.309C101.977 22.7645 97.9002 24.1639 92.7686 23.8783Z" fill="#B44736"/>
<path d="M130.914 36.9864C136.673 34.216 140.75 29.9604 143.544 24.334C143.772 24.4197 144 24.5053 144.228 24.591C144 28.4182 143.8 32.2453 143.458 36.0439C143.43 36.4152 142.546 36.9578 142.033 36.9578C138.355 37.0435 134.649 36.9864 130.914 36.9864Z" fill="#B44736"/>
<path d="M110.16 13.1932C110.416 9.2233 110.644 5.31049 110.901 1.14062C115.149 1.14062 119.283 1.14062 124.215 1.14062C117.772 3.68253 113.609 7.85239 110.872 13.5074C110.616 13.4217 110.388 13.2789 110.16 13.1932Z" fill="#B44736"/>
<path d="M62.4057 71.916H34.6094V73.0013H62.4057V71.916Z" fill="#B44736"/>
<path d="M189.071 71.916H161.274V73.0013H189.071V71.916Z" fill="#B44736"/>
<path d="M68.5923 68.8306C68.5638 68.8306 68.5068 68.8306 68.3643 68.8591C68.3073 68.8591 68.2217 68.8591 68.1362 68.8591C68.0222 68.8591 67.9081 68.8877 67.7656 68.8877H64.7151C64.4585 68.8877 64.259 68.8877 64.1164 68.8591C64.0024 68.8306 63.9169 68.8306 63.8598 68.802C63.8028 68.7734 63.7743 68.7734 63.7173 68.7734C63.6033 68.7734 63.5748 68.8877 63.5462 68.9448V68.9734L63.5177 69.0305V69.0876C63.5177 69.1162 63.4607 69.3447 63.4322 69.4875C63.3752 69.7731 63.3467 69.8873 63.3467 69.9444C63.3467 70.0587 63.4322 70.1444 63.5462 70.1444C63.6603 70.1444 63.7173 70.1158 63.7458 70.0301C63.7743 69.973 63.8028 69.9444 63.8313 69.8873C63.8598 69.8587 63.8598 69.8016 63.8884 69.7731C63.9739 69.6303 64.1164 69.5731 64.6011 69.5731L65.6274 69.5446V72.6863C65.6274 73.4288 65.6274 74.0857 65.5989 74.3713C65.5704 74.5998 65.5419 74.6569 65.5134 74.6855C65.4849 74.6855 65.4278 74.6855 65.3708 74.7141C65.3423 74.7141 65.3138 74.7141 65.2853 74.7141C65.1713 74.7141 65.0857 74.7997 65.0857 74.914C65.0857 74.9997 65.1713 75.1139 65.3708 75.1139C65.5704 75.1139 65.941 75.0853 66.1121 75.0853H66.2261C66.2546 75.0853 66.3116 75.0853 66.3971 75.0853C66.5967 75.0853 66.9388 75.1139 67.2524 75.1139C67.509 75.1139 67.5375 74.9711 67.5375 74.914C67.5375 74.7712 67.4235 74.7141 67.3379 74.7141C67.1669 74.7141 67.0529 74.7141 66.9958 74.6855C66.9388 74.6855 66.8818 74.6569 66.8533 74.6284C66.7678 74.5427 66.7678 74.4285 66.7963 74.3999C66.7963 74.2 66.7393 73.5145 66.6537 72.5434V69.5446L67.5375 69.5731C68.3358 69.5731 68.3643 69.7731 68.3643 69.8587V69.9444C68.3643 70.2015 68.5068 70.23 68.5638 70.23C68.6494 70.23 68.7634 70.1444 68.7634 70.0015C68.7634 69.9444 68.7634 69.8302 68.7634 69.6874C68.7634 69.4875 68.7919 69.2304 68.7919 69.1162C68.7634 68.8591 68.6779 68.8306 68.5923 68.8306Z" fill="#B44736"/>
<path d="M75.8334 74.6572C75.7764 74.6572 75.7194 74.6572 75.5769 74.6286C75.4058 74.6001 75.1777 74.5144 74.7786 74.1145C74.351 73.7147 73.8948 73.1149 73.3531 72.4295L73.1821 72.201C73.8093 71.6298 74.0944 71.0871 74.0944 70.4017C74.0944 69.6591 73.5812 69.2592 73.4957 69.2021C73.0395 68.8879 72.4409 68.8594 71.8992 68.8594C71.6996 68.8594 71.386 68.8594 71.1294 68.8879C70.9869 68.8879 70.9014 68.8879 70.8729 68.8879H70.7873C70.6163 68.8879 70.2172 68.8594 69.9321 68.8594C69.6755 68.8594 69.647 69.0022 69.647 69.0593C69.647 69.1735 69.7325 69.2592 69.8465 69.2592C69.875 69.2592 69.9036 69.2592 69.9606 69.2592C70.0176 69.2592 70.0746 69.2878 70.1031 69.2878C70.2457 69.3163 70.2742 69.3163 70.3027 69.602C70.3312 69.8304 70.3312 70.0589 70.3312 71.2299L70.3882 72.5723C70.3882 73.3434 70.3882 73.9717 70.3597 74.2573V74.3145C70.3312 74.5144 70.3312 74.543 70.3027 74.543C70.2457 74.543 70.1886 74.543 70.1316 74.5715C70.1031 74.5715 70.0746 74.5715 70.0461 74.5715C69.9321 74.5715 69.8465 74.6572 69.8465 74.7714C69.8465 74.8571 69.9321 74.9714 70.1316 74.9714C70.3597 74.9714 70.8729 74.9428 70.9014 74.9428H70.9584C71.1294 74.9428 71.5286 74.9714 71.8707 74.9714C72.1273 74.9714 72.1558 74.8286 72.1558 74.7714C72.1558 74.6286 72.0417 74.5715 71.9562 74.5715C71.7851 74.5715 71.6711 74.5715 71.6141 74.543C71.4716 74.5144 71.443 74.4573 71.4145 74.2288C71.386 73.9432 71.386 73.3148 71.386 72.5723V72.5437L72.3268 72.5723C72.4979 72.7722 72.84 73.2006 73.1821 73.6861C73.6097 74.2573 73.9233 74.6572 74.3225 74.8571C74.5505 75.0285 74.8071 75.057 75.2633 75.057H75.7479C75.8334 75.057 76.09 75.057 76.09 74.8571C76.033 74.7143 75.919 74.6572 75.8334 74.6572ZM72.5834 71.8868C72.4124 72.001 72.2128 72.0011 72.0417 72.0011C71.7281 72.0011 71.386 71.9439 71.2435 71.8868V69.4591C71.272 69.4591 71.329 69.4591 71.3575 69.4591C71.4716 69.4591 71.6141 69.4306 71.7566 69.4306C72.5549 69.4306 73.011 69.9447 73.011 70.8301C73.011 71.287 72.84 71.6869 72.5834 71.8868Z" fill="#B44736"/>
<path d="M81.5359 68.8906C81.3648 68.8906 81.1368 68.8906 80.9942 68.9192C80.9372 68.9192 80.8802 68.9192 80.8517 68.9192C80.8232 68.9192 80.7947 68.9192 80.7376 68.9192C80.5666 68.9192 80.253 68.8906 79.9679 68.8906C79.7113 68.8906 79.6828 69.0334 79.6828 69.0905C79.6828 69.2048 79.7683 69.2905 79.8824 69.2905C79.9109 69.2905 79.9394 69.2905 79.9964 69.2905C80.0534 69.2905 80.1104 69.319 80.1389 69.319C80.2815 69.3476 80.3385 69.3762 80.3385 69.6332C80.367 69.8617 80.367 70.0902 80.367 71.2612V72.2322C80.367 72.8891 80.31 73.5746 79.9394 74.0316C79.6543 74.3457 79.2267 74.5171 78.799 74.5171C78.3429 74.5171 78.0578 74.46 77.6872 74.1172C77.4306 73.8887 77.1455 73.5175 77.1455 72.3465V71.2612C77.1455 70.0902 77.1455 69.8617 77.174 69.6046C77.174 69.3476 77.231 69.319 77.3166 69.319C77.4021 69.2905 77.4306 69.2905 77.4876 69.2905C77.6016 69.2905 77.6872 69.2048 77.6872 69.0905C77.6872 69.0049 77.6016 68.8906 77.4021 68.8906C77.2595 68.8906 76.9459 68.8906 76.7464 68.9192C76.6608 68.9192 76.5753 68.9192 76.5753 68.9192C76.5468 68.9192 76.5183 68.9192 76.4328 68.9192C76.2617 68.9192 75.9196 68.8906 75.663 68.8906C75.4064 68.8906 75.3779 69.0334 75.3779 69.0905C75.3779 69.2048 75.4635 69.2905 75.5775 69.2905C75.606 69.2905 75.6345 69.2905 75.6915 69.2905C75.7485 69.2905 75.8056 69.319 75.8341 69.319C75.9766 69.3476 76.0051 69.3476 76.0336 69.6332C76.0622 69.8617 76.0621 70.0902 76.0621 71.2612C76.0336 71.7753 76.0336 73.3175 76.6893 74.2315C76.7464 74.2886 76.8319 74.4314 76.9744 74.5742C77.5161 75.0883 78.3714 75.1454 78.7135 75.1454C79.2552 75.1454 79.8824 75.0883 80.5096 74.5742C81.2223 74.003 81.3078 73.0034 81.3078 72.118V71.2612C81.3078 70.7471 81.3078 70.4043 81.3078 70.1759C81.3078 69.8902 81.3078 69.7474 81.3078 69.6332C81.3363 69.3476 81.3648 69.3476 81.4789 69.319C81.5644 69.2905 81.5929 69.2905 81.6499 69.2905C81.764 69.2905 81.8495 69.2048 81.8495 69.0905C81.821 69.0049 81.7354 68.8906 81.5359 68.8906Z" fill="#B44736"/>
<path d="M84.5289 71.3436L84.3008 71.1723C83.5026 70.6296 83.303 70.4011 83.303 69.9727C83.303 69.4586 83.7876 69.2587 84.2438 69.2587C84.928 69.2587 85.1561 69.5443 85.1846 69.6014C85.2416 69.6871 85.2986 69.8585 85.2986 69.9156C85.2986 70.1155 85.4127 70.1441 85.4982 70.1441C85.6977 70.1441 85.6978 69.9727 85.6978 69.8299C85.6978 69.4015 85.7263 69.1445 85.7263 69.0588C85.7263 69.0302 85.7263 69.0017 85.7263 69.0017C85.7263 68.916 85.6977 68.8017 85.4982 68.8017C85.4412 68.8017 85.3842 68.8017 85.2416 68.7732C85.042 68.7161 84.6999 68.6875 84.3578 68.6875C83.189 68.6875 82.4192 69.3158 82.4192 70.3155C82.4192 70.9438 82.7613 71.4579 83.6166 72.0862L83.9872 72.3433C84.7284 72.8859 84.9565 73.1144 84.9565 73.5999C84.9565 74.1712 84.5574 74.5139 83.9017 74.5139C83.4455 74.5139 82.8753 74.3425 82.7613 73.857C82.7328 73.7713 82.7328 73.6571 82.7328 73.5999C82.7328 73.2858 82.3337 73.2572 82.3337 73.6571C82.3337 73.7142 82.3337 73.7713 82.3337 73.857C82.3337 73.9998 82.3052 74.2283 82.3052 74.4853C82.3052 74.7424 82.3907 74.7995 82.5047 74.8852C82.7328 75.028 83.0749 75.0851 83.36 75.0851C83.474 75.0851 83.6166 75.0851 83.7306 75.0565C84.1868 75.0565 84.7284 75.028 85.0705 74.7709C85.6122 74.3996 85.8688 73.9141 85.8688 73.3143C85.8973 72.5718 85.4982 72.0005 84.5289 71.3436Z" fill="#B44736"/>
<path d="M91.8272 68.8306C91.7987 68.8306 91.7417 68.8306 91.5991 68.8591C91.5421 68.8591 91.4566 68.8591 91.3711 68.8591C91.257 68.8591 91.143 68.8877 91.0004 68.8877H87.95C87.6934 68.8877 87.4938 68.8877 87.3513 68.8591C87.2372 68.8306 87.1517 68.8306 87.0947 68.802C87.0377 68.7734 87.0092 68.7734 86.9522 68.7734C86.8381 68.7734 86.8096 68.8877 86.7811 68.9448V68.9734L86.7526 69.0305V69.0876C86.7526 69.1162 86.6956 69.3447 86.6671 69.4875C86.61 69.7731 86.5815 69.8873 86.5815 69.9444C86.5815 70.0587 86.6671 70.1444 86.7811 70.1444C86.8951 70.1444 86.9522 70.1158 86.9807 70.0301C87.0092 69.973 87.0377 69.9444 87.0662 69.8873C87.0947 69.8587 87.0947 69.8016 87.1232 69.7731C87.2087 69.6303 87.3513 69.5731 87.8359 69.5731L88.8623 69.5446V72.6863C88.8623 73.4288 88.8623 74.0857 88.8338 74.3713C88.8052 74.5998 88.7767 74.6569 88.7482 74.6855C88.7197 74.6855 88.6627 74.6855 88.6057 74.7141C88.5772 74.7141 88.5487 74.7141 88.5202 74.7141C88.4061 74.7141 88.3206 74.7997 88.3206 74.914C88.3206 74.9997 88.4061 75.1139 88.6057 75.1139C88.8052 75.1139 89.1759 75.0853 89.3469 75.0853H89.461C89.4895 75.0853 89.5465 75.0853 89.632 75.0853C89.8316 75.0853 90.1737 75.1139 90.4873 75.1139C90.7439 75.1139 90.7724 74.9711 90.7724 74.914V74.8283L90.7154 74.7712C90.6583 74.7141 90.5728 74.7141 90.5443 74.7141C90.3732 74.7141 90.2592 74.7141 90.2022 74.6855C90.1452 74.6855 90.0882 74.6569 90.0596 74.6284C89.9741 74.5427 89.9741 74.4285 90.0026 74.3999C90.0026 74.2 89.9456 73.5145 89.8601 72.5434V69.5446L90.7439 69.5731C91.5421 69.5731 91.5706 69.7731 91.5706 69.8587V69.9444C91.5706 70.2015 91.7132 70.23 91.7702 70.23C91.8557 70.23 91.9698 70.1444 91.9698 70.0015C91.9698 69.9444 91.9698 69.8302 91.9698 69.6874C91.9698 69.4875 91.9983 69.2304 91.9983 69.1162C91.9983 68.8591 91.9127 68.8306 91.8272 68.8306Z" fill="#B44736"/>
<path d="M96.7307 73.8285C96.5882 73.8285 96.5312 73.9713 96.5312 74.0284L96.5027 74.0855C96.4457 74.3711 96.3601 74.4568 96.2176 74.5139C96.018 74.5996 95.6189 74.5996 95.4478 74.5996C94.7066 74.5996 94.6781 74.5139 94.6496 74.1141V72.2005C94.9347 72.2005 95.5619 72.2005 95.7614 72.2291C96.018 72.2576 96.0465 72.3147 96.075 72.3719C96.1035 72.429 96.1035 72.5432 96.1035 72.5718C96.1035 72.686 96.1891 72.7717 96.3031 72.7717C96.4456 72.7717 96.5027 72.6003 96.5027 72.4861C96.5027 72.429 96.5027 72.1719 96.5312 72.0291C96.5597 71.8863 96.5597 71.7721 96.5882 71.6864C96.5882 71.6293 96.5882 71.6007 96.5882 71.6007L96.6167 71.515L96.5882 71.4579C96.5597 71.4008 96.5027 71.4008 96.4456 71.4008C96.3316 71.4008 96.2746 71.4579 96.2176 71.515C96.1891 71.5436 96.1035 71.5436 96.018 71.5722L95.8755 71.6007C95.7614 71.6293 95.2198 71.6293 94.6781 71.6293V69.63C95.2198 69.63 95.6474 69.63 95.7329 69.6586C96.1606 69.6872 96.1891 69.7443 96.2176 69.8014C96.2176 69.8014 96.2461 69.8585 96.2461 70.0013C96.2461 70.1441 96.3601 70.2298 96.4456 70.2298C96.5597 70.2298 96.6452 70.087 96.6452 70.0013C96.6452 69.9442 96.6452 69.83 96.6737 69.7157C96.6737 69.6015 96.6737 69.5158 96.6737 69.5158C96.7022 69.4015 96.7022 69.3159 96.7022 69.2587C96.7022 69.2016 96.7307 69.1445 96.7307 69.1159C96.7307 68.916 96.5882 68.916 96.5597 68.916C96.5027 68.916 96.4742 68.9446 96.4456 68.9446C96.4171 68.9446 96.3601 68.9446 96.3316 68.9446C96.2746 68.9446 96.1891 68.9731 96.1035 68.9731H94.0794C94.0509 68.9731 94.0224 68.9731 93.9369 68.9731C93.7373 68.9731 93.3952 68.9446 93.1386 68.9446C92.882 68.9446 92.8535 69.0874 92.8535 69.1445C92.8535 69.2587 92.939 69.3444 93.0531 69.3444C93.0816 69.3444 93.1101 69.3444 93.1671 69.3444C93.2241 69.3444 93.2811 69.373 93.3097 69.373C93.3667 69.373 93.3952 69.373 93.4237 69.4015C93.5092 69.4872 93.5092 69.63 93.5092 69.6586C93.4807 69.8871 93.5377 71.8006 93.6233 74.4853V74.5425C93.5947 74.7424 93.5948 74.771 93.5662 74.771C93.5092 74.771 93.4522 74.771 93.3952 74.7995C93.3667 74.7995 93.3382 74.7995 93.3097 74.7995C93.1956 74.7995 93.1101 74.8852 93.1101 74.9994C93.1101 75.0851 93.1956 75.1994 93.3952 75.1994C93.4807 75.1994 93.5377 75.1994 93.6233 75.1994C93.7088 75.1994 93.7658 75.1708 93.8513 75.1708H94.2219C94.336 75.1708 94.5641 75.1708 94.8777 75.1994C95.0202 75.1994 95.1627 75.1994 95.3338 75.1994C95.5904 75.1994 95.904 75.2279 96.2746 75.2279C96.5882 75.2279 96.7878 75.2279 96.8733 74.9138C96.9018 74.771 96.9588 74.2283 96.9588 74.1426C96.9303 73.9141 96.8163 73.8285 96.7307 73.8285Z" fill="#B44736"/>
<path d="M100.38 68.8906H100.237C99.9239 68.8906 99.5532 68.8906 99.3252 68.9192C99.2396 68.9192 99.1541 68.9192 99.1541 68.9192C99.1256 68.9192 99.0971 68.9192 99.0116 68.9192C98.812 68.9192 98.4699 68.8906 98.2133 68.8906C97.9567 68.8906 97.9282 69.0334 97.9282 69.0905C97.9282 69.2048 98.0138 69.2905 98.1278 69.2905C98.1563 69.2905 98.1848 69.2905 98.2418 69.2905C98.2988 69.2905 98.3559 69.319 98.3844 69.319C98.5269 69.3476 98.5554 69.3476 98.5839 69.6332C98.6124 69.8617 98.6124 70.0902 98.6124 71.2612V72.6892C98.6124 73.4603 98.6124 74.0887 98.5839 74.3743V74.4314C98.5554 74.6313 98.5554 74.6599 98.5269 74.6599C98.4699 74.6599 98.4129 74.6599 98.3559 74.6884C98.3273 74.6884 98.2988 74.6884 98.2703 74.6884C98.1563 74.6884 98.0708 74.7741 98.0708 74.8884C98.0708 74.9741 98.1563 75.0883 98.3559 75.0883C98.4129 75.0883 98.4984 75.0883 98.5839 75.0883C98.6695 75.0883 98.755 75.0597 98.8405 75.0597H99.1541C99.2111 75.0597 99.4677 75.0597 99.8098 75.0883C99.9809 75.0883 100.152 75.0883 100.351 75.0883C100.551 75.0883 100.751 75.1169 100.922 75.1169C102.005 75.1169 102.86 74.8027 103.487 74.2029C103.773 73.9173 104.4 73.1462 104.4 71.8895C104.4 70.7756 103.887 70.0902 103.602 69.776C102.632 68.8906 101.207 68.8906 100.38 68.8906ZM102.661 73.8316C102.205 74.26 101.577 74.5171 100.865 74.5171C99.8383 74.5171 99.6673 74.3172 99.6388 74.26C99.6103 74.2315 99.5817 74.0315 99.5817 73.8031V69.4618C99.5817 69.4333 99.5817 69.4047 99.5817 69.4047C99.6388 69.3762 99.8383 69.3476 100.009 69.3476C101.064 69.3476 101.862 69.4904 102.518 70.1759C102.775 70.4615 103.231 71.0898 103.231 72.0609C103.231 72.832 103.003 73.5175 102.661 73.8316Z" fill="#B44736"/>
<path d="M110.358 71.3436L110.13 71.1723C109.332 70.6296 109.133 70.4011 109.133 69.9727C109.133 69.4586 109.617 69.2587 110.073 69.2587C110.758 69.2587 110.986 69.5443 111.014 69.6014C111.071 69.6871 111.128 69.8585 111.128 69.9156C111.128 70.1155 111.242 70.1441 111.328 70.1441C111.527 70.1441 111.527 69.9727 111.527 69.8299C111.527 69.4015 111.556 69.1445 111.556 69.0588C111.556 69.0302 111.556 69.0017 111.556 69.0017C111.556 68.916 111.527 68.8017 111.328 68.8017C111.271 68.8017 111.214 68.8017 111.071 68.7732C110.872 68.7161 110.53 68.6875 110.187 68.6875C109.019 68.6875 108.249 69.3158 108.249 70.3155C108.249 70.9438 108.591 71.4579 109.446 72.0862L109.817 72.3433C110.558 72.8859 110.786 73.1144 110.786 73.5999C110.786 74.1712 110.387 74.5139 109.731 74.5139C109.275 74.5139 108.705 74.3425 108.591 73.857C108.562 73.7713 108.562 73.6571 108.562 73.5999C108.562 73.2858 108.163 73.2572 108.163 73.6571C108.163 73.7142 108.163 73.7713 108.163 73.857C108.163 73.9998 108.135 74.2283 108.135 74.4853C108.135 74.7424 108.22 74.7995 108.334 74.8852C108.562 75.028 108.876 75.0851 109.19 75.0851C109.332 75.0851 109.446 75.0851 109.56 75.0565C110.016 75.0565 110.558 75.028 110.9 74.7709C111.442 74.3996 111.698 73.9141 111.698 73.3143C111.727 72.5718 111.328 72.0005 110.358 71.3436Z" fill="#B44736"/>
<path d="M115.147 74.6884C115.062 74.6884 114.919 74.6884 114.805 74.6599C114.691 74.6313 114.662 74.5742 114.634 74.3457C114.605 74.003 114.605 73.3747 114.605 72.6321V69.6332C114.634 69.3476 114.662 69.3476 114.776 69.319C114.862 69.2905 114.89 69.2905 114.947 69.2905C115.062 69.2905 115.147 69.2048 115.147 69.0905C115.147 69.0049 115.062 68.8906 114.862 68.8906C114.634 68.8906 114.292 68.9192 114.121 68.9192H114.035C114.007 68.9192 113.95 68.9192 113.864 68.9192C113.665 68.9192 113.379 68.8906 113.208 68.8906C112.952 68.8906 112.923 69.0334 112.923 69.0905C112.923 69.2048 113.009 69.2905 113.123 69.2905C113.18 69.2905 113.265 69.2905 113.351 69.319C113.408 69.319 113.465 69.3476 113.494 69.6332C113.522 69.8617 113.522 70.0902 113.522 71.2612V72.6321C113.522 73.3747 113.522 74.0315 113.494 74.3457C113.494 74.6313 113.436 74.6313 113.436 74.6313C113.379 74.6313 113.322 74.6313 113.265 74.6599C113.237 74.6599 113.208 74.6599 113.18 74.6599C113.066 74.6599 112.98 74.7456 112.98 74.8598C112.98 74.9455 113.066 75.0597 113.265 75.0597C113.436 75.0597 113.75 75.0312 113.921 75.0312C113.978 75.0312 114.007 75.0312 114.035 75.0312C114.035 75.0312 114.092 75.0312 114.149 75.0312C114.349 75.0312 114.719 75.0597 115.062 75.0597C115.318 75.0597 115.347 74.9169 115.347 74.8598C115.347 74.7741 115.261 74.6884 115.147 74.6884Z" fill="#B44736"/>
<path d="M122.589 68.8589C122.389 68.8589 122.218 68.8589 122.076 68.8874C121.933 68.8874 121.876 68.8874 121.705 68.8874C121.534 68.8874 121.306 68.8589 121.049 68.8589C120.764 68.8589 120.736 69.0017 120.736 69.0588V69.1445L120.764 69.2016C120.821 69.2587 120.907 69.2587 120.935 69.2587C121.021 69.2587 121.163 69.2587 121.306 69.2873C121.391 69.2873 121.477 69.3158 121.477 69.8585L121.563 73.3715C121.192 72.9716 120.536 72.2861 119.938 71.6293L119.111 70.7439C118.227 69.8014 117.514 69.0873 117.4 68.9445C117.372 68.916 117.343 68.8874 117.315 68.8589C117.229 68.7732 117.115 68.6875 117.001 68.6875C116.773 68.6875 116.773 69.0017 116.773 69.2302V73.7142C116.773 74.3996 116.745 74.5139 116.659 74.5424C116.573 74.571 116.431 74.571 116.374 74.571C116.26 74.571 116.174 74.6567 116.174 74.7709C116.174 74.9708 116.374 74.9709 116.459 74.9709C116.687 74.9709 116.916 74.9708 117.087 74.9423C117.172 74.9423 117.201 74.9423 117.229 74.9423C117.258 74.9423 117.286 74.9423 117.372 74.9423C117.514 74.9423 117.771 74.9709 118.084 74.9709C118.284 74.9709 118.37 74.8566 118.37 74.7709C118.37 74.6567 118.284 74.571 118.17 74.571C118.084 74.571 117.913 74.571 117.799 74.5424C117.714 74.5424 117.628 74.4853 117.6 73.7999L117.486 70.4868C117.913 70.9438 118.598 71.7149 119.31 72.429C120.109 73.3143 121.306 74.4853 121.391 74.5424C121.876 74.9994 121.962 75.0565 122.104 75.0565C122.304 75.0565 122.304 74.9708 122.304 74.3711L122.332 69.8014C122.332 69.2873 122.361 69.2873 122.503 69.2587C122.589 69.2302 122.646 69.2302 122.674 69.2302C122.817 69.2302 122.902 69.1159 122.902 69.0302C122.874 68.8589 122.674 68.8589 122.589 68.8589Z" fill="#B44736"/>
<path d="M129.117 73.3143C128.975 73.3143 128.946 73.4 128.889 73.5143C128.86 73.6571 128.746 73.9427 128.604 74.0855C128.319 74.3996 127.948 74.3996 127.378 74.3996C125.81 74.3996 124.613 73.2572 124.613 71.7149C124.613 71.0295 124.698 70.3155 125.297 69.8014C125.525 69.5729 125.924 69.2873 127.007 69.2873C127.72 69.2873 128.262 69.4872 128.518 69.6871C128.632 69.8014 128.775 70.087 128.775 70.344C128.775 70.4583 128.775 70.6582 128.975 70.6582C129.117 70.6582 129.203 70.5725 129.203 70.3726C129.231 70.2583 129.231 70.0013 129.231 69.5729C129.231 69.4015 129.231 69.3158 129.26 69.2302C129.26 69.2016 129.26 69.173 129.26 69.1445C129.26 69.0017 129.174 68.916 129.06 68.916C128.918 68.8874 128.775 68.8589 128.632 68.8303C128.49 68.8017 128.376 68.8017 128.233 68.7732C127.863 68.7161 127.407 68.6875 127.036 68.6875C125.953 68.6875 125.126 68.9731 124.499 69.5729C123.786 70.2583 123.529 71.1723 123.529 71.8006C123.529 72.8002 123.871 73.6285 124.556 74.2283C125.24 74.828 126.067 75.0851 127.15 75.0851C127.207 75.0851 127.264 75.0851 127.321 75.0851C128.091 75.0851 128.575 75.028 128.86 74.9137C129.032 74.8566 129.117 74.7709 129.146 74.5996C129.26 74.2568 129.345 73.5714 129.345 73.5143C129.317 73.4571 129.231 73.3143 129.117 73.3143Z" fill="#B44736"/>
<path d="M134.163 73.8316C134.021 73.8316 133.964 73.9744 133.964 74.0316L133.935 74.0887C133.878 74.3743 133.793 74.46 133.65 74.5171C133.451 74.6028 133.052 74.6028 132.881 74.6028C132.139 74.6028 132.111 74.5171 132.082 74.1172V72.2037C132.538 72.2037 133.023 72.2037 133.194 72.2322C133.451 72.2608 133.479 72.3179 133.508 72.375C133.536 72.4321 133.536 72.5464 133.536 72.575C133.536 72.6892 133.622 72.7749 133.736 72.7749C133.878 72.7749 133.935 72.6035 133.935 72.4893C133.935 72.4322 133.935 72.1751 133.964 72.0323C133.992 71.8895 133.992 71.7753 134.021 71.6896C134.021 71.6325 134.021 71.6039 134.021 71.5753C134.021 71.3754 133.878 71.3754 133.85 71.3754C133.736 71.3754 133.679 71.4325 133.622 71.4896C133.593 71.5182 133.508 71.5182 133.422 71.5468L133.28 71.5753C133.166 71.6039 132.624 71.6039 132.082 71.6039V69.6046C132.624 69.6046 133.052 69.6046 133.137 69.6332C133.565 69.6618 133.593 69.7189 133.622 69.776C133.622 69.776 133.65 69.8331 133.65 69.9759C133.65 70.1187 133.764 70.2044 133.85 70.2044C133.964 70.2044 134.049 70.0616 134.049 69.9759C134.049 69.9188 134.049 69.8046 134.078 69.6903C134.078 69.5761 134.078 69.4904 134.078 69.4904C134.106 69.3762 134.106 69.2905 134.106 69.2334C134.106 69.1762 134.135 69.1191 134.135 69.0905C134.135 68.8906 133.992 68.8906 133.964 68.8906C133.907 68.8906 133.878 68.9192 133.85 68.9192C133.821 68.9192 133.764 68.9192 133.736 68.9192C133.679 68.9192 133.593 68.9477 133.508 68.9477H131.569C131.541 68.9477 131.512 68.9477 131.427 68.9477C131.227 68.9477 130.885 68.9192 130.628 68.9192C130.372 68.9192 130.343 69.062 130.343 69.1191C130.343 69.2334 130.429 69.319 130.543 69.319C130.571 69.319 130.6 69.319 130.657 69.319C130.714 69.319 130.771 69.3476 130.799 69.3476C130.942 69.3762 130.97 69.3762 130.999 69.6618C131.027 69.8902 131.027 70.1187 131.027 71.2897L131.142 72.7749C131.142 73.546 131.142 74.1744 131.113 74.46V74.5171C131.084 74.717 131.084 74.7456 131.056 74.7456C130.999 74.7456 130.942 74.7456 130.885 74.7741C130.856 74.7741 130.828 74.7741 130.799 74.7741C130.685 74.7741 130.6 74.8598 130.6 74.9741C130.6 75.0597 130.685 75.174 130.885 75.174C130.97 75.174 131.027 75.174 131.113 75.174C131.199 75.174 131.256 75.1454 131.341 75.1454H131.712C131.826 75.1454 132.054 75.1454 132.367 75.174C132.51 75.174 132.652 75.174 132.824 75.174C133.08 75.174 133.394 75.2025 133.764 75.2025C134.078 75.2025 134.278 75.2025 134.363 74.8884C134.392 74.7456 134.449 74.2029 134.449 74.1172C134.363 73.9173 134.249 73.8316 134.163 73.8316Z" fill="#B44736"/>
<path d="M141.803 74.6285C141.689 74.6285 141.347 74.5999 141.205 74.5714C140.977 74.5428 140.977 74.4857 140.948 74.2286C140.92 73.8288 140.92 73.0291 140.92 72.1151V70.4586C140.92 69.2591 140.948 68.4308 140.948 68.1738V68.0595C140.948 67.7454 140.749 67.7168 140.72 67.7168C140.635 67.7168 140.521 67.7454 140.407 67.831L138.639 69.002L138.61 69.0306C138.582 69.0591 138.525 69.1163 138.525 69.2305C138.525 69.3733 138.639 69.459 138.724 69.459C138.753 69.459 138.839 69.459 138.896 69.4019C139.352 69.1734 139.779 69.002 139.893 69.002C139.893 69.002 139.922 69.0306 139.922 69.1448V72.1437C139.922 73.0862 139.922 73.8573 139.893 74.2572C139.865 74.5142 139.808 74.5714 139.608 74.6285C139.437 74.657 138.981 74.6856 138.924 74.6856C138.81 74.6856 138.724 74.7713 138.724 74.8855C138.724 75.0283 138.896 75.0855 139.038 75.0855C139.494 75.0855 140.121 75.0569 140.349 75.0569H140.435H140.492C140.663 75.0569 141.176 75.0855 141.746 75.0855C142.003 75.0855 142.06 74.9712 142.06 74.8855C142.032 74.7142 141.889 74.6285 141.803 74.6285Z" fill="#B44736"/>
<path d="M145.51 67.6328C144.113 67.6328 143.172 68.5468 143.172 69.8891C143.172 70.6317 143.714 71.8027 145.168 71.8027C145.538 71.8027 146.08 71.6884 146.393 71.3457C146.45 71.2886 146.45 71.26 146.45 71.1743C146.45 70.9744 146.308 70.9744 146.279 70.9744C146.194 70.9744 146.137 71.003 146.108 71.0315L146.051 71.0887C146.023 71.1172 145.88 71.2315 145.453 71.2315C145.453 71.2315 144.227 71.1172 144.227 69.5464C144.227 68.9466 144.569 68.2897 145.339 68.2897C146.023 68.2897 146.707 69.0037 146.707 70.5746C146.707 72.8023 145.196 74.2303 144.312 74.7444L144.284 74.773C144.227 74.8301 144.17 74.8872 144.17 75.03C144.17 75.1728 144.284 75.2585 144.369 75.2585C144.426 75.2585 144.483 75.2585 144.569 75.2014C145.11 74.9158 147.819 73.3735 147.819 70.3746C147.762 68.7752 146.85 67.6899 145.51 67.6328Z" fill="#B44736"/>
<path d="M150.756 67.6328C149.359 67.6328 148.418 68.5468 148.418 69.8891C148.418 70.6317 148.96 71.8027 150.414 71.8027C150.784 71.8027 151.326 71.6884 151.64 71.3457C151.697 71.2886 151.697 71.26 151.697 71.1743C151.697 70.9744 151.554 70.9744 151.525 70.9744C151.44 70.9744 151.383 71.003 151.354 71.0315L151.297 71.0887C151.269 71.1172 151.126 71.2315 150.699 71.2315C150.699 71.2315 149.473 71.1172 149.473 69.5464C149.473 68.9466 149.815 68.2897 150.585 68.2897C151.269 68.2897 151.953 69.0037 151.953 70.5746C151.953 72.8023 150.442 74.2303 149.558 74.7444L149.53 74.773C149.473 74.8301 149.416 74.8872 149.416 75.03C149.416 75.1728 149.53 75.2585 149.615 75.2585C149.672 75.2585 149.729 75.2585 149.815 75.2014C150.357 74.9158 153.065 73.3735 153.065 70.3746C153.008 68.8038 152.096 67.6899 150.756 67.6328Z" fill="#B44736"/>
<path d="M155.117 69.8869L155.203 68.6303H156.771C157.455 68.6303 157.455 68.8016 157.455 69.0872C157.455 69.2872 157.569 69.3728 157.655 69.3728C157.769 69.3728 157.854 69.23 157.854 69.1729C157.968 68.4875 157.997 68.0876 157.997 68.0019C157.997 67.8591 157.883 67.7734 157.797 67.7734C157.769 67.7734 157.74 67.7734 157.712 67.7734C157.655 67.7734 157.569 67.802 157.455 67.802C157.37 67.802 157.227 67.8306 157.085 67.8306H154.918C154.69 67.8306 154.604 67.9734 154.604 68.1162L154.405 70.4296C154.376 70.5438 154.405 70.6295 154.433 70.6581C154.519 70.7723 154.661 70.7723 154.747 70.7723C155.374 70.8009 156.914 71.4578 156.914 72.8572C156.914 74.0568 156.144 74.4852 155.46 74.4852C154.69 74.4852 154.348 74.171 154.348 73.457C154.348 73.3142 154.348 73.1428 154.148 73.1428C154.006 73.1428 153.949 73.2856 153.949 73.3428C153.949 73.3713 153.949 73.3713 153.92 73.3999V73.4285C153.892 73.7141 153.892 74.2567 153.892 74.5709C153.892 74.6851 153.92 74.8279 154.12 74.9422C154.376 75.1135 154.775 75.1421 155.06 75.1421C156.942 75.1421 157.94 73.7997 157.94 72.486C157.997 70.9437 156.486 70.1154 155.117 69.8869Z" fill="#B44736"/>
<path d="M14.7106 60.8082C14.7392 60.9225 14.7677 61.0367 14.7962 61.1509C14.7677 61.2366 14.7106 61.3509 14.5681 61.4366C14.4826 61.4937 14.34 61.5508 13.9979 61.5222C13.7984 61.4937 13.4562 61.4366 13.0571 61.1795C13.1141 60.8653 13.1712 60.5226 13.2567 60.2084C13.2852 59.78 13.2852 59.3802 13.3137 58.9518C13.3137 58.9518 12.7435 57.7522 12.3729 57.5523C12.3729 57.5523 12.0308 59.1231 12.0308 60.1799V60.5797L12.0593 60.8939C12.1163 61.0081 12.1448 61.1509 12.2018 61.2652C12.2018 61.2652 12.2589 61.3509 12.2304 61.4366C12.2018 61.4937 12.1448 61.5222 12.1448 61.5508C11.6032 61.5508 11.09 61.5508 10.5483 61.5508C10.4628 61.5508 10.4343 61.5222 10.4058 61.4937C10.2917 61.3794 10.2917 61.0938 10.4913 60.8082C10.5198 60.0942 10.5198 59.3802 10.5483 58.6947L10.4913 56.7812C10.4913 56.7812 7.92549 57.0953 7.15575 56.8383C7.15575 56.8383 6.64258 57.6094 6.41451 57.7522C6.41451 57.7522 6.55706 59.3516 6.78513 60.237C6.78513 60.237 6.95618 60.7797 7.12724 61.0081L7.15575 61.1509L7.12724 61.2652C7.12724 61.2652 6.84215 61.5794 6.04389 61.5794C6.04389 61.5794 5.53073 61.6079 5.21713 61.1795L5.07459 58.5519L4.90353 58.5234C4.73248 58.9518 4.58993 59.3802 4.41888 59.8086C4.39037 59.9514 4.36186 60.0942 4.33335 60.2084C4.30484 60.6369 4.24782 61.0653 4.21932 61.4651C4.21932 61.4651 3.93422 61.665 3.42106 61.665C2.9079 61.665 2.42324 61.1224 2.42324 61.1224L2.45175 60.8653L2.93641 59.3802L3.02193 58.7233L3.05044 56.4956C3.05044 56.4956 2.73684 55.2674 2.62281 54.0393L2.50877 54.0679C2.53728 54.5534 2.53728 54.9818 2.53728 55.296C2.53728 55.4674 2.50877 55.6673 2.48026 56.0671C2.42324 56.6955 2.39474 56.8097 2.36623 56.924C2.30921 57.1239 2.22368 57.3238 2.10965 57.5523C2.02412 57.7237 1.9671 57.8665 1.91008 57.9521C1.88157 58.0378 1.85306 58.1521 1.82455 58.2663C1.76754 58.4377 1.68201 58.609 1.56797 58.6947C1.56797 58.6947 1.28288 58.9232 0.741211 58.9232C0.741211 58.9232 0.826738 58.4948 1.16885 58.2092L1.76754 57.8665C1.76754 57.8665 2.10965 57.2381 2.16666 56.6955V55.039L2.10965 54.0108C2.10965 54.0108 2.22368 51.3832 3.79168 50.098C5.35968 48.8127 5.87284 48.7556 6.98469 48.6699L7.98251 48.8699C7.98251 48.8699 8.83778 49.2697 9.43647 49.2126C10.0352 49.1555 10.0352 49.1555 10.0352 49.1555C10.0352 49.1555 10.4343 48.9841 10.4913 48.9841C10.5198 48.9841 10.8904 48.8127 11.1185 48.6985C10.8619 49.2983 10.3773 50.4692 10.4343 50.9548C10.5483 51.9544 11.6887 52.8969 13.6558 53.668C13.5988 53.8965 13.5133 54.4106 13.5133 54.6391C13.5418 54.9533 14.7106 58.2092 14.7106 58.2092C14.6821 58.6376 14.6536 59.066 14.6251 59.4944C14.6821 59.98 14.6821 60.3798 14.7106 60.8082Z" fill="#B44736"/>
<path d="M20.9253 48.5549C20.9253 49.3546 20.6402 50.5256 19.6424 51.2396C18.5306 52.0679 17.3617 51.868 17.3617 51.868H17.2762C17.2762 51.868 17.4187 52.3249 18.2455 52.6676C18.2455 52.6676 17.7608 52.8105 17.1336 52.3249C17.1336 52.3249 16.4209 52.6391 15.4231 52.5534L15.3091 52.6105L15.0525 53.7815C15.0525 53.7815 14.4823 53.7815 14.0547 53.7244C11.945 52.9533 10.7191 52.0393 10.6051 51.0397C10.548 50.5542 11.1182 49.2118 11.3463 48.6977H11.3748C11.3748 48.6977 11.888 48.0694 12.3156 48.0123C12.7432 47.9551 13.1709 48.0979 13.5985 47.8409C13.5985 47.8409 14.4538 47.4696 14.8529 47.4982C15.252 47.4982 15.4231 47.441 16.1928 48.0123C16.9626 48.612 17.8178 49.3832 17.8178 49.3832C17.8178 49.3832 18.0744 49.8401 18.6731 49.8116C19.2433 49.783 19.785 49.3546 19.956 48.8691C20.1271 48.3835 19.8705 47.3839 19.728 46.927C19.5854 46.4414 19.1578 45.3561 19.9845 44.6992L20.1556 45.0991L20.6688 45.2133C20.6688 45.2133 20.2411 45.5275 20.2411 45.7274C20.2411 46.1558 20.4407 46.47 20.6688 47.0126C20.6117 46.9555 20.8968 47.641 20.9253 48.5549Z" fill="#B44736"/>
<path d="M207.289 60.8082C207.261 60.9225 207.232 61.0367 207.204 61.1509C207.232 61.2366 207.289 61.3509 207.432 61.4366C207.517 61.4937 207.66 61.5508 208.002 61.5222C208.201 61.4937 208.544 61.4366 208.943 61.1795C208.886 60.8653 208.829 60.5226 208.743 60.2084C208.715 59.78 208.715 59.3802 208.686 58.9518C208.686 58.9518 209.256 57.7522 209.627 57.5523C209.627 57.5523 209.969 59.1231 209.969 60.1799V60.5797L209.94 60.8939C209.883 61.0081 209.855 61.1509 209.798 61.2652C209.798 61.2652 209.741 61.3509 209.769 61.4366C209.798 61.4937 209.855 61.5222 209.855 61.5508C210.397 61.5508 210.91 61.5508 211.451 61.5508C211.537 61.5508 211.566 61.5222 211.594 61.4937C211.708 61.3794 211.708 61.0938 211.508 60.8082C211.48 60.0942 211.48 59.3802 211.451 58.6947L211.508 56.7812C211.508 56.7812 214.074 57.0953 214.844 56.8383C214.844 56.8383 215.357 57.6094 215.585 57.7522C215.585 57.7522 215.443 59.3516 215.215 60.237C215.215 60.237 215.044 60.7797 214.873 61.0081L214.844 61.1509L214.873 61.2652C214.873 61.2652 215.158 61.5794 215.956 61.5794C215.956 61.5794 216.469 61.6079 216.783 61.1795L216.925 58.5519L217.096 58.5234C217.267 58.9518 217.41 59.3802 217.581 59.8086C217.609 59.9514 217.638 60.0942 217.666 60.2084C217.695 60.6369 217.752 61.0653 217.78 61.4651C217.78 61.4651 218.066 61.665 218.579 61.665C219.092 61.665 219.577 61.1224 219.577 61.1224L219.548 60.8653L219.063 59.3802L218.978 58.7233L218.949 56.4956C218.949 56.4956 219.263 55.2674 219.377 54.0393L219.491 54.0679C219.463 54.5534 219.463 54.9818 219.463 55.296C219.463 55.4674 219.491 55.6673 219.52 56.0671C219.577 56.6955 219.605 56.8097 219.634 56.924C219.691 57.1239 219.776 57.3238 219.89 57.5523C219.976 57.7237 220.033 57.8665 220.09 57.9521C220.118 58.0378 220.147 58.1521 220.175 58.2663C220.232 58.4377 220.318 58.609 220.432 58.6947C220.432 58.6947 220.717 58.9232 221.259 58.9232C221.259 58.9232 221.173 58.4948 220.831 58.2092L220.232 57.8665C220.232 57.8665 219.89 57.2381 219.833 56.6955V55.039L219.89 54.0108C219.89 54.0108 219.776 51.3832 218.208 50.098C216.64 48.8127 216.127 48.7556 215.015 48.6699L214.017 48.8699C214.017 48.8699 213.162 49.2697 212.563 49.2126C211.965 49.1555 211.965 49.1555 211.965 49.1555C211.965 49.1555 211.566 48.9841 211.508 48.9841C211.48 48.9841 211.109 48.8127 210.881 48.6985C211.138 49.2983 211.623 50.4692 211.565 50.9548C211.451 51.9544 210.311 52.8969 208.344 53.668C208.401 53.8965 208.487 54.4106 208.487 54.6391C208.458 54.9533 207.289 58.2092 207.289 58.2092C207.318 58.6376 207.346 59.066 207.375 59.4944C207.318 59.98 207.318 60.3798 207.289 60.8082Z" fill="#B44736"/>
<path d="M201.074 48.5549C201.074 49.3546 201.359 50.5256 202.357 51.2396C203.469 52.0679 204.638 51.868 204.638 51.868H204.723C204.723 51.868 204.581 52.3249 203.754 52.6676C203.754 52.6676 204.239 52.8105 204.866 52.3249C204.866 52.3249 205.579 52.6391 206.576 52.5534L206.691 52.6105L206.947 53.7815C206.947 53.7815 207.517 53.7815 207.945 53.7244C210.055 52.9533 211.28 52.0393 211.394 51.0397C211.452 50.5542 210.881 49.2118 210.653 48.6977H210.625C210.625 48.6977 210.112 48.0694 209.684 48.0123C209.256 47.9551 208.829 48.0979 208.401 47.8409C208.401 47.8409 207.546 47.4696 207.147 47.4982C206.748 47.4982 206.576 47.441 205.807 48.0123C205.037 48.612 204.182 49.3832 204.182 49.3832C204.182 49.3832 203.925 49.8401 203.326 49.8116C202.756 49.783 202.215 49.3546 202.044 48.8691C201.872 48.3835 202.129 47.3839 202.272 46.927C202.414 46.4414 202.842 45.3561 202.015 44.6992L201.844 45.0991L201.331 45.2133C201.331 45.2133 201.758 45.5275 201.758 45.7274C201.758 46.1558 201.559 46.47 201.331 47.0126C201.388 46.9555 201.103 47.641 201.074 48.5549Z" fill="#B44736"/>
</g>
<defs>
<clipPath id="clip0_1396_8470">
<rect width="222" height="76" fill="white"/>
</clipPath>
</defs>
</svg>
