<svg width="20" height="20" viewBox="0 0 20 20" fill="none" xmlns="http://www.w3.org/2000/svg">
<path d="M7.8055 6.81719L9.62051 5.00218V14.6035C9.62051 14.8367 9.71315 15.0603 9.87805 15.2252C10.043 15.3902 10.2666 15.4828 10.4998 15.4828C10.733 15.4828 10.9567 15.3902 11.1216 15.2252C11.2865 15.0603 11.3791 14.8367 11.3791 14.6035V5.00218L13.1941 6.81719C13.2757 6.8992 13.3727 6.96432 13.4794 7.0088C13.5862 7.05329 13.7007 7.07627 13.8164 7.07642C13.9321 7.07658 14.0466 7.05391 14.1535 7.00972C14.2604 6.96553 14.3576 6.90067 14.4394 6.81888C14.5211 6.73709 14.586 6.63996 14.6302 6.53306C14.6744 6.42616 14.6971 6.31159 14.6969 6.19592C14.6967 6.08024 14.6738 5.96574 14.6293 5.85896C14.5848 5.75218 14.5197 5.65523 14.4377 5.57366L11.1216 2.25756C11.0399 2.1759 10.943 2.11113 10.8363 2.06694C10.7296 2.02275 10.6153 2 10.4998 2C10.3843 2 10.27 2.02275 10.1633 2.06694C10.0566 2.11113 9.95969 2.1759 9.87803 2.25756L6.56197 5.57366C6.47996 5.65523 6.41484 5.75218 6.37036 5.85896C6.32587 5.96574 6.30289 6.08024 6.30274 6.19592C6.30258 6.31159 6.32525 6.42616 6.36944 6.53306C6.41363 6.63996 6.47848 6.73709 6.56028 6.81888C6.64207 6.90067 6.7392 6.96553 6.8461 7.00972C6.953 7.05391 7.06757 7.07658 7.18324 7.07642C7.29891 7.07627 7.41342 7.05329 7.5202 7.0088C7.62698 6.96432 7.72393 6.8992 7.8055 6.81719Z" fill="black"/>
<path d="M18.1207 9.62109C17.8875 9.62109 17.6638 9.71373 17.4989 9.87864C17.334 10.0435 17.2414 10.2672 17.2414 10.5004V17.2418H3.75862V10.5004C3.75862 10.2672 3.66598 10.0435 3.50108 9.87864C3.33617 9.71373 3.11252 9.62109 2.87931 9.62109C2.6461 9.62109 2.42245 9.71373 2.25754 9.87864C2.09264 10.0435 2 10.2672 2 10.5004V17.5349C2 17.9236 2.1544 18.2963 2.42924 18.5712C2.70408 18.846 3.07684 19.0004 3.46552 19.0004H17.5345C17.9232 19.0004 18.2959 18.846 18.5708 18.5712C18.8456 18.2963 19 17.9236 19 17.5349V10.5004C19 10.2672 18.9074 10.0435 18.7425 9.87864C18.5776 9.71373 18.3539 9.62109 18.1207 9.62109Z" fill="black"/>
</svg>
