<svg width="24" height="24" viewBox="0 0 24 24" fill="none" xmlns="http://www.w3.org/2000/svg">
<g clip-path="url(#clip0_1106_32530)">
<mask id="mask0_1106_32530" style="mask-type:luminance" maskUnits="userSpaceOnUse" x="0" y="0" width="24" height="24">
<path d="M24 0H0V24H24V0Z" fill="white"/>
</mask>
<g mask="url(#mask0_1106_32530)">
<path d="M12 0C5.37281 0 0 5.37281 0 12C0 18.6272 5.37281 24 12 24C18.6272 24 24 18.6272 24 12C24 5.37281 18.6272 0 12 0ZM18.8105 11.7478C18.5063 12.5733 18.0534 13.3153 17.5322 14.0184C16.8516 14.9358 16.0692 15.7608 15.2381 16.5408C14.235 17.483 13.1667 18.3469 12.0652 19.1705L12.0361 19.1906L12.0244 19.1991L12 19.1794C11.6789 18.9188 11.3592 18.6609 11.0423 18.4008C10.0955 17.625 9.16734 16.8258 8.29453 15.9675C7.50562 15.1927 6.76172 14.3775 6.13828 13.4606C5.74125 12.877 5.40562 12.262 5.18109 11.5898C4.99641 11.0353 4.89984 10.4648 4.94156 9.88266C5.02219 8.82 5.40281 7.89188 6.22312 7.17938C6.74484 6.72703 7.36031 6.47625 8.04 6.37266C8.35865 6.324 8.68166 6.31032 9.00328 6.33187C10.1583 6.41156 11.0723 6.92344 11.7291 7.87875C11.8252 8.01937 11.9105 8.16562 12 8.31281L12.0309 8.36391C12.0309 8.36109 12.0342 8.35734 12.0361 8.35453C12.0853 8.26828 12.1341 8.17922 12.1861 8.09297C12.5503 7.48875 13.0228 6.99563 13.6561 6.67078C14.2519 6.36422 14.8875 6.26578 15.5513 6.32438C16.1306 6.37547 16.6866 6.51188 17.2041 6.78141C18.2353 7.31484 18.8489 8.16094 19.0697 9.29344C19.2337 10.1381 19.1034 10.9523 18.8105 11.7478Z" fill="#404054"/>
</g>
</g>
<defs>
<clipPath id="clip0_1106_32530">
<rect width="24" height="24" fill="white"/>
</clipPath>
</defs>
</svg>
